<?xml version="1.0" encoding="UTF-8" standalone="no"?>
<!-- Created with Inkscape (http://www.inkscape.org/) -->

<svg
   width="101.88874mm"
   height="101.88874mm"
   viewBox="0 0 101.88874 101.88874"
   version="1.1"
   id="svg1"
   xml:space="preserve"
   xmlns="http://www.w3.org/2000/svg"
   xmlns:svg="http://www.w3.org/2000/svg"><defs
     id="defs1" /><g
     id="layer1"
     transform="translate(-57.540522,-72.37102)"><g
       id="g2"
       transform="translate(87.421809,31.222076)"><rect
         style="fill:#1d2270;fill-opacity:1;stroke:#1d2270;stroke-width:2;stroke-linejoin:round;stroke-dasharray:none;stroke-opacity:1"
         id="rect4"
         width="99.888733"
         height="99.888733"
         x="58.54052"
         y="73.371017"
         transform="translate(-87.421809,-31.222076)" /><path
         style="fill:#fdfcfa;stroke-width:0.470956"
         d="M 13.478894,135.01559 13.156298,134.6322 V 120.40472 106.17723 L 8.849186,101.87896 C 6.480276,99.514913 4.46164,97.429273 4.363328,97.244213 4.211411,96.958233 4.184581,94.984233 4.184581,84.092953 V 71.277988 L 3.524955,70.954476 C 1.658701,70.03918 0.69958901,68.218614 1.056418,66.268746 c 0.193931,-1.059717 0.574068,-1.709858 1.463036,-2.50218 0.514774,-0.458811 0.924025,-0.69703 1.517501,-0.883314 0.989743,-0.310667 1.427925,-0.318063 2.465399,-0.04161 1.463568,0.389986 2.686104,1.612524 3.076094,3.076093 0.273983,1.028228 0.268638,1.364935 -0.03683,2.321189 -0.387743,1.213739 -1.324517,2.267122 -2.457775,2.763722 l -0.652062,0.285737 -0.0024,12.58307 -0.0024,12.58307 4.485859,4.492067 4.485859,4.49207 v 14.59668 14.59667 l -0.322596,0.38338 c -0.25661,0.30497 -0.420004,0.38338 -0.798869,0.38338 -0.378861,0 -0.542254,-0.0784 -0.798869,-0.38338 z M 6.682359,69.795537 c 0.691853,-0.34916 1.222828,-0.937794 1.489955,-1.651752 0.465625,-1.244495 0.228762,-2.385307 -0.681502,-3.282346 -1.314769,-1.295662 -3.054764,-1.295662 -4.369528,0 -1.664586,1.640397 -0.965258,4.390308 1.305237,5.132485 0.48549,0.158696 1.772566,0.0455 2.255838,-0.198387 z m 18.758825,65.095243 -0.322596,-0.38338 v -14.59667 -14.59667 l 4.485859,-4.49208 4.485859,-4.492067 -0.0024,-12.58307 -0.0024,-12.583074 -0.652062,-0.285737 c -1.133258,-0.496599 -2.070027,-1.549983 -2.45777,-2.763721 -0.305486,-0.956255 -0.310831,-1.292961 -0.03683,-2.32119 0.389985,-1.463569 1.612521,-2.686107 3.076093,-3.076092 1.037475,-0.276448 1.475657,-0.269051 2.4654,0.04161 0.593476,0.186285 1.002727,0.424503 1.517501,0.883315 0.888963,0.792321 1.269105,1.442463 1.463036,2.50218 0.356824,1.949867 -0.602283,3.770433 -2.468537,4.68573 l -0.659631,0.323512 v 12.814777 c 0,10.89127 -0.02684,12.86527 -0.178742,13.15125 -0.09831,0.18506 -2.116948,2.2707 -4.485858,4.634747 l -4.307117,4.29827 v 14.22749 14.22749 l -0.322596,0.38338 c -0.256614,0.30497 -0.420003,0.38338 -0.798869,0.38338 -0.378861,0 -0.542254,-0.0784 -0.798869,-0.38338 z M 36.588079,69.67093 c 0.691859,-0.349161 1.222834,-0.937794 1.48996,-1.651752 0.465625,-1.244495 0.228762,-2.385307 -0.681502,-3.282346 -1.314769,-1.295662 -3.054764,-1.295662 -4.369528,0 -1.664585,1.640397 -0.965258,4.390308 1.305237,5.132485 0.48549,0.158696 1.772566,0.0455 2.255833,-0.198387 z"
         id="path4" /><path
         style="fill:#d3af36;stroke-width:0.470956"
         d="m 7.996176,135.2643 -0.322591,-0.38338 v -6.1585 -6.15849 H 5.97631 4.279036 l -1.450108,-1.49529 c -0.797555,-0.82241 -1.521495,-1.49529 -1.608744,-1.49529 -0.08725,0 -0.50733299,0.11771 -0.93350599,0.26157 -0.931504,0.31445 -1.68255301,0.27874 -2.80102701,-0.1332 -0.976923,-0.35981 -2.039693,-1.38436 -2.469619,-2.38082 -0.416024,-0.96423 -0.415435,-2.34271 0.0014,-3.28524 0.419353,-0.94823 1.313012,-1.86469 2.258169,-2.31576 1.010682,-0.48236 2.38975001,-0.52209 3.43452001,-0.0989 0.90271499,0.36562 2.08952399,1.55243 2.45513699,2.45514 0.385078,0.95077 0.369418,2.3219 -0.03716,3.25432 l -0.298841,0.68534 1.204909,1.21492 1.204904,1.21492 h 1.217257 1.217262 v -5.15512 -5.15513 l -1.090316,-0.0759 c -0.599673,-0.0418 -2.436068,-0.10772 -4.080883,-0.1466 -1.64481499,-0.0389 -3.21633999,-0.12788 -3.49227799,-0.19777 -0.29713101,-0.0753 -0.75441501,-0.35597 -1.12146401,-0.68843 -0.340869,-0.30875 -0.910302,-0.81315 -1.265408,-1.12091 l -0.645648,-0.55957 -0.600422,0.2041 c -1.292191,0.43923 -2.690437,0.34158 -3.735692,-0.2609 -0.856179,-0.49349 -1.736934,-1.58735 -2.030071,-2.52124 -0.320585,-1.02133 -0.320585,-1.51686 0,-2.53819 0.186282,-0.59347 0.424501,-1.00272 0.883312,-1.5175 0.794677,-0.891607 1.442609,-1.269127 2.515052,-1.465407 1.489969,-0.27269 2.80657,0.14665 3.909507,1.245187 0.671801,0.66913 0.967316,1.23138 1.174556,2.23474 0.174734,0.84598 0.03005,1.95164 -0.352059,2.69057 -0.212297,0.41055 -0.34214,0.24311 1.46512201,1.88935 l 0.442722,0.40328 3.29549299,0.089 3.295493,0.089 -1.61894,-1.66494 c -0.890418,-0.91571 -3.131176,-3.19293 -4.97946799,-5.06048 L -3.718335,97.767233 h -5.621994 -5.621994 l -0.281839,0.60174 c -0.276743,0.59086 -1.271704,1.765797 -1.495314,1.765797 -0.06258,0 -0.133625,0.0595 -0.157874,0.13227 -0.06574,0.19722 -1.710292,0.72861 -2.273735,0.73469 -0.714342,0.008 -1.923988,-0.35788 -2.520318,-0.76172 -1.095736,-0.742027 -1.836376,-1.989277 -1.999586,-3.367337 -0.174,-1.46916 1.020835,-3.4235 2.553045,-4.17591 0.631943,-0.31032 0.846614,-0.34948 1.89638,-0.34588 1.057641,0.004 1.260025,0.0429 1.899471,0.36831 0.393639,0.20033 0.934189,0.59101 1.201226,0.86818 0.478534,0.4967 1.135946,1.59907 1.135946,1.90479 0,0.12329 1.050864,0.15675 4.921983,0.15675 h 4.921984 l -2.83e-4,-6.69763 -2.87e-4,-6.69764 -0.738455,-0.36003 c -0.88917,-0.43352 -1.604666,-1.14489 -2.081806,-2.06981 -0.317062,-0.61461 -0.353024,-0.80751 -0.348465,-1.86911 0.0042,-1.02826 0.04806,-1.26686 0.332259,-1.81633 0.179948,-0.34791 0.664831,-0.94517 1.07752,-1.32725 2.681583,-2.482673 6.88921501,-0.80851 7.33040701,2.91668 0.05044,0.42587 -0.01031,0.82877 -0.222494,1.47605 -0.380165,1.15961 -1.38663201,2.30745 -2.41284601,2.75176 l -0.688368,0.29804 3.95e-4,6.60418 3.91e-4,6.60418 1.264819,1.30838 c 0.69565001,0.7196 3.458388,3.523267 6.13941,6.230357 2.681022,2.70709 4.998495,5.08374 5.149931,5.28145 l 0.275344,0.35948 v 13.11969 13.1197 l -0.322595,0.38338 c -0.256615,0.30497 -0.420009,0.38338 -0.798869,0.38338 -0.378866,0 -0.542259,-0.0784 -0.798874,-0.38338 z M 0.37495401,118.4633 C 1.502471,117.87286 2.128565,116.86778 2.128565,115.64822 c 0,-1.76461 -1.31455699,-3.05287 -3.11518299,-3.05287 -1.23886501,0 -1.91374501,0.40397 -2.69496301,1.61314 -0.305316,0.47257 -0.357913,0.67929 -0.357913,1.40679 0,1.55037 0.698612,2.49139 2.305233,3.1051 0.414733,0.15842 1.58911001,0.0153 2.10921501,-0.25708 z M -5.128062,106.36529 c 1.25524,-0.46964 1.893569,-1.43588 1.893569,-2.86627 0,-1.43039 -0.638329,-2.39662 -1.893569,-2.86626 -1.242218,-0.46478 -2.416604,-0.22217 -3.295225,0.68073 -1.275698,1.31095 -1.274926,3.06092 0.0019,4.37306 0.874853,0.89903 2.054632,1.14218 3.293284,0.67874 z m -12.805132,-6.956667 c 0.554767,-0.2777 1.00925,-0.73021 1.413151,-1.40702 0.211832,-0.35495 0.269048,-0.65008 0.269048,-1.38775 0,-0.85051 -0.03735,-0.99241 -0.404975,-1.53874 -0.595209,-0.88452 -1.31499,-1.38349 -2.145432,-1.48724 -1.581872,-0.19764 -2.710278,0.41951 -3.374138,1.84541 -0.390847,0.83948 -0.39202,1.56775 -0.0038,2.38409 0.608923,1.28055 1.735309,1.99288 3.000109,1.89727 0.411202,-0.0311 0.971936,-0.16879 1.246071,-0.30602 z m 15.245731,-18.64076 c 1.008129,-0.52133 1.76315201,-1.72694 1.76315201,-2.8154 0,-1.56806 -1.56167701,-3.11581 -3.14172101,-3.1137 -0.669742,8.9e-4 -1.718209,0.45212 -2.178484,0.93756 -0.694764,0.73274 -0.846153,1.13818 -0.845173,2.26349 9.42e-4,0.93081 0.03334,1.06571 0.372927,1.54573 0.476325,0.67334 1.173152,1.23352 1.701555,1.36788 0.610393,0.15522 1.861639,0.0555 2.327744,-0.18556 z m 22.158245,54.384587 -0.333339,-0.39614 V 96.786943 58.81727 l -0.659626,-0.323512 c -1.866253,-0.915297 -2.825365,-2.735863 -2.468536,-4.68573 0.19393,-1.059717 0.574068,-1.709859 1.463035,-2.50218 0.514774,-0.458812 0.924026,-0.697031 1.517501,-0.883315 0.989743,-0.310667 1.427926,-0.318064 2.4654,-0.04161 1.463568,0.389986 2.686104,1.612524 3.076094,3.076094 0.273983,1.028228 0.268638,1.364934 -0.03683,2.321189 -0.387743,1.213738 -1.324518,2.267122 -2.457775,2.763721 l -0.652063,0.285737 -0.0024,37.909769 -0.0024,37.909767 -0.342668,0.38011 c -0.213805,0.23717 -0.510196,0.40672 -0.788131,0.45086 -0.389688,0.0619 -0.48719,0.0211 -0.778792,-0.32541 z m 2.164435,-77.817938 c 0.691858,-0.34916 1.222833,-0.937794 1.489959,-1.651751 0.465626,-1.244496 0.228763,-2.385307 -0.681502,-3.282346 -1.314768,-1.295663 -3.054763,-1.295663 -4.369527,0 -1.664586,1.640396 -0.965258,4.390307 1.305236,5.132484 0.48549,0.158697 1.772567,0.04551 2.255834,-0.198387 z m 9.288685,77.805178 -0.322596,-0.38338 v -13.1197 -13.11969 l 0.27534,-0.35947 c 0.151441,-0.19771 2.468909,-2.57437 5.149936,-5.28146 2.681022,-2.70709 5.443755,-5.510747 6.13941,-6.230357 l 1.264819,-1.30838 3.91e-4,-6.60418 3.9e-4,-6.60418 -0.688368,-0.29804 c -1.026209,-0.44431 -2.032676,-1.59215 -2.412841,-2.75176 -0.212204,-0.64728 -0.272933,-1.05017 -0.222499,-1.47604 0.263891,-2.22815 1.921832,-3.86488 4.151951,-4.09885 1.062153,-0.11144 2.264054,0.33559 3.178458,1.18216 0.412688,0.38208 0.897573,0.97934 1.077521,1.32725 0.284199,0.54947 0.327846,0.78807 0.33226,1.81633 0.0046,1.06161 -0.0314,1.2545 -0.348466,1.86911 -0.477138,0.92492 -1.192638,1.6363 -2.081808,2.06981 l -0.738451,0.36003 -2.87e-4,6.69764 -2.87e-4,6.69764 h 4.921984 c 3.87112,0 4.921984,-0.0335 4.921984,-0.15676 0,-0.30572 0.657411,-1.40808 1.135947,-1.90478 0.267037,-0.27717 0.807588,-0.66786 1.201224,-0.86819 0.63945,-0.32543 0.841834,-0.36467 1.899475,-0.3683 1.049761,-0.004 1.264437,0.0356 1.896381,0.34587 1.532204,0.75241 2.727044,2.70676 2.553044,4.17591 -0.163209,1.37806 -0.903854,2.62531 -1.999591,3.367347 -0.596329,0.40383 -1.805976,0.76942 -2.520313,0.76171 -0.563442,-0.006 -2.207998,-0.53747 -2.273739,-0.73469 -0.02425,-0.0727 -0.09529,-0.13227 -0.15787,-0.13227 -0.22361,0 -1.218574,-1.174927 -1.495318,-1.765787 l -0.28184,-0.60174 H 49.858151 44.23616 l -3.360532,3.395537 c -1.848292,1.86755 -4.089055,4.14477 -4.979468,5.06049 l -1.618941,1.66493 3.295493,-0.089 3.295494,-0.089 0.442722,-0.40328 c 1.807262,-1.64624 1.677419,-1.4788 1.465117,-1.88935 -0.382115,-0.73893 -0.526788,-1.84459 -0.352054,-2.69057 0.207239,-1.00335 0.502755,-1.56561 1.174555,-2.23473 1.102938,-1.098547 2.419534,-1.517887 3.909505,-1.245187 1.072444,0.19628 1.720374,0.5738 2.515051,1.465397 0.458812,0.51478 0.69703,0.92403 0.883315,1.51751 0.320582,1.02133 0.320582,1.51685 0,2.53818 -0.293137,0.93389 -1.173895,2.02775 -2.030071,2.52124 -1.045257,0.60248 -2.443501,0.70013 -3.735691,0.2609 l -0.600422,-0.20409 -0.645648,0.55956 c -0.355106,0.30776 -0.924544,0.81217 -1.265408,1.12091 -0.367054,0.33247 -0.824334,0.61317 -1.121465,0.68843 -0.275938,0.0699 -1.847462,0.15889 -3.492277,0.19777 -1.644815,0.0389 -3.481215,0.10485 -4.080888,0.1466 l -1.090311,0.0759 v 5.15513 5.15513 h 1.217257 1.217257 l 1.204909,-1.21493 1.204904,-1.21492 -0.298836,-0.68534 c -0.406581,-0.93242 -0.422236,-2.30355 -0.03716,-3.25432 0.365612,-0.90271 1.552422,-2.08952 2.455137,-2.45513 1.04477,-0.42315 2.423838,-0.38343 3.434524,0.0989 0.945153,0.45108 1.838816,1.36754 2.25817,2.31576 0.416829,0.94253 0.417413,2.32102 0.0014,3.28524 -0.874448,2.02674 -3.294565,3.1811 -5.270646,2.51403 -0.426178,-0.14387 -0.846252,-0.26158 -0.933506,-0.26158 -0.08725,0 -0.81119,0.67288 -1.60875,1.49529 l -1.450107,1.49528 h -1.697275 -1.69727 v 6.1585 6.1585 l -0.322595,0.38338 c -0.256615,0.30497 -0.420009,0.38338 -0.798869,0.38338 -0.378861,0 -0.542255,-0.0784 -0.798869,-0.38338 z m 11.93935,-16.79959 c 1.136521,-0.59525 1.694058,-1.53331 1.694058,-2.85025 0,-0.7266 -0.05268,-0.93353 -0.357908,-1.40597 -0.781218,-1.20917 -1.456098,-1.61314 -2.694967,-1.61314 -1.805303,0 -3.115179,1.28778 -3.115179,3.06262 0,1.43227 0.796227,2.46219 2.367535,3.06241 0.413891,0.1581 1.588687,0.0155 2.106461,-0.25567 z m 4.976113,-12.04986 c 1.12339,-0.38278 2.06213,-1.71014 2.06213,-2.91582 0,-1.62937 -1.48753,-3.11518 -3.118778,-3.11518 -0.686783,0 -1.744052,0.43664 -2.186718,0.9031 -0.659447,0.69488 -0.843732,1.1783 -0.843276,2.21208 4.71e-4,1.43669 0.612748,2.37171 1.875419,2.86478 0.755551,0.29504 1.448183,0.31103 2.211223,0.051 z m 13.166094,-6.913037 c 0.747907,-0.33815 1.324598,-0.91236 1.691732,-1.68443 0.388185,-0.81634 0.387013,-1.54461 -0.0038,-2.3841 -0.66386,-1.42589 -1.792267,-2.04305 -3.374138,-1.84541 -0.830442,0.10376 -1.550223,0.60272 -2.145432,1.48725 -0.367626,0.54632 -0.404973,0.68822 -0.404973,1.53874 0,0.73766 0.05722,1.03279 0.269046,1.38774 0.527604,0.88409 1.086604,1.33048 2.098491,1.67576 0.431425,0.14721 1.345033,0.0614 1.869108,-0.17555 z M 46.230858,80.480023 c 0.80028,-0.56246 1.285257,-1.29296 1.384215,-2.085 0.200233,-1.6026 -0.508029,-2.8715 -1.90976,-3.42147 -1.235577,-0.48478 -2.38302,-0.2313 -3.307262,0.7306 -1.406836,1.46416 -1.218802,3.4644 0.444728,4.7309 0.818051,0.6228 2.533529,0.64557 3.388079,0.045 z"
         id="path3" /></g></g></svg>
