<?xml version="1.0" encoding="UTF-8" standalone="no"?>
<!-- Created with Inkscape (http://www.inkscape.org/) -->

<svg
   width="215.10623mm"
   height="291.57083mm"
   viewBox="0 0 215.10623 291.57083"
   version="1.1"
   id="svg1"
   xml:space="preserve"
   xmlns="http://www.w3.org/2000/svg"
   xmlns:svg="http://www.w3.org/2000/svg"><defs
     id="defs1"><linearGradient
       id="swatch28690"><stop
         style="stop-color:#0d2130;stop-opacity:1;"
         offset="0"
         id="stop28690" /></linearGradient></defs><g
     id="layer1"
     transform="translate(-261.80521,167.48125)"><g
       id="g2"
       transform="translate(523.05359,-139.89611)"><path
         style="fill:#1d2270"
         d="M -261.24838,118.20027 V -27.585142 h 107.55312 107.553124 V 118.20027 263.98569 H -153.69526 -261.24838 Z"
         id="path2"
         transform="translate(1.1041667e-5)" /><path
         style="fill:#fdfcfa"
         d="m -219.08081,212.60285 c -0.0788,-0.12758 -0.36144,-0.16275 -0.62799,-0.0782 -0.26655,0.0846 -0.56623,0.0218 -0.66595,-0.13957 -0.0997,-0.16136 -0.34406,-0.23093 -0.54296,-0.15461 -0.19891,0.0763 -0.43321,0.023 -0.52069,-0.11857 -0.0875,-0.14153 -0.26988,-0.18884 -0.40535,-0.10512 -0.13546,0.0837 -0.2463,0.0134 -0.2463,-0.15628 0,-0.16968 -0.17859,-0.23997 -0.39687,-0.15621 -0.21829,0.0838 -0.39688,0.0299 -0.39688,-0.1196 0,-0.14954 -0.11906,-0.19831 -0.26458,-0.10837 -0.14552,0.0899 -0.26459,0.0304 -0.26459,-0.13229 0,-0.1627 -0.11906,-0.22223 -0.26458,-0.1323 -0.14552,0.0899 -0.26458,0.0304 -0.26458,-0.13229 0,-0.16269 -0.11907,-0.22223 -0.26459,-0.13229 -0.14552,0.0899 -0.26458,0.0304 -0.26458,-0.13229 0,-0.1627 -0.10659,-0.22994 -0.23686,-0.14943 -0.13027,0.0805 -0.31167,-0.0486 -0.4031,-0.28683 -0.0914,-0.23828 -0.23775,-0.36172 -0.32516,-0.27432 -0.0874,0.0874 -0.39132,-0.10392 -0.67538,-0.42515 -0.28407,-0.32123 -0.43295,-0.40547 -0.33086,-0.18719 0.10209,0.21828 -0.19087,-0.0444 -0.65104,-0.58375 -0.46016,-0.53935 -1.21923,-1.29559 -1.68682,-1.68053 -0.46758,-0.38495 -0.67156,-0.6192 -0.45328,-0.52057 0.21902,0.099 0.15974,-0.0413 -0.13229,-0.31307 -0.29104,-0.27082 -0.56548,-0.66684 -0.60985,-0.88005 -0.0444,-0.21321 -0.25089,-0.51849 -0.45891,-0.6784 -0.20802,-0.15991 -0.3007,-0.36827 -0.20595,-0.46302 0.0948,-0.0948 0.0264,-0.17227 -0.15202,-0.17227 -0.17836,0 -0.25071,-0.11907 -0.16077,-0.26459 0.0899,-0.14552 0.0507,-0.26458 -0.0873,-0.26458 -0.13794,0 -0.24527,-0.14883 -0.23852,-0.33073 0.0329,-0.88684 -0.0943,-1.27367 -0.36401,-1.10696 -0.19712,0.12183 -0.23455,-0.003 -0.11446,-0.38126 0.10406,-0.32786 0.0635,-0.5623 -0.0973,-0.5623 -0.16512,0 -0.21642,-0.34509 -0.12784,-0.8599 0.0841,-0.4887 0.0527,-0.72794 -0.0728,-0.55421 -0.12314,0.17054 -0.22072,-0.95866 -0.22072,-2.55417 0,-1.64142 0.10214,-2.79683 0.23974,-2.71194 0.13689,0.0845 0.16698,-0.2159 0.0701,-0.70013 -0.11949,-0.59745 -0.0812,-0.7934 0.12958,-0.66313 0.20955,0.12951 0.24481,-0.0317 0.1177,-0.53818 -0.13332,-0.5312 -0.0965,-0.67058 0.13867,-0.52523 0.22015,0.13606 0.26738,0.0603 0.1512,-0.24242 -0.0931,-0.24247 -0.0411,-0.44027 0.11564,-0.44027 0.15652,0 0.21368,-0.18478 0.12701,-0.41062 -0.10294,-0.26828 -0.0513,-0.34495 0.14895,-0.22118 0.2047,0.12651 0.2504,0.0432 0.13757,-0.25084 -0.0964,-0.25132 -0.04,-0.44028 0.13142,-0.44028 0.16521,0 0.22285,-0.0775 0.1281,-0.17228 -0.0947,-0.0948 -0.002,-0.30311 0.20595,-0.46302 0.20802,-0.15991 0.41453,-0.46518 0.45891,-0.67839 0.0444,-0.21321 0.31881,-0.60923 0.60985,-0.88006 0.29104,-0.27082 0.35057,-0.4081 0.13229,-0.30507 -0.21828,0.10304 -8.9e-4,-0.15578 0.48308,-0.57515 0.48398,-0.41937 1.23815,-1.17921 1.67593,-1.68853 0.43778,-0.50932 0.71607,-0.74745 0.61843,-0.52917 -0.0976,0.21828 0.0683,0.0992 0.36872,-0.26458 0.30043,-0.3638 0.54889,-0.54941 0.55212,-0.41245 0.003,0.13695 0.19331,0.0179 0.42238,-0.26458 0.22908,-0.28248 0.33931,-0.335 0.24497,-0.11672 -0.11446,0.26482 -0.0463,0.24418 0.20497,-0.062 0.20708,-0.2524 0.45404,-0.38139 0.54879,-0.28664 0.0948,0.0948 0.17228,0.0264 0.17228,-0.15201 0,-0.17837 0.11906,-0.25072 0.26458,-0.16078 0.14552,0.0899 0.26458,0.0304 0.26458,-0.13229 0,-0.1627 0.11084,-0.22731 0.2463,-0.14359 0.13547,0.0837 0.32229,0.0293 0.41516,-0.12099 0.0929,-0.15027 0.27969,-0.20472 0.41516,-0.121 0.13546,0.0837 0.2463,0.0299 0.2463,-0.11967 0,-0.14954 0.17859,-0.20336 0.39688,-0.1196 0.21846,0.0838 0.39687,0.008 0.39687,-0.1689 0,-0.17666 0.17478,-0.25413 0.3884,-0.17215 0.21362,0.082 0.46177,0.0303 0.55144,-0.11475 0.0897,-0.14509 0.38111,-0.19457 0.64766,-0.10998 0.26655,0.0846 0.54805,0.0512 0.62557,-0.0742 0.0775,-0.12542 1.60558,-0.19298 3.3957,-0.15014 4.30476,0.10303 4.14789,0.0893 4.32618,0.37781 0.0857,0.13863 0.27183,0.18034 0.41367,0.0927 0.14184,-0.0877 0.43127,-0.0155 0.64318,0.16037 0.21191,0.17587 0.38528,0.23107 0.38528,0.12267 0,-0.1084 0.15979,-0.0645 0.35508,0.0976 0.19529,0.16208 0.43341,0.21634 0.52916,0.12059 0.0957,-0.0957 0.1741,-0.0282 0.1741,0.1502 0,0.17837 0.11906,0.25071 0.26458,0.16078 0.14552,-0.0899 0.26458,-0.0304 0.26458,0.13229 0,0.1627 0.11907,0.22223 0.26459,0.13229 0.14552,-0.0899 0.26458,-0.0176 0.26458,0.16078 0,0.17836 0.0775,0.24677 0.17228,0.15201 0.0948,-0.0947 0.3417,0.0342 0.54878,0.28664 0.24889,0.30335 0.31724,0.32437 0.20164,0.062 -0.0962,-0.21828 0.0839,-0.0992 0.40022,0.26458 0.31629,0.36381 0.48967,0.48287 0.38528,0.26459 -0.10439,-0.21828 0.33176,0.14697 0.96923,0.81167 0.63746,0.66471 0.9209,0.90283 0.62986,0.52917 l -0.52917,-0.67939 0.68351,0.60001 c 0.88806,0.77956 0.86195,1.20831 -0.12815,2.10472 -0.50045,0.45309 -0.66108,0.52731 -0.41893,0.19358 0.21601,-0.29771 -0.23283,0.11901 -0.99741,0.92604 l -1.39015,1.46732 -0.92495,-1.03627 c -0.50873,-0.56995 -0.92858,-0.92713 -0.933,-0.79375 -0.004,0.13339 -0.13081,0.0317 -0.28085,-0.22606 -0.15004,-0.25773 -0.38454,-0.39953 -0.52112,-0.31512 -0.13658,0.0844 -0.24832,0.0204 -0.24832,-0.14234 0,-0.1627 -0.11906,-0.22223 -0.26458,-0.13229 -0.14552,0.0899 -0.26459,0.0304 -0.26459,-0.13229 0,-0.1627 -0.11906,-0.22223 -0.26458,-0.1323 -0.14552,0.0899 -0.26458,0.0412 -0.26458,-0.10837 0,-0.14954 -0.1786,-0.20336 -0.39688,-0.1196 -0.21846,0.0838 -0.39687,0.008 -0.39687,-0.1689 0,-0.17666 -0.17478,-0.25413 -0.3884,-0.17215 -0.21363,0.082 -0.44481,0.0578 -0.51374,-0.0538 -0.16493,-0.26687 -4.95463,-0.22547 -5.38172,0.0465 -0.1819,0.11584 -0.44156,0.14212 -0.57703,0.0584 -0.13546,-0.0837 -0.32228,-0.0293 -0.41515,0.12099 -0.0929,0.15027 -0.2797,0.20471 -0.41516,0.12099 -0.13547,-0.0837 -0.2463,-0.0191 -0.2463,0.14359 0,0.1627 -0.11907,0.22223 -0.26459,0.13229 -0.14552,-0.0899 -0.26458,-0.0455 -0.26458,0.0988 0,0.25071 -1.15158,0.75312 -1.22694,0.53529 -0.02,-0.0577 -0.29694,0.19269 -0.61547,0.55649 -0.31854,0.3638 -0.49304,0.48286 -0.38779,0.26458 0.10524,-0.21828 -0.091,-0.0992 -0.43602,0.26459 -0.34506,0.3638 -0.80905,0.81911 -1.0311,1.0118 -0.3489,0.30278 -0.34982,0.32713 -0.007,0.1793 0.21828,-0.0941 0.0397,0.14829 -0.39687,0.53859 -0.43656,0.3903 -0.61516,0.6282 -0.39688,0.52868 0.25755,-0.11742 0.23577,-0.0488 -0.062,0.19556 -0.2524,0.20708 -0.38138,0.45404 -0.28663,0.54879 0.0948,0.0947 0.0371,0.17228 -0.1281,0.17228 -0.17146,0 -0.22787,0.18896 -0.13143,0.44027 0.10687,0.27849 0.0643,0.37558 -0.11592,0.26422 -0.18435,-0.11393 -0.23219,0.0254 -0.13558,0.39485 0.0957,0.36583 0.0482,0.50839 -0.13229,0.39687 -0.17734,-0.1096 -0.23032,0.022 -0.14311,0.3555 0.0762,0.29125 0.0353,0.52943 -0.0908,0.5293 -0.12611,-1.2e-4 -0.22929,1.13076 -0.22929,2.51307 0,1.38232 0.10318,2.51352 0.22929,2.51378 0.12611,2.6e-4 0.16698,0.23876 0.0908,0.53 -0.0872,0.3335 -0.0342,0.46511 0.14311,0.3555 0.18044,-0.11151 0.22796,0.0311 0.13229,0.39688 -0.0966,0.36946 -0.0488,0.50878 0.13558,0.39484 0.18019,-0.11136 0.22279,-0.0143 0.11592,0.26422 -0.0964,0.25132 -0.04,0.44028 0.13143,0.44028 0.16521,0 0.22285,0.0775 0.1281,0.17228 -0.0948,0.0947 0.0342,0.3417 0.28663,0.54878 0.2978,0.24433 0.31958,0.31299 0.062,0.19556 -0.21828,-0.0995 -0.0397,0.13839 0.39688,0.52869 0.43656,0.3903 0.61515,0.62094 0.39687,0.51253 -0.21828,-0.1084 0.0198,0.2389 0.52917,0.7718 0.98571,1.03132 1.19148,1.17508 0.9215,0.6438 -0.0924,-0.1819 0.0643,-0.0679 0.34841,0.25333 0.28407,0.32123 0.59079,0.50975 0.68162,0.41892 0.0908,-0.0908 0.16514,-0.0192 0.16514,0.15916 0,0.17836 0.10946,0.25664 0.24325,0.17396 0.13379,-0.0827 0.41727,0.0237 0.62996,0.23637 0.21269,0.21269 0.46041,0.313 0.5505,0.22291 0.0901,-0.0901 0.16379,-0.0179 0.16379,0.16051 0,0.17836 0.11083,0.2558 0.2463,0.17207 0.13546,-0.0837 0.3261,-0.0231 0.42364,0.13472 0.0975,0.15781 0.34007,0.22449 0.53897,0.14816 0.1989,-0.0763 0.4227,-0.04 0.49732,0.0808 0.16993,0.27496 4.92202,0.21665 5.37137,-0.0659 0.1819,-0.11438 0.44979,-0.13438 0.59531,-0.0444 0.14552,0.0899 0.26459,0.0412 0.26459,-0.10837 0,-0.14955 0.17859,-0.20337 0.39687,-0.1196 0.21828,0.0838 0.39688,0.0135 0.39688,-0.15621 0,-0.16968 0.11906,-0.23493 0.26458,-0.14499 0.14552,0.0899 0.26458,0.0304 0.26458,-0.13229 0,-0.1627 0.11907,-0.22223 0.26459,-0.13229 0.14552,0.0899 0.26458,0.0304 0.26458,-0.13229 0,-0.1627 0.10659,-0.22994 0.23686,-0.14943 0.13027,0.0805 0.30555,-0.0326 0.38951,-0.25142 0.084,-0.2188 0.24937,-0.36694 0.36759,-0.32921 0.11821,0.0377 0.60045,-0.34812 1.07164,-0.85744 l 0.85671,-0.92605 1.33108,1.45521 c 0.7321,0.80037 1.43388,1.45521 1.55951,1.45521 0.12563,0 0.32116,0.0927 0.43452,0.2061 0.45259,0.45259 0.26886,0.97422 -0.64067,1.81885 -0.52443,0.48701 -0.83963,0.70125 -0.70044,0.4761 0.13919,-0.22515 -0.0142,-0.10609 -0.34093,0.26458 -0.3267,0.37068 -0.59821,0.55489 -0.60336,0.40937 -0.005,-0.14552 -0.13212,-0.0537 -0.28216,0.204 -0.15004,0.25773 -0.38454,0.39953 -0.52112,0.31512 -0.13658,-0.0844 -0.24832,-0.0204 -0.24832,0.14234 0,0.1627 -0.11907,0.22223 -0.26459,0.13229 -0.14552,-0.0899 -0.26458,-0.0304 -0.26458,0.13229 0,0.1627 -0.11906,0.22223 -0.26458,0.13229 -0.14552,-0.0899 -0.26459,-0.0304 -0.26459,0.1323 0,0.16269 -0.10889,0.22851 -0.24198,0.14625 -0.13309,-0.0823 -0.28192,-0.0332 -0.33073,0.10903 -0.0488,0.14222 -0.3864,0.31271 -0.7502,0.37886 -0.36381,0.0662 -0.72099,0.14287 -0.79375,0.17046 -0.0728,0.0276 -0.25136,0.0779 -0.39688,0.11166 -0.14552,0.0338 -0.32411,0.0948 -0.39687,0.13554 -0.62779,0.35148 -7.63566,0.54545 -7.83868,0.21697 z m 11.57659,-7.81721 c 0.32911,-0.41965 0.31975,-0.429 -0.0999,-0.0999 -0.25466,0.19972 -0.46302,0.40808 -0.46302,0.46302 0,0.21777 0.21727,0.0776 0.56291,-0.36312 z m -19.16759,-7.78867 c -0.0845,-0.21107 -0.14716,-0.14838 -0.15985,0.15985 -0.0115,0.27891 0.051,0.43518 0.13896,0.34726 0.0879,-0.0879 0.0973,-0.31612 0.0209,-0.50711 z m 35.92208,15.58408 c -0.21354,-0.1195 -0.49815,-0.14936 -0.63247,-0.0663 -0.13431,0.083 -0.32019,0.028 -0.41306,-0.12229 -0.0929,-0.15027 -0.293,-0.19649 -0.44474,-0.10271 -0.15173,0.0938 -0.36258,0.0302 -0.46854,-0.14123 -0.10597,-0.17145 -0.44984,-0.33111 -0.76417,-0.35479 -0.31433,-0.0237 -0.57151,-0.1438 -0.57151,-0.26694 0,-0.12314 -0.11906,-0.15031 -0.26458,-0.0604 -0.14552,0.0899 -0.26458,0.0304 -0.26458,-0.13229 0,-0.1627 -0.10659,-0.22994 -0.23686,-0.14943 -0.13027,0.0805 -0.31167,-0.0486 -0.40311,-0.28684 -0.0914,-0.23827 -0.22383,-0.37563 -0.29422,-0.30524 -0.12834,0.12834 -2.99209,-2.61862 -2.99681,-2.87459 -0.001,-0.0749 -0.2188,-0.31284 -0.48316,-0.52866 -0.26435,-0.21582 -0.33317,-0.31786 -0.15294,-0.22675 0.21539,0.10888 0.2739,0.0255 0.17072,-0.24344 -0.0863,-0.225 -0.26221,-0.34407 -0.39082,-0.26458 -0.1286,0.0795 -0.15542,-0.0598 -0.0596,-0.30951 0.11741,-0.30597 0.0743,-0.39225 -0.13229,-0.26458 -0.20026,0.12376 -0.2519,0.0471 -0.14895,-0.22118 0.0867,-0.22584 0.0295,-0.41062 -0.12702,-0.41062 -0.15652,0 -0.21605,-0.17859 -0.13229,-0.39688 0.0838,-0.21828 0.0182,-0.39687 -0.14564,-0.39687 -0.19015,0 -0.23429,-0.25357 -0.12201,-0.70092 0.0985,-0.39243 0.0716,-0.63638 -0.0611,-0.55427 -0.13317,0.0824 -0.23703,-0.93241 -0.23703,-2.31609 0,-1.38148 0.10397,-2.39867 0.2368,-2.31682 0.13024,0.0803 0.17731,-0.16528 0.1046,-0.54564 -0.0727,-0.38035 -0.0195,-0.72913 0.11831,-0.77505 0.13778,-0.0459 0.2693,-0.40718 0.29227,-0.8028 0.023,-0.39561 0.1381,-0.71937 0.25582,-0.71947 0.11773,-1.1e-4 0.14047,-0.11925 0.0505,-0.26477 -0.0899,-0.14552 -0.0176,-0.26459 0.16078,-0.26459 0.17836,0 0.24677,-0.0775 0.15202,-0.17227 -0.0948,-0.0948 0.0342,-0.34171 0.28663,-0.54879 0.30335,-0.24888 0.32438,-0.31723 0.062,-0.20164 -0.21828,0.0962 -0.0992,-0.0839 0.26459,-0.40021 0.3638,-0.3163 0.48286,-0.49661 0.26458,-0.4007 -0.21828,0.0959 -0.0554,-0.11781 0.362,-0.47494 0.41738,-0.35712 1.05107,-0.99081 1.4082,-1.4082 0.35713,-0.41738 0.57085,-0.58028 0.47494,-0.362 -0.0959,0.21828 0.0844,0.0992 0.40069,-0.26458 0.3163,-0.3638 0.4964,-0.48286 0.40022,-0.26458 -0.1156,0.26234 -0.0472,0.24131 0.20164,-0.062 0.20708,-0.2524 0.45403,-0.38138 0.54878,-0.28663 0.0948,0.0948 0.17228,0.0263 0.17228,-0.15202 0,-0.17836 0.11906,-0.25071 0.26458,-0.16077 0.14552,0.0899 0.26459,0.0412 0.26459,-0.10837 0,-0.14955 0.17859,-0.20337 0.39687,-0.1196 0.21828,0.0838 0.39688,0.0135 0.39688,-0.15621 0,-0.16968 0.11083,-0.24001 0.2463,-0.15629 0.13546,0.0837 0.32228,0.0293 0.41515,-0.12099 0.0929,-0.15027 0.2797,-0.20472 0.41516,-0.12099 0.13547,0.0837 0.39513,0.0568 0.57703,-0.0598 0.45461,-0.29147 5.47102,-0.32869 5.64827,-0.0419 0.0786,0.12725 0.25904,0.15964 0.40088,0.072 0.14184,-0.0877 0.43126,-0.0155 0.64317,0.16037 0.21191,0.17587 0.38529,0.23107 0.38529,0.12267 0,-0.1084 0.15978,-0.0645 0.35507,0.0976 0.19529,0.16208 0.43341,0.21634 0.52917,0.12059 0.0957,-0.0958 0.17409,-0.0282 0.17409,0.1502 0,0.17837 0.11906,0.25071 0.26458,0.16078 0.14552,-0.0899 0.26459,-0.0304 0.26459,0.13229 0,0.1627 0.11906,0.22223 0.26458,0.13229 0.14552,-0.0899 0.26458,-0.0374 0.26458,0.11668 0,0.15411 0.11066,0.25043 0.24591,0.21405 0.13525,-0.0364 0.44174,0.17198 0.68108,0.46302 0.23934,0.29104 0.34961,0.35057 0.24504,0.13229 -0.10457,-0.21828 0.35768,0.12887 1.02724,0.77144 0.66955,0.64257 1.16369,1.25517 1.09807,1.36133 -0.0656,0.10617 0.0756,0.26784 0.31393,0.35928 0.23827,0.0914 0.36657,0.23289 0.28511,0.31435 -0.0815,0.0815 0.0893,0.38553 0.37946,0.67569 0.29017,0.29017 0.46258,0.69697 0.38313,0.904 -0.0794,0.20702 -0.0328,0.37641 0.10353,0.37641 0.13639,0 0.17195,0.19813 0.079,0.44028 -0.12222,0.31851 -0.0727,0.38077 0.17918,0.22512 0.26941,-0.1665 0.3071,-0.0516 0.16665,0.50793 -0.12479,0.49723 -0.0902,0.66671 0.11058,0.54259 0.20485,-0.12661 0.23658,0.11522 0.10628,0.80983 -0.13344,0.71129 -0.10092,0.93788 0.11541,0.80418 0.21344,-0.13191 0.30121,0.31575 0.30121,1.53629 v 1.72244 l -9.18251,0.0192 c -9.13499,0.0191 -9.5833,0.0603 -9.59886,0.88224 -0.002,0.11773 0.13525,0.12796 0.3055,0.0227 0.20813,-0.12864 0.25419,-0.0471 0.14059,0.24897 -0.0964,0.25132 -0.04,0.44028 0.13143,0.44028 0.1652,0 0.22285,0.0775 0.1281,0.17227 -0.0948,0.0948 0.0342,0.34171 0.28663,0.54879 0.276,0.22644 0.30072,0.29651 0.062,0.17579 -0.21828,-0.1104 0.0198,0.21088 0.52917,0.71395 0.50932,0.50306 1.01618,0.87467 1.12635,0.82579 0.11017,-0.0489 0.27147,0.0966 0.35845,0.32324 0.087,0.22667 0.26473,0.34625 0.39501,0.26574 0.13027,-0.0805 0.23686,-0.0203 0.23686,0.13381 0,0.15411 0.0893,0.2661 0.19843,0.24887 0.10914,-0.0172 0.28774,-0.002 0.39688,0.0331 0.10914,0.0354 0.3175,0.0942 0.46302,0.13055 0.14552,0.0364 0.29435,0.0948 0.33073,0.12979 0.18478,0.1778 4.73741,0.15013 4.8484,-0.0295 0.0712,-0.11523 0.29222,-0.14706 0.49112,-0.0707 0.1989,0.0763 0.44144,0.01 0.53898,-0.14816 0.0975,-0.15781 0.28817,-0.21844 0.42364,-0.13471 0.13546,0.0837 0.2463,0.006 0.2463,-0.17208 0,-0.17836 0.0775,-0.24677 0.17227,-0.15202 0.0948,0.0948 0.34171,-0.0342 0.54879,-0.28663 0.23957,-0.292 0.30857,-0.31456 0.18972,-0.062 -0.10274,0.21828 0.17707,-0.0198 0.62181,-0.52917 0.79684,-0.91257 0.81563,-0.91855 1.29165,-0.41136 0.44588,0.47508 0.44656,0.48713 0.009,0.15673 -0.37241,-0.28109 -0.54283,-0.28881 -0.79375,-0.036 -0.25006,0.25198 -0.23265,0.28894 0.0801,0.17002 0.24745,-0.0941 0.90231,0.31387 1.71979,1.07135 0.72611,0.6728 1.08207,1.07645 0.79102,0.897 -0.30772,-0.18974 -0.23365,-0.0487 0.17701,0.33706 l 0.70617,0.66334 -0.94434,0.89103 c -0.51939,0.49006 -0.8566,0.71243 -0.74936,0.49415 0.10724,-0.21829 -0.0638,-0.0992 -0.3801,0.26458 -0.3163,0.3638 -0.49639,0.48286 -0.40021,0.26458 0.11559,-0.26234 0.0472,-0.24131 -0.20164,0.062 -0.20708,0.2524 -0.45404,0.38138 -0.54879,0.28663 -0.0948,-0.0948 -0.17228,-0.0263 -0.17228,0.15202 0,0.17836 -0.11906,0.25071 -0.26458,0.16077 -0.14552,-0.0899 -0.26458,-0.0247 -0.26458,0.14499 0,0.16967 -0.1786,0.23997 -0.39688,0.15621 -0.21828,-0.0838 -0.39687,-0.0299 -0.39687,0.11959 0,0.14955 -0.11084,0.2034 -0.2463,0.11968 -0.13547,-0.0837 -0.32611,-0.0231 -0.42364,0.13471 -0.0975,0.15782 -0.35463,0.2189 -0.57133,0.13575 -0.21669,-0.0832 -0.53207,-0.0615 -0.70084,0.0481 -0.41653,0.27053 -5.65473,0.26291 -6.14049,-0.009 z m 9.14093,-14.09488 c 0,-0.23423 -0.12659,-0.33425 -0.29293,-0.23145 -0.19712,0.12183 -0.23456,-0.003 -0.11446,-0.38126 0.10987,-0.34617 0.0639,-0.5623 -0.11956,-0.5623 -0.16392,0 -0.22445,-0.11906 -0.13451,-0.26458 0.0899,-0.14552 0.0374,-0.26459 -0.11668,-0.26459 -0.1541,0 -0.25543,-0.0893 -0.22516,-0.19843 0.075,-0.27038 -2.12345,-2.40746 -2.29751,-2.2334 -0.0763,0.0763 -0.13877,-0.007 -0.13877,-0.18552 0,-0.17836 -0.1089,-0.25699 -0.24199,-0.17474 -0.13309,0.0823 -0.28839,0.0103 -0.34512,-0.15985 -0.12277,-0.36831 -4.64311,-0.53654 -4.86286,-0.18098 -0.0786,0.12713 -0.24546,0.16772 -0.37087,0.0902 -0.12541,-0.0775 -0.304,-0.018 -0.39687,0.1323 -0.0929,0.15026 -0.26722,0.21242 -0.38743,0.13812 -0.12022,-0.0743 -0.28975,0.0504 -0.37673,0.27704 -0.087,0.22667 -0.24828,0.37213 -0.35845,0.32325 -0.11017,-0.0489 -0.61703,0.32272 -1.12635,0.82579 -0.50932,0.50306 -0.74745,0.82434 -0.52917,0.71394 0.23869,-0.12072 0.21397,-0.0506 -0.062,0.17579 -0.2524,0.20708 -0.38138,0.45404 -0.28663,0.54879 0.0948,0.0948 0.0371,0.17228 -0.1281,0.17228 -0.17146,0 -0.22787,0.18896 -0.13143,0.44027 0.12347,0.32175 0.0735,0.3813 -0.18556,0.22118 -0.2624,-0.16217 -0.30845,-0.0991 -0.17725,0.24282 0.0975,0.25406 0.17725,0.57125 0.17725,0.70487 0,0.14105 2.77404,0.24294 6.61459,0.24294 5.81452,0 6.61458,-0.0499 6.61458,-0.41249 z m -1.32292,-2.85379 c 0,-0.0502 -0.26789,-0.3181 -0.59531,-0.59532 l -0.59531,-0.50403 0.50403,0.59532 c 0.47366,0.55944 0.68659,0.71576 0.68659,0.50403 z m 48.23986,16.94921 c -0.0766,-0.12389 -0.30577,-0.16134 -0.50933,-0.0832 -0.20356,0.0781 -0.37011,0.014 -0.37011,-0.14256 0,-0.15652 -0.17859,-0.21606 -0.39688,-0.13229 -0.21828,0.0838 -0.39687,0.0299 -0.39687,-0.1196 0,-0.14954 -0.10659,-0.20602 -0.23686,-0.12551 -0.13027,0.0805 -0.30555,-0.0326 -0.38951,-0.25142 -0.084,-0.2188 -0.24527,-0.36694 -0.35846,-0.32921 -0.22071,0.0736 -1.50678,-1.12272 -1.56179,-1.45276 -0.0182,-0.10914 -0.048,-0.32452 -0.0661,-0.47863 -0.0182,-0.15411 -0.15077,-0.20746 -0.29463,-0.11855 -0.15536,0.096 -0.19081,-0.0227 -0.0873,-0.29237 0.12838,-0.33455 0.0809,-0.39637 -0.18028,-0.23493 -0.25907,0.16012 -0.30902,0.10057 -0.18556,-0.22118 0.0929,-0.24215 0.0514,-0.44027 -0.0924,-0.44027 -0.15055,0 -0.18675,-0.29712 -0.0854,-0.70093 0.0985,-0.39246 0.0716,-0.63631 -0.0611,-0.5541 -0.13809,0.0855 -0.20256,-2.65424 -0.15446,-6.56369 l 0.0826,-6.71052 -2.06695,-0.0776 -2.06694,-0.0776 v -2.11667 -2.11666 l 2.05052,-0.0773 2.05052,-0.0773 v -2.63471 -2.6347 h 2.77813 2.77812 v 2.64583 2.64584 h 3.175 3.175 v 2.24895 2.24896 h -3.175 -3.175 v 6.06378 c 0,3.33508 -0.0798,6.27164 -0.17725,6.5257 -0.1312,0.34189 -0.0851,0.40499 0.17725,0.24281 0.26122,-0.16144 0.30866,-0.0996 0.18029,0.23493 -0.0958,0.24971 -0.0745,0.39237 0.0474,0.31701 0.12192,-0.0753 0.37663,0.15253 0.56601,0.5064 0.18939,0.35387 0.44546,0.5809 0.56905,0.50452 0.12358,-0.0764 0.2247,-0.041 0.2247,0.0786 0,0.19382 2.63714,0.26186 3.30729,0.0853 0.14552,-0.0383 0.3572,-0.0545 0.47039,-0.0359 0.11319,0.0186 0.27475,-0.14591 0.35903,-0.36554 0.0843,-0.21964 0.26659,-0.39933 0.40513,-0.39933 0.13854,0 0.17831,0.11906 0.0884,0.26458 -0.0899,0.14552 -0.0247,0.26458 0.14498,0.26458 0.17012,0 0.23783,0.1842 0.15094,0.41062 -0.0903,0.23546 -0.046,0.34166 0.10399,0.24897 0.23858,-0.14746 0.36368,0.27446 0.3331,1.1235 -0.006,0.18034 0.11405,0.2501 0.26787,0.15504 0.1743,-0.10773 0.21601,-0.007 0.11072,0.26743 -0.0929,0.24215 -0.0544,0.44028 0.0857,0.44028 0.14004,0 0.20931,0.26789 0.15393,0.59531 -0.0554,0.32742 -0.23322,0.56555 -0.39521,0.52917 -0.16199,-0.0364 -0.29453,0.0599 -0.29453,0.21405 0,0.15411 -0.11906,0.20661 -0.26458,0.11667 -0.14553,-0.0899 -0.26459,-0.0374 -0.26459,0.11668 0,0.15411 -0.0893,0.2661 -0.19844,0.24887 -0.10914,-0.0172 -0.28773,-0.002 -0.39687,0.0331 -0.10914,0.0354 -0.3175,0.0942 -0.46302,0.13055 -0.14552,0.0364 -0.35388,0.0988 -0.46302,0.13877 -0.51383,0.18805 -4.88489,0.11658 -5.00754,-0.0819 z m 38.644769,0.0252 c -0.07582,-0.12269 -0.253909,-0.15134 -0.39575,-0.0637 -0.14184,0.0877 -0.431269,0.0155 -0.643176,-0.16037 -0.211906,-0.17587 -0.385285,-0.23107 -0.385285,-0.12267 0,0.10839 -0.159783,0.0645 -0.355073,-0.0976 -0.19529,-0.16208 -0.433415,-0.21634 -0.529166,-0.12059 -0.09575,0.0958 -0.174094,0.0282 -0.174094,-0.1502 0,-0.17837 -0.119062,-0.25072 -0.264583,-0.16078 -0.145521,0.0899 -0.264584,0.0304 -0.264584,-0.13229 0,-0.1627 -0.119062,-0.22223 -0.264583,-0.13229 -0.145521,0.0899 -0.264583,0.0176 -0.264583,-0.16078 0,-0.17836 -0.07752,-0.24677 -0.172277,-0.15202 -0.09475,0.0948 -0.341705,-0.0342 -0.548785,-0.28663 -0.23957,-0.292 -0.30857,-0.31456 -0.18972,-0.062 0.10274,0.21828 -0.19927,-0.0198 -0.67112,-0.52917 -0.47186,-0.50932 -0.7111,-0.71768 -0.53165,-0.46302 0.51439,0.73 0.16904,0.54159 -0.68122,-0.37165 -0.42741,-0.45907 -0.59851,-0.74712 -0.38023,-0.64011 0.21828,0.10701 0.0628,-0.11271 -0.34548,-0.48825 -0.4083,-0.37554 -0.65343,-0.6828 -0.54474,-0.6828 0.10868,0 -0.0335,-0.18742 -0.31598,-0.4165 -0.28247,-0.22907 -0.36613,-0.34195 -0.18589,-0.25084 0.21538,0.10888 0.27389,0.0255 0.17071,-0.24344 -0.0863,-0.225 -0.26221,-0.34407 -0.39081,-0.26458 -0.12861,0.0795 -0.15543,-0.0598 -0.0596,-0.30951 0.11742,-0.30597 0.0743,-0.39225 -0.13229,-0.26458 -0.20026,0.12376 -0.25189,0.0471 -0.14895,-0.22118 0.0867,-0.22584 0.0295,-0.41062 -0.12701,-0.41062 -0.15653,0 -0.21606,-0.17859 -0.1323,-0.39688 0.0838,-0.21828 0.0182,-0.39687 -0.14563,-0.39687 -0.19015,0 -0.23429,-0.25357 -0.12201,-0.70092 0.0985,-0.39243 0.0716,-0.63638 -0.0611,-0.55427 -0.13317,0.0824 -0.23702,-0.93241 -0.23702,-2.31609 0,-1.38148 0.10396,-2.39867 0.2368,-2.31682 0.13024,0.0803 0.17651,-0.16944 0.10283,-0.55487 -0.0737,-0.38543 -0.0187,-0.70078 0.12224,-0.70078 0.14091,0 0.18767,-0.17859 0.1039,-0.39688 -0.0838,-0.21828 -0.0242,-0.39687 0.1323,-0.39687 0.15652,0 0.21368,-0.18478 0.12701,-0.41062 -0.10031,-0.26141 -0.05,-0.34417 0.13831,-0.22775 0.17827,0.11017 0.24671,0.0368 0.17219,-0.1847 -0.068,-0.20215 0.029,-0.48662 0.21572,-0.63214 0.18667,-0.14552 0.37572,-0.43567 0.42009,-0.64478 0.0444,-0.20911 0.37835,-0.6652 0.74215,-1.01354 0.3638,-0.34833 0.48286,-0.54578 0.26458,-0.43877 -0.21828,0.10701 -0.0472,-0.18104 0.38023,-0.64011 0.85026,-0.91324 1.19561,-1.10166 0.68122,-0.37165 -0.17945,0.25466 0.0598,0.0463 0.53165,-0.46302 0.47185,-0.50933 0.77386,-0.74745 0.67112,-0.52917 -0.11885,0.25253 -0.0498,0.22997 0.18972,-0.062 0.20708,-0.2524 0.454034,-0.38139 0.548785,-0.28664 0.09475,0.0948 0.172277,0.0264 0.172277,-0.15201 0,-0.17837 0.119062,-0.25072 0.264583,-0.16078 0.145521,0.0899 0.264583,0.0304 0.264583,-0.13229 0,-0.1627 0.119063,-0.22223 0.264584,-0.13229 0.145521,0.0899 0.264583,0.0176 0.264583,-0.16078 0,-0.17836 0.07834,-0.24595 0.174094,-0.1502 0.09575,0.0958 0.333876,0.0415 0.529166,-0.12059 0.19529,-0.16208 0.355073,-0.206 0.355073,-0.0976 0,0.1084 0.166062,0.0593 0.369025,-0.10918 0.202964,-0.16844 0.470855,-0.28798 0.595313,-0.26564 0.124458,0.0223 0.285819,0.0106 0.358579,-0.026 0.352258,-0.17743 5.862815,-0.14215 5.974313,0.0383 0.07043,0.11395 0.290788,0.14474 0.489689,0.0684 0.198902,-0.0763 0.437027,-0.0168 0.529167,0.13229 0.09214,0.14908 0.342308,0.20399 0.555929,0.12202 0.213621,-0.082 0.388402,-0.0102 0.388402,0.15946 0,0.16968 0.119062,0.23492 0.264583,0.14498 0.145521,-0.0899 0.264584,-0.0412 0.264584,0.10838 0,0.14954 0.169388,0.20689 0.376417,0.12745 0.20703,-0.0794 0.623749,0.10288 0.926042,0.40518 0.302293,0.30229 0.552271,0.46032 0.555507,0.35118 0.0032,-0.10914 0.251693,0.0992 0.552127,0.46302 0.300433,0.36381 0.469353,0.51263 0.375376,0.33073 -0.297087,-0.57504 -0.01906,-0.36597 1.194338,0.89812 0.648762,0.67586 1.000974,1.14178 0.782693,1.03537 -0.218282,-0.10641 -0.09922,0.0523 0.264583,0.35277 0.363802,0.30044 0.572161,0.54889 0.463021,0.55213 -0.109141,0.003 0.04889,0.25321 0.351186,0.55551 0.302293,0.30229 0.484624,0.71901 0.405179,0.92604 -0.07945,0.20703 -0.01638,0.37642 0.140142,0.37642 0.156523,0 0.213681,0.18477 0.127018,0.41061 -0.101391,0.26422 -0.05056,0.34449 0.142572,0.22512 0.210713,-0.13022 0.246067,0.0299 0.118656,0.5376 -0.121123,0.48259 -0.08788,0.66524 0.09995,0.54916 0.191015,-0.11806 0.230057,0.19358 0.121525,0.97001 -0.11857,0.84825 -0.08703,1.04137 0.122,0.74708 0.212256,-0.29882 0.281903,-0.005 0.281903,1.19062 0,1.16085 -0.07242,1.48084 -0.269445,1.19063 -0.193013,-0.2843 -0.22467,-0.0706 -0.111598,0.7535 0.115572,0.84229 0.07494,1.09914 -0.151725,0.95906 -0.21683,-0.13401 -0.256106,-0.0229 -0.131104,0.37097 0.103579,0.32635 0.06345,0.5623 -0.09564,0.5623 -0.15076,0 -0.205576,0.1786 -0.121813,0.39688 0.08376,0.21828 0.02423,0.39687 -0.132292,0.39687 -0.156523,0 -0.219587,0.16939 -0.140142,0.37642 0.07944,0.20703 -0.102886,0.62375 -0.405179,0.92604 -0.302293,0.3023 -0.460327,0.55227 -0.351186,0.55551 0.10914,0.003 -0.09922,0.25169 -0.463021,0.55213 -0.363802,0.30043 -0.482865,0.45918 -0.264583,0.35277 0.218281,-0.10641 -0.133931,0.35951 -0.782693,1.03537 -1.213398,1.26409 -1.491425,1.47316 -1.194338,0.89812 0.09398,-0.1819 -0.07494,-0.0331 -0.375376,0.33073 -0.300434,0.3638 -0.548891,0.57216 -0.552127,0.46302 -0.0032,-0.10914 -0.253214,0.0489 -0.555507,0.35118 -0.302293,0.3023 -0.719012,0.48463 -0.926042,0.40518 -0.207029,-0.0794 -0.376417,-0.0221 -0.376417,0.12745 0,0.14954 -0.119063,0.19831 -0.264584,0.10837 -0.145521,-0.0899 -0.264583,-0.0247 -0.264583,0.14499 0,0.16968 -0.174781,0.24143 -0.388402,0.15946 -0.213621,-0.082 -0.463789,-0.0271 -0.555929,0.12202 -0.09214,0.14909 -0.322438,0.21162 -0.511773,0.13897 -0.189335,-0.0727 -0.425314,-0.051 -0.524398,0.0481 -0.263024,0.2631 -5.692996,0.26103 -5.855704,-0.002 z m 5.058081,-4.69891 c 0,-0.029 0.297656,-0.10567 0.661458,-0.17033 0.363802,-0.0647 0.792294,-0.29209 0.952203,-0.50539 0.15991,-0.21331 0.346642,-0.33193 0.41496,-0.26361 0.06832,0.0683 0.526387,-0.29072 1.017929,-0.79786 0.491542,-0.50715 0.810826,-0.92208 0.709519,-0.92208 -0.101307,0 0.06002,-0.24422 0.358507,-0.5427 0.367378,-0.36738 0.486433,-0.71998 0.368529,-1.09147 -0.121417,-0.38255 -0.08034,-0.49077 0.135632,-0.35729 0.2263,0.13986 0.264262,-0.083 0.140841,-0.82677 -0.125287,-0.75502 -0.0965,-0.91564 0.111365,-0.62135 0.212922,0.30144 0.280329,0.0788 0.280329,-0.92605 0,-0.9833 -0.0694,-1.22103 -0.270348,-0.92604 -0.193923,0.28468 -0.219823,0.10558 -0.09162,-0.63356 0.136652,-0.78784 0.101145,-0.98248 -0.150821,-0.82676 -0.23928,0.14788 -0.281842,0.0534 -0.155379,-0.34509 0.117904,-0.37149 -0.0012,-0.72409 -0.368529,-1.09147 -0.298486,-0.29849 -0.459814,-0.5427 -0.358507,-0.5427 0.101307,0 -0.215215,-0.41209 -0.703382,-0.91575 -0.488167,-0.50366 -0.975297,-0.86153 -1.082511,-0.79527 -0.107215,0.0663 -0.267947,-0.0698 -0.357182,-0.30233 -0.0925,-0.24106 -0.331885,-0.35771 -0.556891,-0.27136 -0.217055,0.0833 -0.394645,0.0291 -0.394645,-0.12046 0,-0.14954 -0.110835,-0.20339 -0.246301,-0.11967 -0.135465,0.0837 -0.308037,0.0523 -0.383492,-0.0698 -0.11732,-0.18983 -4.019791,-0.23687 -4.39729,-0.053 -0.07276,0.0354 -0.221588,0.0503 -0.330729,0.0331 -0.109141,-0.0172 -0.198438,0.0948 -0.198438,0.24886 0,0.15411 -0.119062,0.20662 -0.264583,0.11668 -0.145521,-0.0899 -0.264583,-0.0176 -0.264583,0.16078 0,0.17836 -0.07752,0.24677 -0.172277,0.15201 -0.09475,-0.0948 -0.341706,0.0342 -0.548787,0.28664 -0.234217,0.28547 -0.303634,0.30891 -0.183678,0.062 0.106059,-0.21828 -0.182768,-0.0472 -0.641837,0.38023 -0.885016,0.82398 -1.045907,1.08126 -0.503942,0.80585 0.181901,-0.0924 0.0679,0.0643 -0.253332,0.34842 -0.321234,0.28406 -0.509749,0.59079 -0.418924,0.68161 0.09083,0.0908 0.02997,0.16514 -0.135239,0.16514 -0.17146,0 -0.227866,0.18896 -0.131426,0.44028 0.106864,0.27848 0.06427,0.37558 -0.115921,0.26422 -0.181222,-0.11201 -0.234487,0.0166 -0.146395,0.35347 0.07616,0.29124 0.03529,0.52953 -0.09082,0.52953 -0.126113,0 -0.229296,0.89297 -0.229296,1.98437 0,1.09141 0.103183,1.98438 0.229296,1.98438 0.126113,0 0.166982,0.23829 0.09082,0.52953 -0.08809,0.33687 -0.03483,0.46547 0.146395,0.35347 0.180186,-0.11136 0.222785,-0.0143 0.115921,0.26422 -0.09644,0.25132 -0.04003,0.44028 0.131426,0.44028 0.165207,0 0.226065,0.0743 0.135239,0.16514 -0.09082,0.0908 0.09769,0.39755 0.418924,0.68161 0.321234,0.28407 0.405467,0.42947 0.187186,0.32311 -0.218281,-0.10635 -0.04718,0.18223 0.38023,0.6413 0.824183,0.88524 1.080746,1.04557 0.806389,0.50394 -0.09214,-0.1819 -0.0094,-0.15213 0.18378,0.0661 0.193219,0.21828 0.528343,0.43619 0.744721,0.48423 0.216378,0.0481 0.482014,0.22665 0.590304,0.39688 0.108289,0.17023 0.198713,0.19641 0.200941,0.0582 0.0024,-0.14672 0.116617,-0.13879 0.274455,0.019 0.213238,0.21324 4.359805,0.32114 4.359805,0.11345 z m -80.03646,-7.0249 v -11.77395 h 2.64584 2.64583 l 0.0108,1.52135 0.0108,1.52135 0.78299,-0.91604 c 0.43065,-0.50383 0.783,-0.80849 0.783,-0.67704 0,0.13146 0.18742,0.008 0.4165,-0.27457 0.22907,-0.28248 0.32766,-0.335 0.2191,-0.11672 -0.14619,0.29392 -0.0599,0.27661 0.33258,-0.0667 0.29148,-0.25498 0.60961,-0.38397 0.70694,-0.28664 0.0973,0.0973 0.17696,0.031 0.17696,-0.14732 0,-0.17837 0.11084,-0.2558 0.2463,-0.17208 0.13547,0.0837 0.32229,0.0293 0.41516,-0.12099 0.0929,-0.15027 0.27969,-0.20472 0.41516,-0.12099 0.13546,0.0837 0.39513,0.0568 0.57703,-0.0598 0.43961,-0.28185 5.46812,-0.33339 5.63845,-0.0578 0.0733,0.11852 0.30796,0.14842 0.52158,0.0665 0.21363,-0.082 0.38841,-0.021 0.38841,0.13554 0,0.15652 0.17859,0.21605 0.39687,0.13229 0.21828,-0.0838 0.39688,-0.0135 0.39688,0.15621 0,0.16968 0.11906,0.23492 0.26458,0.14498 0.14552,-0.0899 0.26458,-0.0304 0.26458,0.1323 0,0.16269 0.11175,0.22675 0.24832,0.14234 0.13658,-0.0844 0.37109,0.0574 0.52113,0.31511 0.15004,0.25772 0.27642,0.36493 0.28084,0.23825 0.004,-0.12669 0.51369,0.29003 1.13171,0.92604 0.61801,0.63601 1.09426,1.24568 1.05833,1.35482 -0.0359,0.10914 0.0608,0.19844 0.21487,0.19844 0.15411,0 0.20661,0.11906 0.11668,0.26458 -0.0899,0.14552 -0.0304,0.26458 0.13229,0.26458 0.1627,0 0.22223,0.11907 0.13229,0.26459 -0.0899,0.14552 -0.0412,0.26458 0.10837,0.26458 0.14955,0 0.19587,0.19812 0.10295,0.44028 -0.12013,0.31304 -0.0713,0.37993 0.16894,0.23145 0.25037,-0.15474 0.29166,-0.0632 0.15942,0.35347 -0.11306,0.35625 -0.0642,0.5623 0.1334,0.5623 0.21447,0 0.25829,0.30981 0.1403,0.99219 -0.1238,0.71599 -0.0963,0.88171 0.0988,0.59531 0.18696,-0.27445 0.2716,2.03129 0.2744,7.47448 l 0.004,7.87135 h -2.77813 -2.77812 v -7.29165 c 0,-5.41246 -0.0781,-7.24337 -0.30318,-7.10429 -0.21336,0.13186 -0.25105,-0.0203 -0.12725,-0.51355 0.10135,-0.4038 0.0652,-0.70092 -0.0854,-0.70092 -0.14372,0 -0.19776,-0.16562 -0.12009,-0.36804 0.15973,-0.41625 -1.41737,-2.3482 -1.74939,-2.143 -0.11843,0.0732 -0.25743,0.007 -0.30888,-0.14756 -0.0514,-0.15435 -0.32951,-0.32457 -0.61791,-0.37828 -0.2884,-0.0537 -0.52436,-0.11941 -0.52436,-0.14603 0,-0.16919 -3.88236,-0.13188 -3.98755,0.0383 -0.0717,0.11608 -0.30522,0.14399 -0.51884,0.062 -0.2162,-0.083 -0.3884,3.6e-4 -0.3884,0.18794 0,0.18534 -0.0775,0.25946 -0.17228,0.16471 -0.0948,-0.0948 -0.34171,0.0342 -0.54879,0.28663 -0.25086,0.30576 -0.31908,0.32646 -0.20444,0.062 0.0946,-0.21828 -0.082,-0.10734 -0.39247,0.24654 -0.3105,0.35388 -0.76605,0.80919 -1.01235,1.01181 -0.31502,0.25915 -0.33012,0.31753 -0.0509,0.19685 0.26482,-0.11445 0.24417,-0.0462 -0.062,0.20498 -0.2524,0.20708 -0.38138,0.45404 -0.28663,0.54879 0.0947,0.0948 0.0371,0.17228 -0.1281,0.17228 -0.17146,0 -0.22787,0.18896 -0.13143,0.44027 0.11618,0.30276 0.069,0.37848 -0.1512,0.24242 -0.23518,-0.14535 -0.27198,-0.006 -0.13866,0.52523 0.10224,0.40738 0.078,0.659 -0.0555,0.57631 -0.13818,-0.0856 -0.20132,2.7668 -0.15141,6.8397 l 0.0856,6.98648 h -2.7976 -2.79761 z m 48.94792,0 v -11.77395 h 2.66841 2.66841 l -0.0887,1.73582 -0.0887,1.73581 1.0947,-1.1405 c 0.60208,-0.62728 1.25692,-1.1792 1.4552,-1.2265 0.19829,-0.0473 0.40046,-0.19686 0.44926,-0.33238 0.0488,-0.13551 0.19764,-0.17908 0.33073,-0.0968 0.1331,0.0823 0.24199,0.0164 0.24199,-0.14626 0,-0.16269 0.11083,-0.22731 0.2463,-0.14359 0.13547,0.0837 0.3164,0.0388 0.40208,-0.0998 0.0857,-0.13863 0.3618,-0.25377 0.6136,-0.25587 0.2518,-0.002 1.20195,-0.0667 2.11146,-0.14352 l 1.65364,-0.13971 v 2.58209 2.58209 l -1.78594,-0.0348 c -0.98226,-0.0191 -1.93476,0.0812 -2.11666,0.22282 -0.1819,0.14168 -0.33255,0.15372 -0.33478,0.0268 -0.002,-0.12696 -0.0926,-0.0915 -0.20094,0.0787 -0.10829,0.17024 -0.36402,0.34883 -0.56829,0.39688 -0.20427,0.048 -0.67939,0.39075 -1.05583,0.76156 l -0.68443,0.67421 0.52916,-0.67421 0.52917,-0.6742 -0.7159,0.63043 c -0.39374,0.34674 -0.70706,0.70393 -0.69627,0.79375 0.0622,0.51772 -0.077,0.83503 -0.30459,0.69436 -0.15536,-0.096 -0.19082,0.0227 -0.0873,0.29237 0.11741,0.30597 0.0743,0.39225 -0.13229,0.26458 -0.20026,-0.12377 -0.2519,-0.0471 -0.14895,0.22118 0.0867,0.22584 0.0423,0.41062 -0.0986,0.41062 -0.14091,0 -0.19592,0.31535 -0.12224,0.70078 0.0737,0.38543 0.0274,0.63478 -0.10283,0.55411 -0.13776,-0.0853 -0.20381,2.66488 -0.15793,6.57526 l 0.0789,6.72193 h -2.79085 -2.79085 z m -75.42628,8.40053 -0.64143,-0.72761 0.72761,0.64143 c 0.68005,0.59952 0.84893,0.81378 0.64143,0.81378 -0.0474,0 -0.37482,-0.32742 -0.72761,-0.7276 z m 81.3794,-18.05782 c 0.26339,-0.29104 0.53842,-0.52916 0.61118,-0.52916 0.0728,0 -0.0832,0.23812 -0.34659,0.52916 -0.26339,0.29104 -0.53842,0.52917 -0.61118,0.52917 -0.0728,0 0.0832,-0.23813 0.34659,-0.52917 z m -53.42231,-26.47863 -0.68498,-0.81405 v -30.20978 -30.20979 l -9.14546,-9.126684 c -5.03,-5.019678 -9.31625,-9.448196 -9.525,-9.841152 -0.32257,-0.607224 -0.37954,-4.798702 -0.37954,-27.92457 V 29.410509 l -1.40061,-0.686926 c -3.96269,-1.943485 -5.99921,-5.809164 -5.24154,-9.949394 0.41178,-2.250139 1.21894,-3.63061 3.10652,-5.312977 1.09304,-0.974213 1.96202,-1.480032 3.22217,-1.875577 2.10156,-0.659651 3.03197,-0.675356 5.23488,-0.08836 3.10765,0.828073 5.70351,3.423935 6.53159,6.53159 0.58176,2.183277 0.57041,2.898219 -0.0782,4.928672 -0.82331,2.577178 -2.8124,4.813869 -5.21869,5.868318 l -1.38455,0.606716 -0.005,26.718131 -0.005,26.718132 9.525,9.538197 9.525,9.538189 v 30.99369 30.99369 l -0.68498,0.81405 c -0.54487,0.64755 -0.89181,0.81405 -1.69627,0.81405 -0.80445,0 -1.15139,-0.1665 -1.69627,-0.81405 z M -183.97809,26.262762 c 1.46904,-0.741386 2.59648,-1.991255 3.16368,-3.507229 0.98868,-2.642486 0.48574,-5.064816 -1.44706,-6.969534 -2.7917,-2.751132 -6.4863,-2.751132 -9.27799,0 -3.53448,3.483119 -2.04957,9.322112 2.77146,10.898006 1.03086,0.336966 3.76376,0.09662 4.78991,-0.421243 z m 39.83135,138.219298 -0.68498,-0.81405 v -30.99369 -30.99368 l 9.525,-9.538198 9.525,-9.538196 -0.005,-26.718132 -0.005,-26.718132 -1.38455,-0.606715 c -2.40629,-1.05445 -4.39537,-3.291141 -5.21868,-5.868319 -0.64865,-2.030453 -0.66,-2.745394 -0.0782,-4.928672 0.82807,-3.107654 3.42393,-5.703517 6.53159,-6.531589 2.20291,-0.586992 3.13332,-0.571286 5.23488,0.08836 1.26015,0.395545 2.12913,0.901363 3.22217,1.875577 1.88757,1.682366 2.69474,3.062838 3.10652,5.312977 0.75766,4.14023 -1.27885,8.005909 -5.24154,9.949394 l -1.40062,0.686926 v 27.210105 c 0,23.125868 -0.057,27.317346 -0.37953,27.924569 -0.20875,0.392956 -4.495,4.821475 -9.525,9.841152 l -9.14547,9.126693 v 30.20978 30.20979 l -0.68498,0.81405 c -0.54488,0.64755 -0.89181,0.81405 -1.69627,0.81405 -0.80445,0 -1.15139,-0.1665 -1.69627,-0.81405 z M -120.4781,25.998179 c 1.46905,-0.741387 2.59649,-1.991255 3.16369,-3.50723 0.98868,-2.642485 0.48574,-5.064815 -1.44706,-6.969533 -2.7917,-2.751132 -6.4863,-2.751132 -9.27799,0 -3.53448,3.483119 -2.04957,9.322112 2.77146,10.898006 1.03086,0.336966 3.76376,0.09662 4.7899,-0.421243 z"
         id="path4" /><path
         style="fill:#d3af36"
         d="m -123.46394,245.86288 c -1.51668,-0.38404 -3.64069,-1.32985 -3.64069,-1.62118 0,-0.0847 0.32243,-0.72766 0.71651,-1.42872 l 0.71652,-1.27465 1.06942,0.6107 c 1.43187,0.81768 3.58382,1.28693 5.25635,1.14618 2.59925,-0.21873 3.86603,-1.34466 4.08576,-3.63148 0.071,-0.73844 0.0693,-1.34262 -0.004,-1.34262 -0.0729,0 -0.71317,0.32742 -1.42272,0.7276 -1.12836,0.63638 -1.57206,0.72728 -3.53906,0.72502 -2.57777,-0.003 -4.04193,-0.53446 -5.51133,-2.00064 -1.56219,-1.55877 -2.01696,-2.74382 -2.02349,-5.27282 -0.007,-2.56412 0.41962,-3.71507 1.93818,-5.23363 2.48517,-2.48517 7.30624,-2.8863 9.89612,-0.8234 l 0.99219,0.7903 v -0.93851 -0.93851 h 1.72707 1.72706 l -0.0331,7.2099 c -0.0224,4.87266 -0.14182,7.62396 -0.36847,8.48722 -0.51983,1.97985 -1.6305,3.3695 -3.39988,4.25384 -1.31939,0.65943 -1.90216,0.78083 -4.10104,0.8543 -1.64233,0.0549 -3.10868,-0.0525 -4.08179,-0.2989 z m 5.69437,-9.22898 c 4.48666,-1.91971 3.00845,-8.63154 -1.90101,-8.63154 -3.10717,0 -5.33207,2.81856 -4.54174,5.75361 0.68912,2.5592 3.86847,3.97939 6.44275,2.87793 z m -103.65902,3.71468 c -2.0343,-0.67813 -3.31463,-1.51548 -4.22245,-2.76153 -1.11818,-1.53479 -1.57495,-3.31031 -1.40292,-5.45338 0.35112,-4.37422 3.83482,-7.28446 8.32905,-6.95796 4.14379,0.30104 6.73517,2.92003 7.13596,7.21201 l 0.15875,1.70005 h -6.10991 -6.10991 l 0.27293,0.78295 c 0.43927,1.26008 2.11309,2.58938 3.52758,2.80149 1.6644,0.2496 3.25538,-0.0411 4.4188,-0.8075 l 0.9708,-0.63947 0.9558,1.05797 0.95581,1.05796 -0.77847,0.65505 c -0.42816,0.36027 -1.23561,0.84658 -1.79432,1.08068 -1.36061,0.5701 -4.94866,0.72465 -6.3075,0.27168 z m 6.34602,-9.23737 c -1.10226,-3.8167 -6.68409,-4.17804 -8.20778,-0.53134 -0.21296,0.50968 -0.3872,0.97168 -0.3872,1.02667 0,0.055 1.97255,0.1 4.38345,0.1 h 4.38346 z m 11.64564,9.35838 c -3.40148,-0.89818 -5.65037,-3.53692 -5.88993,-6.91098 -0.1481,-2.08581 0.19744,-3.47262 1.26792,-5.08874 2.12651,-3.21045 7.29015,-4.35827 10.86163,-2.41443 1.22463,0.66653 2.37171,1.83003 2.35098,2.38463 -0.005,0.12306 -0.55793,0.55751 -1.22963,0.96545 l -1.22126,0.74171 -0.82089,-0.79163 c -2.59427,-2.50176 -6.45199,-1.46819 -7.45983,1.99866 -0.649,2.23246 -0.0686,4.24784 1.58697,5.5106 1.73166,1.3208 4.05421,1.20398 5.70446,-0.28693 l 1.0178,-0.91952 1.21537,0.73411 c 0.66846,0.40376 1.21537,0.86968 1.21537,1.03537 0,0.52595 -1.67586,1.99826 -2.91041,2.55693 -1.28983,0.58367 -4.33216,0.84294 -5.68855,0.48477 z m 35.7961,-0.12254 c -2.51541,-0.70875 -4.58961,-2.80516 -5.2727,-5.32917 -0.44395,-1.64039 -0.1526,-4.28467 0.6453,-5.85658 1.21623,-2.39609 3.38204,-3.72655 6.4905,-3.98715 4.92739,-0.4131 8.77439,2.90126 8.77497,7.56001 2.7e-4,2.19362 -0.37765,3.39331 -1.563,4.96164 -1.86211,2.46376 -5.73002,3.59376 -9.07507,2.65125 z m 4.20491,-2.83732 c 1.64675,-0.62393 2.65486,-2.10147 2.81031,-4.11893 0.12724,-1.65138 -0.18841,-2.77967 -1.07111,-3.8287 -1.59897,-1.90027 -4.57558,-2.09521 -6.37732,-0.41764 -1.0222,0.95174 -1.43007,2.02205 -1.43007,3.75269 0,1.73019 0.40728,2.79936 1.4302,3.75442 1.16879,1.09125 3.08636,1.44606 4.63799,0.85816 z m 22.15056,2.72671 c -1.85195,-0.66417 -3.29528,-1.87781 -4.22132,-3.54952 -0.70181,-1.26692 -0.78025,-1.64791 -0.78025,-3.78977 0,-2.14187 0.0784,-2.52285 0.78025,-3.78977 1.47785,-2.66786 3.61308,-3.84282 7.02496,-3.86566 2.6472,-0.0177 3.79262,0.3325 5.49388,1.6798 1.91614,1.51746 2.57591,3.04801 2.57591,5.97563 0,2.01148 -0.10162,2.58021 -0.65445,3.66254 -1.28537,2.51648 -3.56235,3.86083 -6.85383,4.04655 -1.51185,0.0853 -2.35428,-0.007 -3.36515,-0.3698 z m 4.74272,-2.8054 c 3.28083,-1.37081 3.69212,-6.46906 0.70055,-8.68366 -2.03261,-1.5047 -5.29006,-0.63994 -6.5314,1.73389 -0.56284,1.07631 -0.57152,3.74041 -0.0156,4.79713 1.14946,2.18509 3.60499,3.0892 5.84649,2.15264 z m 42.643213,3.03855 c -2.197251,-0.58019 -4.190797,-2.14083 -5.233842,-4.09728 -0.476419,-0.89363 -0.583524,-1.52989 -0.584985,-3.47516 -0.0021,-2.7973 0.380772,-3.78059 2.16801,-5.56783 2.061982,-2.06198 5.946505,-2.80643 8.892474,-1.7042 1.367693,0.51172 3.366383,2.15419 3.348939,2.75206 -0.0046,0.15765 -0.557932,0.6204 -1.229626,1.02834 l -1.221263,0.74171 -0.820895,-0.79163 c -2.303134,-2.22101 -5.753977,-1.66811 -7.241846,1.1603 -0.560829,1.06612 -0.547122,3.72091 0.02486,4.81497 1.372972,2.62615 4.841593,3.24095 7.046489,1.24896 l 1.015701,-0.91762 1.209108,0.73413 c 0.665009,0.40378 1.212871,0.86884 1.217471,1.03348 0.01447,0.51795 -1.661803,1.99375 -2.902054,2.555 -1.289823,0.58367 -4.332156,0.84294 -5.688541,0.48477 z m 16.21693,-0.12121 c -6.90265,-1.95227 -7.455867,-11.73844 -0.828286,-14.65205 0.702555,-0.30886 1.749385,-0.44797 3.396773,-0.45139 2.873755,-0.006 4.303831,0.54105 6.01122,2.29931 3.6856,3.79542 2.299575,10.47838 -2.597549,12.52453 -1.364418,0.57009 -4.445856,0.71411 -5.982158,0.2796 z m 4.375276,-2.91734 c 4.232712,-1.76854 3.312886,-8.84589 -1.216023,-9.35636 -3.082339,-0.34742 -5.342632,2.00923 -5.071624,5.28784 0.279678,3.38351 3.280268,5.32508 6.287647,4.06852 z M -238.7588,232.1034 v -8.33438 h -3.30729 -3.30729 v -1.5875 -1.5875 h 8.46666 8.46667 v 1.5875 1.5875 h -3.30729 -3.30729 v 8.33438 8.33437 h -1.85209 -1.85208 z m 47.31267,7.73906 c -0.0465,-0.32742 -0.051,-3.7207 -0.01,-7.54062 l 0.0746,-6.94532 h 1.57906 c 1.57813,0 1.57907,4.7e-4 1.57907,0.79375 0,0.95924 0.0703,0.96861 1.14213,0.15219 2.31353,-1.76229 7.13957,-1.46508 8.96363,0.55202 0.24666,0.27276 0.69053,1.02957 0.98638,1.6818 0.48331,1.06552 0.53849,1.72959 0.54371,6.54368 l 0.006,5.35781 h -1.71979 -1.71979 l -0.0149,-4.69635 c -0.009,-2.91084 -0.135,-5.04494 -0.33073,-5.61324 -0.93278,-2.70821 -5.35538,-2.82438 -6.95421,-0.18266 -0.43823,0.72407 -0.51691,1.47625 -0.5925,5.66361 l -0.0872,4.82864 h -1.68037 c -1.54118,0 -1.68738,-0.0493 -1.76493,-0.59531 z m 38.1,0 c -0.0465,-0.32742 -0.052,-5.08992 -0.0122,-10.58333 l 0.0723,-9.98802 h 1.71361 1.71362 v 10.58333 10.58333 h -1.70139 c -1.56296,0 -1.70827,-0.0484 -1.78594,-0.59531 z m 46.56667,0 c -0.0465,-0.32742 -0.051,-3.7207 -0.01,-7.54062 l 0.0746,-6.94532 h 1.71136 1.71136 v 7.54063 7.54062 h -1.70139 c -1.56297,0 -1.70827,-0.0484 -1.78594,-0.59531 z m -31.94995,-18.59961 1.99701,-1.997 1.96961,0.0788 1.96961,0.0788 -2.38125,1.90707 c -2.3502,1.88222 -2.40191,1.90723 -3.96661,1.91823 l -1.58537,0.0112 z m 32.11796,0.81841 c -1.36844,-1.36844 -0.37966,-3.5839 1.59952,-3.5839 1.18772,0 2.25272,0.96895 2.24055,2.03849 -0.0217,1.91011 -2.48432,2.90116 -3.84007,1.54541 z m -74.57696,-56.7861 -0.68497,-0.81405 v -13.07658 -13.07657 h -3.60389 -3.60389 l -3.07907,-3.175 c -1.69348,-1.74625 -3.23065,-3.175 -3.41591,-3.175 -0.18527,0 -1.07724,0.24993 -1.98215,0.5554 -1.9779,0.66769 -3.57263,0.59185 -5.94753,-0.28284 -2.07434,-0.76399 -4.33096,-2.93946 -5.24384,-5.05528 -0.88336,-2.04738 -0.88211,-4.97436 0.003,-6.97567 0.89043,-2.01342 2.78797,-3.95937 4.79486,-4.91716 2.14602,-1.02421 5.07425,-1.10856 7.29265,-0.21007 1.91677,0.77632 4.43677,3.29632 5.21309,5.21309 0.81765,2.0188 0.7844,4.93017 -0.0789,6.91003 l -0.63454,1.45521 2.55843,2.57968 2.55842,2.57969 h 2.58465 2.58466 v -10.94608 -10.94608 l -2.31511,-0.16119 c -1.27331,-0.0887 -5.1726,-0.22873 -8.6651,-0.31128 -3.4925,-0.0825 -6.82938,-0.27152 -7.41529,-0.41992 -0.63091,-0.1598 -1.60188,-0.75585 -2.38125,-1.46177 -0.72378,-0.65558 -1.93288,-1.72661 -2.68689,-2.38009 l -1.37093,-1.18814 -1.2749,0.43336 c -2.74376,0.93264 -5.71271,0.72529 -7.93214,-0.55398 -1.81796,-1.04785 -3.6881,-3.37048 -4.31053,-5.35345 -0.68071,-2.168632 -0.68071,-3.220794 0,-5.389426 0.39554,-1.260153 0.90136,-2.129131 1.87557,-3.222174 1.68737,-1.893185 3.06315,-2.694786 5.34031,-3.111553 3.16371,-0.579024 5.9593,0.311378 8.30121,2.643959 1.42646,1.420775 2.05394,2.614638 2.49398,4.745106 0.37102,1.796292 0.0638,4.143988 -0.74754,5.712988 -0.45078,0.87173 -0.72648,0.5162 3.11095,4.01174 l 0.94005,0.85629 6.99745,0.18889 6.99745,0.18888 -3.43756,-3.53523 c -1.89066,-1.94437 -6.64855,-6.779678 -10.5731,-10.74512 l -7.13555,-7.209896 h -11.9374 -11.9374 l -0.59844,1.277699 c -0.58762,1.254596 -2.70026,3.749384 -3.17506,3.749384 -0.13288,0 -0.28373,0.126379 -0.33522,0.280842 -0.13959,0.418771 -3.63153,1.547096 -4.82791,1.560007 -1.51679,0.01637 -4.08528,-0.75991 -5.35149,-1.617386 -2.32662,-1.575591 -3.89925,-4.223928 -4.2458,-7.150012 -0.36946,-3.119514 2.16758,-7.269258 5.42098,-8.866875 1.34183,-0.658921 1.79765,-0.742058 4.02666,-0.734409 2.24573,0.0077 2.67546,0.09103 4.03322,0.782032 0.83583,0.425373 1.9836,1.254929 2.55061,1.843457 1.01609,1.05466 2.412,3.395352 2.412,4.04451 0,0.261773 2.23134,0.332834 10.45104,0.332834 h 10.45104 l -6e-4,-14.221354 -6.1e-4,-14.221354 -1.56799,-0.76447 c -1.88801,-0.920497 -3.40725,-2.430988 -4.42038,-4.394905 -0.67323,-1.30503 -0.74959,-1.714607 -0.73991,-3.96875 0.009,-2.183345 0.10205,-2.689987 0.7055,-3.856692 0.38209,-0.738732 1.41166,-2.006922 2.28794,-2.818201 5.69391,-5.271554 14.62814,-1.716729 15.56494,6.193109 0.1071,0.904266 -0.0219,1.759748 -0.47243,3.134144 -0.80722,2.462247 -2.94429,4.899501 -5.12329,5.842928 l -1.46164,0.632837 8.4e-4,14.022917 8.3e-4,14.022916 2.68564,2.778125 c 1.4771,1.527969 7.34333,7.481094 13.03605,13.229167 5.69272,5.748076 10.6135,10.794516 10.93505,11.214326 l 0.58465,0.76329 v 27.85756 27.85756 l -0.68498,0.81405 c -0.54488,0.64755 -0.89182,0.81405 -1.69627,0.81405 -0.80446,0 -1.1514,-0.1665 -1.69628,-0.81405 z m -16.18244,-35.67421 c 2.3941,-1.25372 3.72351,-3.38783 3.72351,-5.97737 0,-3.74687 -2.79125,-6.48229 -6.61459,-6.48229 -2.63053,0 -4.06353,0.85776 -5.72232,3.42524 -0.64829,1.00343 -0.75997,1.44237 -0.75997,2.9871 0,3.29197 1.48339,5.29006 4.89479,6.59318 0.88062,0.33638 3.37422,0.0325 4.47858,-0.54586 z m -11.68477,-25.68818 c 2.6653,-0.99722 4.02069,-3.04886 4.02069,-6.086063 0,-3.037204 -1.35539,-5.088842 -4.02069,-6.086059 -2.63765,-0.986869 -5.13127,-0.471731 -6.99688,1.445431 -2.70874,2.783589 -2.7071,6.499359 0.004,9.285481 1.85761,1.90895 4.36268,2.42524 6.99276,1.44121 z m -27.18964,-14.771379 c 1.17796,-0.589659 2.14298,-1.55049 3.0006,-2.98758 0.44979,-0.753692 0.57128,-1.380349 0.57128,-2.946661 0,-1.805923 -0.0793,-2.107238 -0.8599,-3.267262 -1.26383,-1.878145 -2.79217,-2.937621 -4.55548,-3.157931 -3.35885,-0.419661 -5.75484,0.890774 -7.16444,3.918428 -0.8299,1.782518 -0.83239,3.328883 -0.008,5.06225 1.29295,2.719042 3.68465,4.231551 6.37025,4.028538 0.87312,-0.066 2.06375,-0.358404 2.64583,-0.649782 z m 32.37186,-39.580662 c 2.1406,-1.10695 3.74377,-3.666881 3.74377,-5.978046 0,-3.329517 -3.31597,-6.61592 -6.67094,-6.611451 -1.42209,0.0019 -3.64834,0.960017 -4.62566,1.990769 -1.47522,1.555864 -1.79667,2.41674 -1.79459,4.806156 0.002,1.976429 0.0708,2.262863 0.79185,3.282106 1.0114,1.429725 2.491,2.619176 3.61298,2.904484 1.29607,0.329574 3.95289,0.117774 4.94259,-0.394018 z m 47.04947,115.476941 -0.70779,-0.84115 V 83.574674 2.9521759 L -158.93233,2.26525 c -3.96269,-1.94348522 -5.99921,-5.8091642 -5.24154,-9.9493942 0.41178,-2.2501389 1.21894,-3.6306108 3.10652,-5.3129768 1.09304,-0.974213 1.96202,-1.480032 3.22217,-1.875577 2.10156,-0.659651 3.03197,-0.675357 5.23488,-0.08836 3.10765,0.828073 5.70351,3.423935 6.53159,6.5315894 0.58176,2.1832775 0.57041,2.898219 -0.0782,4.9286722 -0.82331,2.57717777 -2.8124,4.8138688 -5.21869,5.8683185 l -1.38455,0.6067156 -0.005,80.4953043 -0.005,80.495308 -0.7276,0.80711 c -0.45398,0.50359 -1.08332,0.86359 -1.67347,0.95732 -0.82744,0.1314 -1.03447,0.0449 -1.65364,-0.69095 z m 4.59583,-165.23389088 c 1.46905,-0.74138657 2.59649,-1.99125482 3.16369,-3.50722962 0.98868,-2.6424856 0.48574,-5.0648152 -1.44706,-6.9695335 -2.7917,-2.751132 -6.4863,-2.751132 -9.27799,0 -3.53448,3.4831187 -2.04957,9.3221119 2.77146,10.8980057 1.03086,0.33696623 3.76376,0.0966245 4.7899,-0.42124258 z m 19.72303,165.20679088 -0.68498,-0.81405 V 136.33896 108.4814 l 0.58464,-0.76328 c 0.32156,-0.41981 5.24233,-5.46626 10.93506,-11.21433 5.69272,-5.748073 11.55894,-11.701198 13.03605,-13.229166 l 2.68564,-2.778125 8.3e-4,-14.022917 8.3e-4,-14.022916 -1.46164,-0.632837 c -2.17899,-0.943427 -4.31606,-3.380682 -5.12328,-5.842928 -0.45058,-1.374396 -0.57953,-2.229878 -0.47244,-3.134144 0.56033,-4.731099 4.0807,-8.206443 8.816,-8.703245 2.25531,-0.236614 4.807355,0.712567 6.748944,2.510136 0.876277,0.811278 1.905852,2.079469 2.287943,2.818201 0.60345,1.166704 0.696129,1.673347 0.7055,3.856692 0.0097,2.254142 -0.06668,2.66372 -0.73991,3.96875 -1.013127,1.963916 -2.532376,3.474408 -4.420385,4.394905 l -1.567982,0.76447 -6.1e-4,14.221354 -6.1e-4,14.221354 h 10.451043 c 8.2197,0 10.451042,-0.07106 10.451042,-0.332835 0,-0.649158 1.395905,-2.98985 2.412001,-4.044509 0.56701,-0.588529 1.714783,-1.418085 2.550608,-1.843458 1.357764,-0.691001 1.787495,-0.774324 4.033224,-0.782031 2.229003,-0.0076 2.68483,0.07549 4.02666,0.734409 3.253393,1.597617 5.79044,5.747361 5.42098,8.866874 -0.346551,2.926085 -1.919182,5.574421 -4.245806,7.150013 -1.266207,0.857476 -3.834701,1.633755 -5.351483,1.617386 -1.196381,-0.01291 -4.688327,-1.141237 -4.827917,-1.560007 -0.05149,-0.154463 -0.202334,-0.280842 -0.335213,-0.280842 -0.474799,0 -2.587445,-2.494789 -3.175066,-3.749384 l -0.598442,-1.2777 h -11.937398 -11.937393 l -7.13555,7.209896 c -3.92455,3.965443 -8.68245,8.800744 -10.5731,10.745124 l -3.43756,3.53523 6.99745,-0.18889 6.99745,-0.18888 0.94005,-0.8563 c 3.83743,-3.49553 3.56173,-3.14 3.11094,-4.01173 -0.81136,-1.569 -1.11855,-3.916699 -0.74753,-5.712991 0.44004,-2.130468 1.06752,-3.324331 2.49398,-4.745106 2.34191,-2.332581 5.13749,-3.222984 8.301204,-2.64396 2.277163,0.416767 3.652938,1.218369 5.340306,3.111554 0.974214,1.093043 1.480032,1.962021 1.875578,3.222174 0.680705,2.168632 0.680705,3.220794 0,5.389429 -0.622429,1.98297 -2.492576,4.30559 -4.310529,5.35345 -2.219436,1.27926 -5.188381,1.48661 -7.932139,0.55398 l -1.2749,-0.43336 -1.37093,1.18814 c -0.75401,0.65347 -1.96312,1.72451 -2.68689,2.38008 -0.77938,0.70593 -1.75034,1.30197 -2.38125,1.46177 -0.58591,0.14841 -3.92279,0.33737 -7.41529,0.41993 -3.4925,0.0826 -7.3918,0.22263 -8.66511,0.31128 l -2.3151,0.16118 v 10.94609 10.94608 h 2.58465 2.58465 l 2.55843,-2.57969 2.55842,-2.57969 -0.63453,-1.45521 c -0.86331,-1.97986 -0.89655,-4.89123 -0.0789,-6.91003 0.77632,-1.91677 3.29632,-4.43676 5.21309,-5.21308 2.2184,-0.89849 5.14663,-0.81414 7.29266,0.21006 2.00688,0.9578 3.90443,2.90375 4.79486,4.91716 0.88507,2.00131 0.88631,4.9283 0.003,6.97568 -1.85675,4.30344 -6.99548,6.75454 -11.19137,5.33812 -0.90492,-0.30547 -1.79688,-0.55541 -1.98215,-0.55541 -0.18527,0 -1.72243,1.42875 -3.41592,3.175 l -3.07907,3.175 h -3.60389 -3.60388 v 13.07658 13.07657 l -0.68498,0.81405 c -0.54488,0.64756 -0.89182,0.81405 -1.69627,0.81405 -0.80445,0 -1.15139,-0.16649 -1.69627,-0.81405 z m 25.35129,-35.67123 c 2.41322,-1.26391 3.59706,-3.25573 3.59706,-6.05204 0,-1.54281 -0.11185,-1.98221 -0.75996,-2.98536 -1.65879,-2.56747 -3.09179,-3.42523 -5.72233,-3.42523 -3.83327,0 -6.61458,2.73438 -6.61458,6.50297 0,3.0412 1.69066,5.22807 5.02708,6.50255 0.87883,0.3357 3.37332,0.0329 4.47273,-0.54289 z m 10.565976,-25.58594 c 2.385339,-0.81277 4.378603,-3.63121 4.378603,-6.191276 0,-3.459696 -3.158532,-6.614584 -6.622225,-6.614584 -1.458274,0 -3.703214,0.927143 -4.643144,1.917588 -1.40023,1.47547 -1.79153,2.501929 -1.79056,4.696996 0.001,3.050576 1.30107,5.035946 3.98215,6.082906 1.604291,0.62648 3.074983,0.66042 4.695176,0.10837 z m 27.956085,-14.678723 c 1.588057,-0.718019 2.812575,-1.937254 3.592124,-3.576625 0.824246,-1.733367 0.82176,-3.279732 -0.0081,-5.06225 -1.409602,-3.027655 -3.805597,-4.338089 -7.164444,-3.918429 -1.763305,0.220311 -3.291654,1.279787 -4.55548,3.157932 -0.780594,1.160023 -0.859896,1.461339 -0.859896,3.267262 0,1.566312 0.121492,2.192969 0.571277,2.94666 1.120283,1.877223 2.307225,2.825059 4.455806,3.558199 0.916066,0.31258 2.855963,0.130383 3.96875,-0.372749 z M -100.00321,48.949548 c 1.699267,-1.194287 2.729038,-2.745395 2.939159,-4.42715 0.425161,-3.402876 -1.078718,-6.097188 -4.055069,-7.264952 -2.62355,-1.029344 -5.05996,-0.491118 -7.02244,1.551322 -2.98719,3.108891 -2.58793,7.356089 0.94431,10.045286 1.737,1.322424 5.37954,1.370776 7.19404,0.09549 z"
         id="path3" /></g></g></svg>
