<?xml version="1.0" encoding="UTF-8" standalone="no"?>
<!-- Created with Inkscape (http://www.inkscape.org/) -->

<svg
   width="137.7368mm"
   height="118.40709mm"
   viewBox="0 0 137.7368 118.40709"
   version="1.1"
   id="svg1"
   xml:space="preserve"
   xmlns:xlink="http://www.w3.org/1999/xlink"
   xmlns="http://www.w3.org/2000/svg"
   xmlns:svg="http://www.w3.org/2000/svg"><defs
     id="defs1"><linearGradient
       id="linearGradient28713"><stop
         style="stop-color:#8db358;stop-opacity:1;"
         offset="0.30867347"
         id="stop28713" /><stop
         style="stop-color:#577038;stop-opacity:1;"
         offset="1"
         id="stop28714" /></linearGradient><linearGradient
       id="linearGradient28697"><stop
         style="stop-color:#6da1c6;stop-opacity:1;"
         offset="0.58928573"
         id="stop28697" /><stop
         style="stop-color:#416786;stop-opacity:1;"
         offset="1"
         id="stop28698" /></linearGradient><linearGradient
       id="linearGradient28693"><stop
         style="stop-color:#0d2130;stop-opacity:1;"
         offset="0"
         id="stop28693" /><stop
         style="stop-color:#29445c;stop-opacity:1;"
         offset="0.78811371"
         id="stop28694" /></linearGradient><linearGradient
       id="swatch28690"><stop
         style="stop-color:#0d2130;stop-opacity:1;"
         offset="0"
         id="stop28690" /></linearGradient><linearGradient
       xlink:href="#linearGradient28693"
       id="linearGradient28694"
       x1="-232.51135"
       y1="185.323"
       x2="-229.53847"
       y2="100.19068"
       gradientUnits="userSpaceOnUse" /><linearGradient
       xlink:href="#linearGradient28693"
       id="linearGradient28696"
       x1="-162.80696"
       y1="162.52446"
       x2="-166.43594"
       y2="136.70302"
       gradientUnits="userSpaceOnUse" /><linearGradient
       xlink:href="#linearGradient28697"
       id="linearGradient28698"
       x1="-326.83398"
       y1="35.542706"
       x2="-328.61673"
       y2="137.67479"
       gradientUnits="userSpaceOnUse" /><linearGradient
       xlink:href="#linearGradient28713"
       id="linearGradient28714"
       x1="-298.81882"
       y1="32.392616"
       x2="-389.26599"
       y2="132.84438"
       gradientUnits="userSpaceOnUse" /></defs><g
     id="layer1"
     transform="translate(-32.527902,-81.436386)"><g
       id="g28694"
       style="display:inline"
       transform="translate(313.04515,0.31813671)"><rect
         style="display:inline;opacity:1;fill:url(#linearGradient28696);stroke:none;stroke-width:0;stroke-linejoin:round;stroke-dasharray:none;stroke-opacity:1"
         id="rect28690"
         width="26.075205"
         height="81.354645"
         x="-177.65906"
         y="108.93642" /><ellipse
         style="display:inline;fill:#99b96c;fill-opacity:1;stroke:none;stroke-width:0;stroke-linejoin:round;stroke-dasharray:none;stroke-opacity:1"
         id="path28691"
         cx="-163.89293"
         cy="91.202042"
         rx="10.65304"
         ry="10.083794" /><path
         style="font-size:133.333px;line-height:1;font-family:'Segoe MDL2 Assets';-inkscape-font-specification:'Segoe MDL2 Assets';white-space:pre;display:inline;fill:url(#linearGradient28694);fill-opacity:1;stroke-width:0;stroke-linejoin:round"
         d="m -188.84812,195.53186 c -1.03146,0.42132 -10.70579,2.2944 -11.98502,2.67692 -2.62668,0.76585 -8.27639,-0.31009 -11.37678,0.21392 -3.05733,0.56431 -10.19087,-0.085 -13.74643,-1.12025 -5.91059,-1.72088 -15.86771,-5.98761 -19.71001,-8.12927 -9.69938,-7.0168 -10.55404,-8.83354 -14.77401,-12.74344 -4.13385,-3.82928 -7.36341,-8.68642 -9.68868,-14.57142 -2.32527,-5.92531 -3.48791,-12.79787 -3.48791,-20.61766 0,-7.41672 1.11958,-14.04743 3.35874,-19.89212 2.23915,-5.84469 5.71455,-11.11024 8.54143,-16.4522 4.09079,-3.9099 10.57822,-10.334461 16.34835,-12.390181 5.40345,-3.20297 13.39802,-5.62392 20.46003,-5.62392 5.16731,0 13.9187,0.174737 19.04289,1.343676 5.16731,1.168939 10.64857,3.798285 16.93546,6.740787 l 0.16389,25.517258 c 0,0 -2.58192,3.63286 -5.23013,1.55699 -2.6482,-2.07588 -7.02611,-8.32211 -16.49769,-10.70828 -5.37612,-1.3544 -12.99932,-2.02227 -20.17095,1.33754 -4.40625,2.06427 -7.41423,4.63815 -9.36607,7.07194 -1.99067,2.35251 -3.81812,5.20355 -5.81014,10.11011 -2.0698,6.05514 -1.44786,14.4065 0.52859,20.79215 1.93434,3.96979 8.18305,12.10704 12.99637,14.06412 4.49587,1.56701 12.99123,7.42148 30.07173,-1.11246 4.43957,-2.21815 4.60254,-3.38078 7.90312,-6.18374 0,0 1.77182,-0.7577 3.48413,-0.4507 1.71231,0.307 2.35704,2.16211 2.41883,8.07173 0.0618,5.90961 -0.40974,30.4985 -0.40974,30.4985 z"
         id="text28692"
         aria-label="C" /><path
         id="path28692"
         style="fill:url(#linearGradient28698);stroke:none;stroke-width:0;stroke-linejoin:round;stroke-dasharray:none;stroke-opacity:1"
         d="m -343.74838,162.56984 c 10.26537,-0.12079 23.76142,-4.42916 30.86801,-12.00581 17.58406,-18.74715 20.0651,-31.56807 25.10806,-51.789351 5.04293,-20.221287 3.09892,-49.928282 3.09892,-49.928282 0,0 -0.16373,-0.03409 -0.16999,-0.03556 l 8.19184,0.02882 -10.9353,-19.097328 -10.93588,-19.097338 -11.07097,19.020071 -11.07098,19.019099 13.50468,0.04782 c -0.11865,0.316408 -0.15399,0.675 -0.0944,1.080689 2.93233,19.948322 2.42909,73.38603 -30.23404,97.69946 -21.15072,15.74394 -33.53028,-0.50358 -41.31073,-1.72658 5.73789,5.4255 17.9322,15.0285 30.87707,16.57754 1.30655,0.15634 2.70718,0.224 4.17366,0.20675 z"
         transform="matrix(-0.88924165,0.00773505,0.00747719,-0.5310613,-526.8925,174.85902)" /><path
         id="path28692-2"
         style="display:inline;fill:url(#linearGradient28714);stroke-width:0;stroke-linejoin:round"
         d="m -298.52294,10.645532 -11.07087,19.019387 -11.09222,20.052368 12.24623,0.133738 c 0.004,0.03918 -0.003,0.07347 0.003,0.113522 2.49984,16.383413 -0.86136,63.918143 -28.86619,81.905463 -44.74251,28.73783 -68.56967,-20.55889 -74.32497,-24.17303 21.50155,39.96635 45.6992,45.61496 58.70662,46.82526 10.50297,0.97729 32.95933,-8.56781 41.03197,-17.41123 17.47764,-19.14643 20.77364,-31.3349 25.6498,-51.627382 4.36049,-18.146532 2.91942,-32.688671 2.55341,-35.707605 l 7.2293,-0.08806 -11.13019,-19.945366 z"
         transform="matrix(0.88554293,-0.00387641,-0.00971655,0.5327016,102.51678,115.81197)" /></g></g></svg>
