<?xml version="1.0" encoding="UTF-8" standalone="no"?>
<!-- Created with Inkscape (http://www.inkscape.org/) -->

<svg
   width="351.38022mm"
   height="192.71611mm"
   viewBox="0 0 351.38022 192.71611"
   version="1.1"
   id="svg1"
   xml:space="preserve"
   xmlns:xlink="http://www.w3.org/1999/xlink"
   xmlns="http://www.w3.org/2000/svg"
   xmlns:svg="http://www.w3.org/2000/svg"><defs
     id="defs1"><linearGradient
       id="linearGradient28713"><stop
         style="stop-color:#8db358;stop-opacity:1;"
         offset="0.30867347"
         id="stop28713" /><stop
         style="stop-color:#577038;stop-opacity:1;"
         offset="1"
         id="stop28714" /></linearGradient><linearGradient
       id="linearGradient28697"><stop
         style="stop-color:#6da1c6;stop-opacity:1;"
         offset="0.58928573"
         id="stop28697" /><stop
         style="stop-color:#416786;stop-opacity:1;"
         offset="1"
         id="stop28698" /></linearGradient><linearGradient
       id="linearGradient28693"><stop
         style="stop-color:#0d2130;stop-opacity:1;"
         offset="0"
         id="stop28693" /><stop
         style="stop-color:#29445c;stop-opacity:1;"
         offset="0.78811371"
         id="stop28694" /></linearGradient><linearGradient
       id="swatch28690"><stop
         style="stop-color:#0d2130;stop-opacity:1;"
         offset="0"
         id="stop28690" /></linearGradient><linearGradient
       xlink:href="#linearGradient28693"
       id="linearGradient28694"
       x1="-232.51135"
       y1="185.323"
       x2="-229.53847"
       y2="100.19068"
       gradientUnits="userSpaceOnUse" /><linearGradient
       xlink:href="#linearGradient28693"
       id="linearGradient28696"
       x1="-162.80696"
       y1="162.52446"
       x2="-166.43594"
       y2="136.70302"
       gradientUnits="userSpaceOnUse" /><linearGradient
       xlink:href="#linearGradient28697"
       id="linearGradient28698"
       x1="-326.83398"
       y1="35.542706"
       x2="-328.61673"
       y2="137.67479"
       gradientUnits="userSpaceOnUse" /><linearGradient
       xlink:href="#linearGradient28713"
       id="linearGradient28714"
       x1="-298.81882"
       y1="32.392616"
       x2="-389.26599"
       y2="132.84438"
       gradientUnits="userSpaceOnUse" /></defs><g
     id="layer1"
     transform="translate(72.642909,-80.90722)"><path
       style="fill:#192b3e;fill-opacity:1"
       d="m 173.22108,273.44756 c -0.25241,-0.10185 -0.33073,-1.72598 -0.33073,-6.85828 v -6.72482 h 0.7806 c 0.45685,0 0.88408,0.1849 1.03009,0.44581 0.23348,0.4172 0.29413,0.41656 0.94523,-0.0101 0.81651,-0.535 3.07852,-0.62876 4.25554,-0.1764 1.89268,0.72742 2.81119,2.25405 2.81119,4.6724 0,2.10655 -0.59225,3.37906 -2.04135,4.38602 -1.33132,0.92512 -3.81787,1.03091 -4.87089,0.20723 -0.3638,-0.28457 -0.75075,-0.52005 -0.85989,-0.52329 -0.10914,-0.003 -0.19844,0.99341 -0.19844,2.21477 0,1.78087 -0.0829,2.25246 -0.41851,2.38125 -0.46855,0.1798 -0.62618,0.17771 -1.10284,-0.0146 z m 6.60549,-5.82162 c 1.21828,-1.08485 1.56449,-2.95115 0.83331,-4.49201 -0.5903,-1.24395 -1.69559,-1.77362 -3.36617,-1.6131 -1.80474,0.17342 -2.5481,1.0647 -2.54997,3.05738 -0.002,1.88017 0.5665,2.92298 1.90046,3.48754 0.86362,0.3655 2.53785,0.13412 3.18237,-0.43981 z m 67.83688,5.57834 c -0.0883,-0.23019 -0.1606,-1.30175 -0.1606,-2.38125 0,-1.07951 -0.0566,-1.96274 -0.12589,-1.96274 -0.0692,0 -0.51573,0.23768 -0.99219,0.52818 -1.04726,0.63851 -3.31922,0.71191 -4.41979,0.14278 -2.91371,-1.50673 -3.55127,-5.97382 -1.21276,-8.49712 1.26037,-1.35995 4.67046,-1.67241 5.91916,-0.54235 0.61517,0.55671 0.74042,0.54318 0.90814,-0.0982 0.10033,-0.38368 0.36089,-0.52916 0.94773,-0.52916 h 0.80936 l 0.0753,6.28385 c 0.0921,7.68375 0.11563,7.47448 -0.84083,7.47448 -0.43712,0 -0.81366,-0.17362 -0.90763,-0.41851 z m -1.63365,-5.38813 c 1.04675,-0.69001 1.45282,-1.50236 1.46193,-2.92461 0.0172,-2.68388 -2.44063,-4.23764 -4.78536,-3.02513 -1.40331,0.72568 -1.96303,3.00822 -1.15514,4.71071 0.78822,1.66106 2.93669,2.25545 4.47857,1.23903 z m -33.0313,2.14719 c -1.51564,-0.1733 -2.8019,-1.56665 -2.8019,-3.03516 0,-0.97729 1.09586,-2.39457 2.12583,-2.74931 0.50428,-0.17369 1.72055,-0.32251 2.70282,-0.33073 l 1.78594,-0.0149 v -0.77875 c 0,-1.47082 -2.00376,-2.04464 -4.28987,-1.2285 -1.10659,0.39505 -1.26639,0.32605 -1.26639,-0.54684 0,-0.94129 1.52603,-1.47716 3.88587,-1.36453 3.25522,0.15536 3.86699,1.23031 3.73599,6.56445 l -0.0812,3.30729 -0.8599,0.0829 c -0.6388,0.0616 -0.85989,-0.0234 -0.85989,-0.33073 0,-0.48866 -0.30292,-0.53405 -0.7279,-0.10907 -0.35801,0.35801 -2.25003,0.6596 -3.34937,0.5339 z m 2.9646,-2.0689 c 0.33392,-0.21161 0.72087,-0.68392 0.8599,-1.04959 0.50689,-1.33323 0.39896,-1.42414 -1.6906,-1.42414 -2.2225,0 -2.92424,0.44451 -2.77282,1.75641 0.15641,1.35503 2.01377,1.72476 3.60352,0.71732 z m -269.63761,1.84091 c -0.0724,-0.11748 -0.21879,-2.73879 -0.32537,-5.82513 l -0.19379,-5.61152 -1.88243,-0.077 -1.88244,-0.077 v -0.79375 -0.79375 l 5.09323,-0.0719 5.09323,-0.0719 v 0.93175 0.93176 h -2.1115 -2.11151 l -0.0713,5.75469 -0.0713,5.75468 -0.70262,0.0813 c -0.38644,0.0447 -0.76183,-0.0148 -0.83419,-0.13229 z m 8.72237,-0.60926 c -1.36472,-1.19824 -1.52215,-1.83609 -1.43896,-5.83021 l 0.0742,-3.56371 h 0.79375 0.79375 l 0.13229,3.61104 c 0.11083,3.02511 0.21188,3.69885 0.62275,4.15219 1.10902,1.22364 3.39081,0.92719 4.27528,-0.55544 0.4014,-0.67287 0.54177,-1.54227 0.65112,-4.03279 0.13369,-3.04515 0.16381,-3.17847 0.73635,-3.25977 0.40396,-0.0574 0.66057,0.0863 0.79375,0.44453 0.10824,0.29111 0.16172,2.6212 0.11885,5.17799 l -0.0779,4.6487 h -0.68664 c -0.37765,0 -0.82746,-0.19258 -0.99957,-0.42795 -0.28826,-0.39422 -0.37817,-0.39422 -1.14051,0 -0.46883,0.24244 -1.46009,0.42795 -2.28672,0.42795 -1.24348,0 -1.59254,-0.11713 -2.36178,-0.79253 z m 16.14187,0.61615 c -0.097,-0.097 -0.17639,-3.13311 -0.17639,-6.74688 v -6.57049 h 4.64697 4.646977 l -0.08291,0.8599 -0.0829,0.8599 -3.571882,0.13229 -3.57187,0.13229 v 1.98437 1.98438 l 3.24114,0.0743 3.241152,0.0743 v 0.90975 0.90976 l -3.241152,0.0743 -3.24114,0.0743 -0.0645,2.38125 c -0.0355,1.30968 -0.12103,2.53007 -0.19014,2.71198 -0.13173,0.34675 -1.24985,0.45785 -1.55336,0.15434 z m 12.71465,-0.38863 c -1.182931,-0.88235 -1.442331,-1.7147 -1.646761,-5.28399 -0.211491,-3.69251 -0.0288,-4.46975 1.05034,-4.46975 0.847931,0 0.927691,0.36665 0.887401,4.07935 l -0.0342,3.1533 0.87197,0.77911 c 0.74694,0.66739 1.02413,0.75869 1.933141,0.63677 0.64999,-0.0872 1.327461,-0.40834 1.748411,-0.82883 0.65457,-0.65386 0.69139,-0.84273 0.774641,-3.97376 0.0928,-3.49101 0.29777,-4.05326 1.3550995,-3.71767 0.52096,0.16534 0.54187,0.36522 0.54187,5.18123 v 5.00925 h -0.81852 c -0.5971205,0 -0.8561095,-0.14372 -0.9574695,-0.53132 l -0.138941,-0.53133 -0.8597,0.53133 c -1.201021,0.74227 -3.690862,0.72445 -4.707262,-0.0337 z m 12.1026933,-0.0374 c -0.5862003,-0.50423 -0.7376704,-0.92474 -0.9291803,-2.57969 -0.12584,-1.08749 -0.23403,-2.70848 -0.24042,-3.60221 -0.0108,-1.50836 -0.0591,-1.63688 -0.6730801,-1.79098 -0.9489299,-0.23817 -0.9531599,-1.47885 -0.005,-1.47885 0.6651501,0 0.8128701,-0.27655 0.9893001,-1.85209 0.0959,-0.85624 1.34328,-0.96851 1.46982,-0.13229 0.2376096,1.57034 0.2974797,1.64656 1.4105891,1.79586 1.35135937,0.18125 1.79138899,0.55516 1.39425897,1.18474 -0.2018196,0.31997 -0.56253927,0.42862 -1.23154897,0.37099 -1.3515795,-0.11645 -1.5999391,0.48849 -1.4652091,3.56892 0.1273996,2.91291 0.4262597,3.40166 2.0406688,3.33728 1.11294929,-0.0444 1.52043896,0.48416 1.03795929,1.3463 -0.39529962,0.70636 -2.91098839,0.5951 -3.79811779,-0.16798 z m 7.6168656,0.007 c -1.4177194,-0.99089 -1.6543391,-1.82511 -1.6543391,-5.83251 0,-3.06523 0.0614,-3.59327 0.4341497,-3.73633 0.2387797,-0.0916 0.6463697,-0.0992 0.9057494,-0.0169 0.4156497,0.13192 0.4818597,0.57137 0.5580397,3.70357 0.0991,4.0743 0.3244597,4.54799 2.2891788,4.81152 0.9847494,0.13208 1.1797294,0.0562 2.0231988,-0.78726 l 0.9334294,-0.93343 v -3.19215 c 0,-2.8852 0.0492,-3.21849 0.5117697,-3.46604 0.6618697,-0.35423 0.6972397,-0.35001 1.1891197,0.14188 0.33093,0.33092 0.41578,1.05194 0.41578,3.53306 0,1.71451 -0.0765,3.84913 -0.16999,4.7436 -0.15808,1.5125 -0.21622,1.62631 -0.83072,1.62631 -0.3634097,0 -0.8052294,-0.19758 -0.9818094,-0.43907 -0.2991,-0.40905 -0.3639297,-0.40905 -0.9479394,0 -0.9755194,0.68328 -3.5999379,0.59558 -4.6756173,-0.15624 z m 10.7050261,0.43107 c -0.10369,-0.10369 -0.18854,-2.35861 -0.18854,-5.01092 0,-4.2265 0.0537,-4.84297 0.43415,-4.98899 0.666,-0.25556 1.41794,0.0881 1.41794,0.64806 0,0.49336 0.0155,0.49335 0.85989,-6.8e-4 0.47295,-0.2767 1.21709,-0.54058 1.65365,-0.58639 0.72009,-0.0756 0.80134,-0.005 0.87558,0.76218 0.0756,0.78104 0.004,0.86651 -0.94327,1.12151 -0.56381,0.15181 -1.31501,0.58433 -1.66933,0.96114 -0.59081,0.62831 -0.6552,0.95214 -0.77652,3.90558 -0.1319,3.21092 -0.13428,3.22069 -0.80365,3.29876 -0.36925,0.0431 -0.7562,-0.007 -0.8599,-0.11025 z m 8.61686,-0.35716 c -0.46854,-0.28568 -1.21268,-1.01747 -1.65364,-1.6262 -0.6938,-0.95776 -0.80176,-1.33479 -0.80176,-2.80002 0,-1.92207 0.44997,-3.01292 1.69426,-4.10738 2.28061,-2.006 6.4747,-1.27597 7.82007,1.36117 1.18162,2.31615 0.39491,5.51691 -1.70912,6.95359 -1.36746,0.93375 -4.00065,1.04146 -5.34981,0.21884 z m 3.99854,-1.46725 c 1.62872,-0.77288 2.24866,-3.09433 1.33852,-5.0123 -0.48903,-1.03056 -1.33553,-1.46571 -2.85124,-1.46571 -1.89879,0 -3.08913,1.32702 -3.08913,3.44384 0,2.69113 2.22844,4.16043 4.60185,3.03417 z m 11.65679,1.65269 c -0.0709,-0.18477 -0.0969,-3.1911 -0.0578,-6.68073 l 0.0711,-6.34476 4.47822,-0.0728 c 4.72649,-0.0768 5.06885,0.005 4.66214,1.10746 -0.1893,0.51333 -0.45677,0.56224 -3.74606,0.68509 l -3.54221,0.13229 -0.0553,2.0427 -0.0553,2.04269 3.36259,0.074 3.36259,0.074 v 0.79375 0.79375 l -3.30729,0.13229 -3.30729,0.1323 -0.0754,2.71198 -0.0754,2.71197 h -0.79279 c -0.43604,0 -0.85082,-0.15118 -0.92172,-0.33596 z m 11.699,0.15958 c -0.25942,-0.25942 -0.20724,-9.41946 0.056,-9.83479 0.12337,-0.19463 0.5085,-0.31369 0.85584,-0.26458 l 0.63154,0.0893 0.0719,5.09323 0.0719,5.09322 h -0.75537 c -0.41545,0 -0.83474,-0.0794 -0.93175,-0.17638 z m 5.03923,0.0121 c -0.1037,-0.10369 -0.18854,-2.36908 -0.18854,-5.03419 v -4.84565 l 0.7061,-0.17722 c 0.53605,-0.13454 0.81401,-0.044 1.15417,0.37613 0.39567,0.48863 0.50927,0.51049 0.97122,0.18693 0.28773,-0.20154 1.10781,-0.44165 1.82239,-0.53359 1.63736,-0.21067 3.00699,0.32948 3.85689,1.52107 0.57857,0.81118 0.61736,1.10656 0.61736,4.70201 v 3.83646 l -0.8599,0.0829 -0.85989,0.0829 v -3.43605 c 0,-3.31056 -0.025,-3.46577 -0.68498,-4.25009 -0.56413,-0.67042 -0.88051,-0.81405 -1.79321,-0.81405 -1.27342,0 -2.1882,0.54158 -2.61479,1.54805 -0.1634,0.3855 -0.36424,2.07012 -0.44632,3.74361 -0.14791,3.0154 -0.15527,3.04342 -0.82061,3.12101 -0.36924,0.0431 -0.7562,-0.007 -0.85989,-0.11025 z m 12.08813,-0.73534 c -1.03003,-1.03003 -1.20296,-2.34166 -0.47189,-3.57926 0.67781,-1.14745 1.38775,-1.4328 3.871779,-1.55625 l 2.31511,-0.11505 v -0.72038 c 0,-1.47646 -1.81868,-2.02375 -4.277279,-1.28713 -1.17583,0.35228 -1.69965,0.0704 -1.43264,-0.77081 0.35926,-1.13195 4.256429,-1.64295 5.903879,-0.77412 1.50045,0.7913 1.77181,1.68475 1.78168,5.86613 l 0.009,3.70416 -0.85989,0.0829 c -0.63881,0.0616 -0.8599,-0.0234 -0.8599,-0.33073 0,-0.50407 -0.20031,-0.50725 -1.05833,-0.0168 -0.3758,0.21482 -1.38704,0.38217 -2.341559,0.3875 -1.56355,0.009 -1.74252,-0.053 -2.57969,-0.89021 z m 5.024309,-1.28323 c 0.36396,-0.32742 0.69802,-0.9525 0.74236,-1.38906 l 0.0806,-0.79375 -1.97365,-0.0789 c -1.795439,-0.0717 -2.015899,-0.0239 -2.441509,0.52917 -0.58748,0.76348 -0.59803,1.22928 -0.0418,1.84396 0.65911,0.72831 2.772519,0.66349 3.633929,-0.11146 z m 6.00015,1.6869 c -0.3679,-0.68743 -0.37513,-8.62597 -0.008,-9.31106 0.35964,-0.67198 1.18527,-0.65216 1.67015,0.0401 0.37345,0.53317 0.41042,0.53622 1.09139,0.09 1.04585,-0.68526 3.59469,-0.66321 4.555657,0.0394 1.345794,0.98399 1.676581,2.07664 1.728111,5.70823 0.0256,1.80407 -0.0437,3.42617 -0.15403,3.60467 -0.288087,0.46613 -1.406571,0.40029 -1.596241,-0.094 -0.0883,-0.23018 -0.160587,-1.71286 -0.160587,-3.29484 0,-3.09284 -0.23739,-3.97857 -1.20511,-4.49648 -0.88274,-0.47243 -2.67834,-0.17157 -3.30783,0.55424 -0.28278,0.32605 -0.53116,0.60436 -0.55194,0.61847 -0.0208,0.0141 -0.11009,1.57348 -0.19844,3.46525 l -0.16064,3.43958 -0.70981,0.082 c -0.49373,0.057 -0.79577,-0.0786 -0.99219,-0.44563 z m 13.810281,-0.18088 c -1.597281,-0.95734 -2.451275,-2.52793 -2.450025,-4.50583 0.002,-2.71736 1.528051,-4.48915 4.318176,-5.01258 2.074768,-0.38923 5.01103,1.13846 4.396213,2.28727 -0.262697,0.49086 -1.307091,0.71258 -1.307091,0.27749 0,-0.3981 -1.321244,-0.83622 -2.521795,-0.83622 -2.918225,0 -4.237226,3.86955 -2.001841,5.87279 1.220804,1.09403 2.399278,1.2038 3.902709,0.36351 1.245214,-0.69596 1.251184,-0.69655 1.773291,-0.17444 0.447577,0.44758 0.471827,0.58658 0.166467,0.95451 -1.265541,1.52489 -4.381683,1.90894 -6.276104,0.7735 z m 9.050455,0.35489 c -0.0754,-0.19654 -0.10451,-2.49647 -0.0646,-5.11095 l 0.0725,-4.7536 h 0.79375 0.79375 v 5.02708 5.02708 l -0.7291,0.0839 c -0.43336,0.0498 -0.78474,-0.0611 -0.86624,-0.27348 z m 6.88209,-0.0468 c -1.12262,-0.48916 -2.44992,-2.09202 -2.6601,-3.21237 -0.29472,-1.57101 0.0156,-3.46361 0.74986,-4.57314 0.86973,-1.31425 2.29774,-2.00502 4.16626,-2.01535 2.43034,-0.0135 4.03309,1.26997 4.43955,3.55499 0.38552,2.1673 0.4692,2.11614 -3.4689,2.12072 -1.91748,0.002 -3.65689,0.11198 -3.86534,0.24389 -0.31638,0.2002 -0.27345,0.39391 0.25973,1.17204 0.35131,0.5127 0.91442,1.05779 1.25136,1.21131 0.94795,0.43191 2.48281,0.33118 3.5334,-0.23191 0.70952,-0.38028 1.03009,-0.43444 1.25286,-0.21167 1.0477,1.0477 -0.7283,2.31561 -3.22149,2.29985 -0.90118,-0.006 -1.99792,-0.16696 -2.43719,-0.35836 z m 4.97822,-6.2388 c -0.0751,-0.28715 -0.43736,-0.82293 -0.80506,-1.19062 -1.3326,-1.33261 -4.44417,-0.58387 -4.90554,1.18041 -0.13342,0.51019 -0.0148,0.53231 2.85397,0.53231 2.84939,0 2.98661,-0.0251 2.85663,-0.5221 z m 4.27232,6.26749 c -0.0718,-0.18701 -0.0978,-2.41944 -0.0578,-4.96094 l 0.0726,-4.62091 0.87989,-0.0844 c 0.70024,-0.0672 0.90846,0.0248 1.01978,0.45054 0.13829,0.52879 0.14793,0.52914 0.8399,0.0302 0.38501,-0.27762 1.0572,-0.53989 1.49376,-0.58283 0.71701,-0.0705 0.80159,0.003 0.87485,0.75753 0.0733,0.75549 -0.003,0.85342 -0.79375,1.02163 -1.96562,0.41801 -2.59464,1.77161 -2.59464,5.58342 v 2.74581 h -0.80205 c -0.44113,0 -0.86077,-0.15301 -0.93254,-0.34002 z m 8.57914,-0.3209 c -3.21491,-2.10763 -2.98789,-7.28494 0.39686,-9.05063 0.48501,-0.25301 1.50434,-0.441 2.45915,-0.45352 1.40533,-0.0184 1.78763,0.0888 2.76543,0.77603 1.60938,1.13102 2.18531,2.24182 2.18531,4.21476 0,2.0343 -0.74048,3.45252 -2.32651,4.45592 -1.54255,0.9759 -4.03935,1.00206 -5.48024,0.0574 z m 4.77421,-1.66053 c 0.77343,-0.57426 1.34122,-2.37715 1.15284,-3.66062 -0.0661,-0.45065 -0.4083,-1.15459 -0.76037,-1.56431 -0.86428,-1.00583 -2.98955,-1.21537 -4.25593,-0.41961 -1.28156,0.8053 -1.72668,2.71591 -1.02435,4.39682 0.78279,1.87347 3.21039,2.49317 4.88781,1.24772 z m 10.73507,1.72614 c -0.0802,-0.32742 -0.11224,-3.33375 -0.0712,-6.68073 l 0.0746,-6.08541 4.69636,-0.0722 4.69635,-0.0723 v 0.79239 0.79239 l -3.63802,0.0736 -3.63802,0.0736 v 1.98437 1.98438 l 3.24114,0.0743 3.24115,0.0743 v 0.7856 0.78561 h -3.30729 -3.30729 v 2.11666 2.11667 h 3.41794 c 1.87987,0 3.60628,0.0723 3.83646,0.1606 0.24818,0.0952 0.41851,0.47213 0.41851,0.92604 v 0.76544 h -4.75746 c -4.71406,0 -4.75879,-0.005 -4.90329,-0.59531 z m 12.48298,0.41893 c -0.097,-0.097 -0.17639,-2.35921 -0.17639,-5.02709 v -4.85069 h 0.92604 c 0.64676,0 0.92604,0.11969 0.92604,0.39687 0,0.49102 0.24941,0.4917 0.89562,0.002 1.30553,-0.98843 3.89966,-0.66482 5.11329,0.63786 0.4777,0.51275 0.56076,0.52637 0.8781,0.144 1.07325,-1.29318 4.17495,-1.70883 5.50083,-0.73714 1.39808,1.0246 1.64919,1.96777 1.57242,5.90597 l -0.0696,3.57187 h -0.79375 -0.79375 l -0.1323,-3.61104 c -0.15518,-4.2359 -0.38688,-4.72742 -2.22382,-4.71745 -2.16541,0.0118 -2.80326,1.11529 -2.80326,4.84988 0,1.52563 -0.0723,2.96221 -0.1606,3.19239 -0.19209,0.50057 -1.68473,0.5774 -1.70554,0.0878 -0.008,-0.18191 -0.0416,-1.69995 -0.0752,-3.37344 -0.0491,-2.44121 -0.15732,-3.18716 -0.54758,-3.77342 -0.933,-1.40161 -3.19457,-1.30497 -4.10962,0.17561 -0.4721,0.76388 -0.54519,1.31248 -0.54519,4.09206 v 3.20991 h -0.74965 c -0.41231,0 -0.82903,-0.0794 -0.92604,-0.17638 z m 31.25479,-4.65226 c -0.0623,-2.65576 -0.0628,-4.97748 -0.001,-5.15938 0.0616,-0.1819 0.44261,-0.33073 0.84663,-0.33073 0.53813,0 0.77725,0.15921 0.89412,0.59532 0.20889,0.77944 0.21418,8.76286 0.006,9.30492 -0.0932,0.24283 -0.46954,0.41851 -0.89654,0.41851 h -0.73594 z m 6.46711,4.14774 c -3.72162,-2.23051 -2.73722,-8.43454 1.48189,-9.33938 2.28366,-0.48976 4.46541,0.41999 5.34002,2.22669 0.64559,1.33359 0.70233,3.17046 0.10503,3.39966 -0.23018,0.0883 -1.95659,0.1606 -3.83646,0.1606 -3.80681,0 -3.92785,0.0707 -2.6805,1.56478 0.97746,1.17084 2.96688,1.44545 4.38973,0.60595 0.76357,-0.45052 0.99242,-0.48429 1.37688,-0.20316 0.61133,0.44701 0.3441,1.07283 -0.74048,1.73409 -1.326,0.80847 -3.95877,0.73619 -5.43611,-0.14923 z m 5.43681,-5.69996 c 0.045,-0.23526 -0.23214,-0.8008 -0.61581,-1.25677 -0.58971,-0.70083 -0.88009,-0.82903 -1.87783,-0.82903 -1.45215,0 -2.53711,0.53166 -2.95454,1.44781 -0.17385,0.38157 -0.31609,0.73895 -0.31609,0.7942 0,0.24511 1.09895,0.34874 3.30427,0.31159 1.95972,-0.033 2.39262,-0.11533 2.46,-0.4678 z m 3.23156,5.72729 c 0,-0.45111 0.9101,-1.80212 2.81171,-4.1739 l 2.81171,-3.5069 -2.61327,-0.13229 -2.61327,-0.13229 -0.0837,-0.72761 -0.0837,-0.7276 h 3.98632 3.98633 v 0.62733 c 0,0.48574 -2.41313,3.94936 -3.43401,4.92892 -0.37633,0.3611 -2.12224,2.62144 -2.12224,2.74755 0,0.0797 1.27992,0.17876 2.84427,0.22006 2.83747,0.0749 2.84427,0.0767 2.84427,0.73655 v 0.66146 l -4.16719,0.0729 -4.16719,0.0729 z m 25.13543,0.15068 c 0,-0.27659 0.48196,-1.55651 1.07102,-2.84427 0.58907,-1.28776 1.17905,-2.5795 1.31108,-2.87054 0.13202,-0.29105 0.55514,-1.30308 0.94025,-2.24896 0.38512,-0.94589 0.98576,-2.3484 1.33476,-3.1167 0.349,-0.76829 0.63455,-1.51243 0.63455,-1.65364 0,-0.14121 0.44649,-0.25464 0.99219,-0.25207 0.92407,0.004 1.03174,0.0906 1.56828,1.25677 0.31685,0.68865 1.12052,2.41629 1.78594,3.8392 0.66541,1.42291 1.20984,2.64032 1.20984,2.70535 0,0.065 0.35318,0.88936 0.78484,1.83183 1.77176,3.8684 1.77017,3.85592 0.49139,3.85592 -0.65532,0 -0.84565,-0.196 -1.47725,-1.52135 l -0.72502,-1.52135 -3.45924,-0.0735 -3.45923,-0.0735 -0.68815,1.59486 c -0.62784,1.4551 -0.75943,1.59485 -1.5017,1.59485 -0.623,0 -0.81355,-0.11779 -0.81355,-0.50289 z m 8.99583,-4.49405 c 0,-0.45698 -2.45784,-6.12716 -2.59602,-5.98898 -0.32343,0.32343 -2.62607,5.94023 -2.49072,6.07558 0.24722,0.24722 5.08674,0.16483 5.08674,-0.0866 z m 19.51452,4.53266 c -1.29826,-0.80497 -1.64576,-1.94924 -1.74338,-5.74082 -0.0754,-2.92925 -0.0256,-3.47278 0.34302,-3.74233 0.2372,-0.17344 0.66386,-0.25452 0.94814,-0.18018 0.47469,0.12414 0.51687,0.38163 0.51687,3.15551 0,4.47148 0.6651,5.62269 3.04249,5.26617 1.88351,-0.28245 2.09685,-0.73178 2.24917,-4.73722 l 0.13229,-3.47872 0.76505,-0.0873 c 0.42077,-0.048 0.84998,0.0501 0.95379,0.21807 0.1464,0.23689 0.16991,7.82094 0.0293,9.46041 -0.0416,0.48571 -1.37228,0.40315 -1.7463,-0.10835 -0.2991,-0.40905 -0.36393,-0.40905 -0.94793,0 -0.8535,0.59781 -3.56194,0.58278 -4.54253,-0.0252 z m 10.75282,0.15528 c -0.11533,-0.1866 -0.25996,-2.36958 -0.32142,-4.85108 -0.0959,-3.87157 -0.0527,-4.5608 0.30431,-4.8571 0.23604,-0.1959 0.65297,-0.27009 0.96367,-0.17147 0.53152,0.16869 0.54552,0.31921 0.47572,5.11509 -0.0703,4.83279 -0.0844,4.94306 -0.64226,5.02255 -0.31369,0.0447 -0.6647,-0.0714 -0.78002,-0.25799 z m -0.10484,-11.34842 c 0,-0.15418 0.44193,-0.80903 0.98207,-1.4552 1.00417,-1.20132 1.85313,-1.48244 2.7221,-0.9014 0.3498,0.2339 0.34657,0.29516 -0.0272,0.51649 -0.23326,0.13811 -0.88811,0.66895 -1.45521,1.17964 -0.98488,0.88691 -2.22173,1.2546 -2.22173,0.66047 z M 50.274955,257.33189 c -0.22868,-0.22868 -0.41577,-0.57736 -0.41577,-0.77485 0,-0.5039 0.74341,-1.19063 1.28889,-1.19063 0.66241,0 1.09236,0.53038 1.09236,1.34753 0,1.03429 -1.17859,1.40484 -1.96548,0.61795 z m 51.064495,0 c -0.22867,-0.22868 -0.41577,-0.57736 -0.41577,-0.77485 0,-0.1975 0.1871,-0.54618 0.41577,-0.77485 0.79915,-0.79916 1.96548,-0.33936 1.96548,0.77485 0,1.1142 -1.16633,1.574 -1.96548,0.77485 z m 83.91066,0.25192 c -0.40457,-0.40457 -0.18368,-1.67243 0.34024,-1.95282 0.86398,-0.46239 1.63661,0.11179 1.5368,1.14206 -0.07,0.72274 -0.19563,0.85349 -0.88485,0.921 -0.4418,0.0433 -0.88828,-0.006 -0.99219,-0.11024 z m -205.740128,-3.90107 c -0.21625,-0.26057 -0.28036,-4.13671 -0.23083,-13.95677 l 0.0686,-13.59602 h 2.778127 2.778131 l 0.0813,1.12448 c 0.0448,0.61847 0.17283,1.12448 0.284611,1.12448 0.11179,0 0.4919,-0.312 0.84469,-0.69335 1.14032,-1.23261 2.763651,-1.7818 5.290032,-1.78966 1.93662,-0.006 2.48093,0.0974 3.73163,0.70934 5.65458743,2.76653 7.4956662,10.54684 3.8161184,16.12669 -2.0362087,3.08781 -4.6319884,4.36032 -8.3467284,4.09175 -2.213531,-0.16004 -3.220501,-0.56703 -4.369032,-1.76584 -0.42362,-0.44216 -0.86701,-0.80393 -0.9853,-0.80393 -0.118301,0 -0.215081,2.12824 -0.215081,4.72943 v 4.72943 l -0.82683,0.16536 c -1.534221,0.30685 -4.380858,0.18849 -4.699458,-0.19539 z m 11.685081,-11.82599 c 2.84505,-0.79007 4.34611,-4.14065 3.39534,-7.57883 -1.12787,-4.07857 -6.102341,-4.75781 -8.617092,-1.17661 -0.738381,1.05152 -0.804441,1.32408 -0.800961,3.30505 0.003,1.87253 0.0951,2.29996 0.691621,3.22123 0.85617,1.32219 1.286881,1.68317 2.543231,2.13148 1.224901,0.43709 1.527471,0.4477 2.787861,0.0977 z m -55.106723,4.88048 c -2.54929,-0.48824 -5.79437,-2.39635 -7.63859,-4.49149 l -1.09266,-1.24133 v -7.91216 -7.91217 l 1.6818,-1.64901 c 0.95615,-0.9375 2.41169,-2.01702 3.37344,-2.50194 3.91862,-1.9758 8.91975,-2.09896 12.85785,-0.31663 1.71193,0.77479 4.31191,2.9609 4.31191,3.62553 0,0.38452 -3.11806,3.48785 -3.52008,3.50346 -0.11703,0.005 -0.58669,-0.34119 -1.04368,-0.76828 -0.45699,-0.4271 -1.49233,-1.11171 -2.30076,-1.52136 -1.23867,-0.62767 -1.78196,-0.74209 -3.45423,-0.7275 -5.6429,0.0493 -9.28437,5.00568 -7.83478,10.66399 1.49069,5.81872 7.87385,7.94294 12.75843,4.24582 0.94542,-0.7156 1.80195,-1.3007 1.90338,-1.30024 0.10144,4.6e-4 1.01787,0.77391 2.03651,1.71878 l 1.85209,1.71795 -1.41067,1.32682 c -0.83221,0.78274 -2.32315,1.76848 -3.63594,2.40391 -2.13364,1.03274 -2.34792,1.08091 -5.20391,1.16981 -1.63826,0.051 -3.27631,0.0357 -3.64011,-0.034 z m 72.9583256,-0.19891 c -1.4519691,-0.54166 -2.7007285,-1.58642 -3.2660382,-2.73249 -0.4189497,-0.84935 -0.5239197,-1.89831 -0.6699894,-6.69567 -0.0953,-3.1287 -0.18613,-5.71178 -0.20192,-5.74019 -0.0158,-0.0284 -0.5942497,-0.0879 -1.2854691,-0.13229 l -1.2567694,-0.0806 -0.0771,-2.03996 -0.0771,-2.03996 1.3246694,-0.17572 1.3246691,-0.17572 0.0753,-2.54682 0.0753,-2.54682 2.8442685,-0.0751 2.8442685,-0.0751 v 2.65479 2.65478 h 2.35294 c 2.71656,0 2.67414,-0.0398 2.67414,2.50688 0,1.98557 -0.008,1.99104 -2.93205,1.99104 h -2.09503 l 0.006,4.69635 c 0.005,4.15046 0.0625,4.77003 0.49318,5.33014 0.42407,0.55156 0.63783,0.61381 1.64776,0.47989 0.63826,-0.0846 1.40287,-0.22822 1.69913,-0.31909 0.43168,-0.1324 0.63049,0.0273 1.00102,0.80437 0.2543,0.53326 0.53173,1.47568 0.61651,2.09425 l 0.15415,1.12467 -1.25973,0.60983 c -1.56823,0.75916 -4.55516,0.97209 -6.0120794,0.42858 z m 16.7354294,0.12836 c -1.26818,-0.27974 -3.49537,-1.45186 -4.59755,-2.41959 -2.26157,-1.98568 -3.48809,-5.24124 -3.2844,-8.71781 0.36942,-6.30512 6.07762,-10.55222 12.8386,-9.55236 3.28548,0.48588 6.28883,2.71462 7.80312,5.79058 0.82237,1.67048 0.86583,1.90744 0.85748,4.67564 -0.008,2.67674 -0.0724,3.04623 -0.78352,4.50348 -0.96039,1.96795 -3.13758,4.11972 -5.12525,5.0654 -1.25461,0.59692 -1.9099,0.72113 -4.1366,0.7841 -1.45521,0.0412 -3.06256,-0.0171 -3.57188,-0.12944 z m 4.39472,-4.91944 c 0.92573,-0.18555 2.30705,-1.41956 2.95136,-2.63662 0.61872,-1.1687 0.56995,-4.21277 -0.0889,-5.54888 -1.53438,-3.11164 -5.61563,-3.7284 -7.90478,-1.19458 -2.24241,2.48207 -1.81951,7.16519 0.80216,8.88297 0.72356,0.47409 2.35358,0.87406 3.02043,0.74114 0.21828,-0.0435 0.76716,-0.15332 1.21972,-0.24403 z m 64.453948,4.66601 c -1.685841,-0.59888 -2.498068,-1.31845 -3.218672,-2.85149 -0.493137,-1.04911 -0.542527,-1.66018 -0.542527,-6.7133 v -5.55913 H 89.83288 c -1.790371,0 -1.873711,-0.10004 -1.873711,-2.24896 0,-2.12071 0.0987,-2.24896 1.731841,-2.24896 h 0.894814 l 0.0757,-2.57969 0.0757,-2.57968 2.417605,-0.13229 c 3.515802,-0.19239 3.270902,-0.39194 3.270902,2.66523 v 2.62643 h 2.350378 c 2.213781,0 2.359661,0.0346 2.509921,0.59531 0.27482,1.02547 0.18115,3.25322 -0.15073,3.58511 -0.19594,0.19594 -1.158287,0.3175 -2.513541,0.3175 h -2.196028 l 0.004,4.56406 c 0.005,5.51362 0.12489,5.89344 1.858241,5.87318 0.649307,-0.008 1.495511,-0.10667 1.880458,-0.22017 0.64182,-0.18924 0.72704,-0.1222 1.02667,0.80755 0.17972,0.55766 0.42135,1.1344 0.53697,1.28165 0.11562,0.14725 0.24893,0.6235 0.29625,1.05833 0.0778,0.71467 -0.041,0.85361 -1.23688,1.44658 -1.756404,0.87092 -4.235159,0.99675 -6.160627,0.31274 z m 16.755657,0.18816 c -4.86744,-1.14025 -7.81691,-5.03699 -7.81691,-10.32746 0,-3.90132 1.49115,-6.75784 4.56082,-8.73693 1.69085,-1.09014 2.75274,-1.45916 4.83189,-1.67916 6.63047,-0.70157 11.24479,3.64975 11.24479,10.60387 v 1.70676 h -7.26042 c -3.99324,0 -7.32064,0.0974 -7.39423,0.2165 -0.19408,0.31402 0.91696,2.04003 1.69007,2.62554 1.93374,1.4645 4.64407,1.50827 6.89133,0.1113 1.15269,-0.71655 1.43928,-0.79837 1.80362,-0.51494 1.77215,1.37863 2.68213,2.21342 2.68213,2.46052 0,0.43561 -1.56736,1.82555 -2.91041,2.58096 -2.05701,1.15698 -5.68073,1.57194 -8.32268,0.95304 z m 7.12687,-12.39328 c 0.25111,-0.40631 -0.8687,-2.60784 -1.55532,-3.05773 -1.61664,-1.05926 -3.9518,-1.07037 -5.52411,-0.0263 -0.85889,0.57034 -2.14636,2.69517 -1.88716,3.11455 0.19568,0.31662 8.77008,0.28742 8.96659,-0.0305 z m 30.03539,12.28998 c -1.76704,-0.48612 -4.06945,-2.04295 -5.20331,-3.51834 -1.43669,-1.86943 -2.02644,-3.8003 -2.03521,-6.66336 -0.0117,-3.80674 1.12752,-6.21997 3.98323,-8.43808 1.89952,-1.4754 3.53618,-1.95298 6.69487,-1.95354 3.93309,-7.1e-4 6.25217,0.96332 7.94759,3.30378 l 0.79976,1.10404 -0.73565,0.63825 c -1.0292,0.89294 -2.9017,2.17055 -3.18122,2.17055 -0.12846,0 -0.58325,-0.37185 -1.01066,-0.82633 -1.81748,-1.93263 -5.09369,-2.12684 -6.96357,-0.41281 -1.59137,1.45873 -2.1331,4.97571 -1.11257,7.22298 1.35715,2.98854 5.32519,3.70344 7.81539,1.40805 0.62168,-0.57304 1.22777,-1.04189 1.34687,-1.04189 0.5618,0 3.56073,2.22318 3.56073,2.63966 0,0.87793 -2.0833,2.87364 -3.90967,3.74528 -1.48867,0.71048 -2.12128,0.85231 -4.14893,0.9302 -1.58311,0.0608 -2.88472,-0.0435 -3.84765,-0.30844 z m 18.38854,0.11552 c -3.76127,-0.93804 -5.66034,-5.29581 -3.84555,-8.82433 1.33599,-2.59758 3.17227,-3.32497 8.39382,-3.32497 2.90327,0 3.5655,-0.0713 3.69065,-0.39747 0.26481,-0.69006 -0.16971,-1.77202 -1.03703,-2.58222 -0.82207,-0.76792 -0.8819,-0.78049 -3.22599,-0.67744 -1.7995,0.0791 -2.69961,0.25581 -3.65059,0.71666 -0.69421,0.33642 -1.41084,0.55463 -1.59253,0.48491 -0.18168,-0.0697 -0.73393,-0.92995 -1.22722,-1.91162 l -0.8969,-1.78486 0.63734,-0.48371 c 0.89599,-0.68003 4.54592,-1.76317 6.59046,-1.95578 2.0322,-0.19144 4.87699,0.16784 6.16376,0.77845 1.33533,0.63366 2.83704,2.25685 3.46093,3.74091 0.48906,1.16333 0.55369,1.96013 0.63984,7.88851 0.0527,3.62696 0.0215,6.99048 -0.0693,7.47448 l -0.16509,0.88001 h -2.63385 -2.63384 v -1.05833 c 0,-1.12241 -0.24696,-1.32031 -0.80641,-0.64621 -0.18811,0.22667 -0.84263,0.7055 -1.45447,1.06406 -1.28169,0.75112 -4.53444,1.06877 -6.33808,0.61895 z m 6.02777,-4.30999 c 1.38648,-0.59078 2.10184,-1.56801 2.24599,-3.06818 l 0.12794,-1.33155 h -2.53475 c -2.66542,0 -3.71702,0.27641 -4.472,1.17544 -0.46687,0.55594 -0.61623,1.90804 -0.26642,2.41177 0.7944,1.14395 3.18927,1.54113 4.89924,0.81252 z m 59.71948,4.36443 c -1.15262,-0.37762 -2.22598,-1.01821 -2.88101,-1.71941 -0.79836,-0.85463 -1.08602,-0.68165 -1.08602,0.65304 v 1.05197 l -2.71198,-0.0754 -2.71198,-0.0754 -0.0685,-14.23033 -0.0685,-14.23033 2.84657,0.0751 2.84657,0.0751 0.0572,4.86385 c 0.0315,2.67511 0.11512,4.92171 0.18584,4.99243 0.0707,0.0707 0.32128,-0.0641 0.55678,-0.29959 0.2355,-0.2355 0.97318,-0.74757 1.63929,-1.13794 1.07682,-0.63106 1.48157,-0.70975 3.65059,-0.70975 2.11665,0 2.63377,0.0951 3.90755,0.71825 2.74113,1.34111 4.63767,3.93929 5.24334,7.18317 0.34128,1.82779 0.15941,5.39247 -0.34421,6.74687 -0.86372,2.32283 -2.99005,4.6497 -5.10684,5.58847 -1.42168,0.6305 -4.74505,0.92621 -5.95484,0.52986 z m 2.99913,-5.15631 c 1.14188,-0.47711 2.2092,-1.78206 2.58199,-3.15686 0.45258,-1.66908 0.12929,-4.29564 -0.67909,-5.51719 -1.5703,-2.37287 -4.97354,-2.74868 -7.10675,-0.78478 -1.05964,0.97554 -1.48049,1.90225 -1.66282,3.66153 -0.2768,2.67075 0.78001,4.96476 2.66551,5.78604 1.05563,0.4598 3.11445,0.46532 4.20116,0.0113 z m 29.20561,5.11526 c -3.0114,-0.75821 -5.53358,-2.77994 -6.86599,-5.50363 -0.8226,-1.68154 -0.86298,-1.90694 -0.86113,-4.80698 0.002,-2.82975 0.0556,-3.14896 0.76898,-4.5609 1.60032,-3.16745 4.60674,-5.33389 8.01169,-5.77326 5.95327,-0.7682 10.96499,2.10632 12.42427,7.12605 0.6651,2.28787 0.40848,5.86331 -0.56339,7.84976 -1.02347,2.0919 -2.90843,3.92795 -5.07202,4.94041 -1.51249,0.70778 -2.10382,0.83175 -4.29703,0.90081 -1.39876,0.044 -2.99418,-0.0335 -3.54538,-0.17226 z m 5.34167,-5.13772 c 1.2758,-0.65974 2.35412,-2.12346 2.55597,-3.46948 0.41466,-2.76519 -0.22352,-4.84124 -1.95945,-6.37417 -1.74784,-1.54345 -5.21346,-1.01368 -6.74001,1.0303 -2.10039,2.81231 -1.36849,7.33314 1.41387,8.73328 1.13221,0.56975 3.69867,0.6132 4.72962,0.0801 z m -317.0885,4.81419 c -0.07,-0.18242 -0.096,-4.79609 -0.0578,-10.2526 l 0.0694,-9.92094 h 2.77812 2.77813 l 0.0808,1.41161 0.0808,1.4116 1.27565,-1.19322 c 1.19788,-1.12047 3.22541,-2.02686 4.53396,-2.02686 0.54516,0 0.72455,0.94548 0.67699,3.56814 l -0.0335,1.84835 -1.26167,0.18094 c -1.90685,0.27346 -3.56394,1.18867 -4.37819,2.41806 -0.70999,1.07199 -0.71016,1.07344 -0.79036,6.9794 l -0.0802,5.90719 h -2.77236 c -1.978,0 -2.80883,-0.095 -2.89963,-0.33167 z m 15.48971,-9.99633 v -10.32801 l 2.71198,0.0754 2.71198,0.0754 0.0693,10.25261 0.0692,10.2526 h -2.78123 -2.78123 z m 85.585155,10.00627 c -0.0716,-0.18685 -0.0992,-6.23332 -0.0613,-13.4366 l 0.0689,-13.09688 h 2.91042 2.91041 v 13.36146 13.36146 l -2.84912,0.0751 c -2.13145,0.0562 -2.8819,-0.0104 -2.97927,-0.26459 z m 11.64121,-6.3e-4 c -0.072,-0.18754 -0.0996,-4.8054 -0.0614,-10.26191 l 0.0694,-9.92094 h 2.63318 2.633169 l 0.27862,1.14433 0.27862,1.14432 0.62751,-0.66794 c 1.20371,-1.2813 2.83618,-1.83299 5.45515,-1.84355 3.58839,-0.0145 5.237,0.92658 6.82566,3.89619 0.56272,1.05187 0.58267,1.35637 0.58267,8.89436 v 7.80521 h -2.77812 -2.77813 l -0.13229,-6.66191 c -0.12387,-6.23751 -0.16763,-6.70946 -0.68696,-7.40833 -0.76412,-1.02828 -1.59763,-1.39958 -3.1495,-1.403 -1.59308,-0.004 -2.81634,0.66248 -3.49288,1.90164 -0.40837,0.74797 -0.49463,1.77232 -0.60816,7.2216 l -0.13229,6.35 -2.716709,0.0754 c -2.02886,0.0564 -2.74984,-0.0109 -2.84756,-0.26552 z m 61.726095,-4.89462 c -0.25126,-9.22216 -0.12961,-14.87056 0.32663,-15.16596 0.21828,-0.14133 1.46844,-0.22665 2.77812,-0.18961 l 2.38125,0.0673 0.1323,1.45521 0.13229,1.45521 0.57584,-0.80725 c 0.81885,-1.14791 3.01563,-2.27542 4.53221,-2.32618 l 1.24195,-0.0416 v 2.64583 2.64584 l -1.46892,0.15798 c -1.41726,0.15242 -2.59528,0.68604 -3.42587,1.55185 -1.19525,1.24592 -1.18586,1.19254 -1.32292,7.52436 l -0.13229,6.11164 -2.80399,0.0747 -2.80399,0.0747 z m 58.39465,4.89462 c -0.072,-0.18754 -0.0996,-4.8054 -0.0614,-10.26191 l 0.0694,-9.92094 2.71198,-0.0754 2.71198,-0.0754 v 1.06759 c 0,0.58717 0.046,1.06759 0.10214,1.06759 0.0562,0 0.84692,-0.49735 1.75721,-1.10521 1.63758,-1.09354 1.68052,-1.10527 4.06505,-1.11058 2.76433,-0.006 3.5952,0.30723 5.38099,2.02962 l 1.11893,1.07921 0.95814,-0.95814 c 1.17573,-1.17573 2.27744,-1.71628 4.23591,-2.07832 2.84678,-0.52625 5.97477,0.43376 7.33842,2.25224 1.41934,1.89276 1.50155,2.48098 1.50155,10.74445 v 7.66756 h -2.77813 -2.77812 l -0.0223,-2.44739 c -0.0742,-8.14263 -0.2419,-10.86451 -0.7198,-11.68278 -1.22594,-2.09911 -4.59787,-1.94294 -6.05655,0.28051 -0.417,0.63564 -0.49413,1.54933 -0.60969,7.22253 l -0.13229,6.49484 h -2.91042 -2.91041 l -0.1323,-6.75942 c -0.14197,-7.25433 -0.23307,-7.72925 -1.62544,-8.47443 -0.80932,-0.43313 -3.17385,-0.17535 -3.99007,0.435 -1.36298,1.01919 -1.38757,1.15087 -1.52824,8.18427 l -0.13229,6.61458 -2.71671,0.0754 c -2.02885,0.0564 -2.74984,-0.0109 -2.84756,-0.26552 z m 61.96015,-2.09954 c -0.22177,-3.12423 -0.22113,-11.77258 0.001,-15.40512 l 0.17304,-2.82809 2.67123,0.075 2.67123,0.075 0.0693,10.25261 0.0692,10.2526 h -2.74161 -2.74161 z M -30.61538,222.75533 c -2.14659,-1.81458 -1.56558,-4.79766 1.11757,-5.73794 2.66422,-0.93364 5.15194,2.16836 3.81396,4.75573 -0.82211,1.58979 -3.56624,2.13634 -4.93153,0.98221 z m 279.05309,-0.33823 c -0.81518,-0.81519 -0.93486,-1.10049 -0.93486,-2.22866 0,-1.59514 0.79241,-2.66212 2.36171,-3.18003 0.95457,-0.31504 1.19314,-0.29942 2.17247,0.14219 3.46282,1.56152 2.37246,6.20136 -1.45733,6.20136 -1.02896,0 -1.3451,-0.13798 -2.14199,-0.93486 z"
       id="path28714" /><g
       id="g28694"
       style="display:inline"
       transform="translate(313.04515,-0.21102996)"><rect
         style="display:inline;opacity:1;fill:url(#linearGradient28696);stroke:none;stroke-width:0;stroke-linejoin:round;stroke-dasharray:none;stroke-opacity:1"
         id="rect28690"
         width="26.075205"
         height="81.354645"
         x="-177.65906"
         y="108.93642" /><ellipse
         style="display:inline;fill:#99b96c;fill-opacity:1;stroke:none;stroke-width:0;stroke-linejoin:round;stroke-dasharray:none;stroke-opacity:1"
         id="path28691"
         cx="-163.89293"
         cy="91.202042"
         rx="10.65304"
         ry="10.083794" /><path
         style="font-size:133.333px;line-height:1;font-family:'Segoe MDL2 Assets';-inkscape-font-specification:'Segoe MDL2 Assets';white-space:pre;display:inline;fill:url(#linearGradient28694);fill-opacity:1;stroke-width:0;stroke-linejoin:round"
         d="m -188.84812,195.53186 c -1.03146,0.42132 -10.70579,2.2944 -11.98502,2.67692 -2.62668,0.76585 -8.27639,-0.31009 -11.37678,0.21392 -3.05733,0.56431 -10.19087,-0.085 -13.74643,-1.12025 -5.91059,-1.72088 -15.86771,-5.98761 -19.71001,-8.12927 -9.69938,-7.0168 -10.55404,-8.83354 -14.77401,-12.74344 -4.13385,-3.82928 -7.36341,-8.68642 -9.68868,-14.57142 -2.32527,-5.92531 -3.48791,-12.79787 -3.48791,-20.61766 0,-7.41672 1.11958,-14.04743 3.35874,-19.89212 2.23915,-5.84469 5.71455,-11.11024 8.54143,-16.4522 4.09079,-3.9099 10.57822,-10.334461 16.34835,-12.390181 5.40345,-3.20297 13.39802,-5.62392 20.46003,-5.62392 5.16731,0 13.9187,0.174737 19.04289,1.343676 5.16731,1.168939 10.64857,3.798285 16.93546,6.740787 l 0.16389,25.517258 c 0,0 -2.58192,3.63286 -5.23013,1.55699 -2.6482,-2.07588 -7.02611,-8.32211 -16.49769,-10.70828 -5.37612,-1.3544 -12.99932,-2.02227 -20.17095,1.33754 -4.40625,2.06427 -7.41423,4.63815 -9.36607,7.07194 -1.99067,2.35251 -3.81812,5.20355 -5.81014,10.11011 -2.0698,6.05514 -1.44786,14.4065 0.52859,20.79215 1.93434,3.96979 8.18305,12.10704 12.99637,14.06412 4.49587,1.56701 12.99123,7.42148 30.07173,-1.11246 4.43957,-2.21815 4.60254,-3.38078 7.90312,-6.18374 0,0 1.77182,-0.7577 3.48413,-0.4507 1.71231,0.307 2.35704,2.16211 2.41883,8.07173 0.0618,5.90961 -0.40974,30.4985 -0.40974,30.4985 z"
         id="text28692"
         aria-label="C" /><path
         id="path28692"
         style="fill:url(#linearGradient28698);stroke:none;stroke-width:0;stroke-linejoin:round;stroke-dasharray:none;stroke-opacity:1"
         d="m -343.74838,162.56984 c 10.26537,-0.12079 23.76142,-4.42916 30.86801,-12.00581 17.58406,-18.74715 20.0651,-31.56807 25.10806,-51.789351 5.04293,-20.221287 3.09892,-49.928282 3.09892,-49.928282 0,0 -0.16373,-0.03409 -0.16999,-0.03556 l 8.19184,0.02882 -10.9353,-19.097328 -10.93588,-19.097338 -11.07097,19.020071 -11.07098,19.019099 13.50468,0.04782 c -0.11865,0.316408 -0.15399,0.675 -0.0944,1.080689 2.93233,19.948322 2.42909,73.38603 -30.23404,97.69946 -21.15072,15.74394 -33.53028,-0.50358 -41.31073,-1.72658 5.73789,5.4255 17.9322,15.0285 30.87707,16.57754 1.30655,0.15634 2.70718,0.224 4.17366,0.20675 z"
         transform="matrix(-0.88924165,0.00773505,0.00747719,-0.5310613,-526.8925,174.85902)" /><path
         id="path28692-2"
         style="display:inline;fill:url(#linearGradient28714);stroke-width:0;stroke-linejoin:round"
         d="m -298.52294,10.645532 -11.07087,19.019387 -11.09222,20.052368 12.24623,0.133738 c 0.004,0.03918 -0.003,0.07347 0.003,0.113522 2.49984,16.383413 -0.86136,63.918143 -28.86619,81.905463 -44.74251,28.73783 -68.56967,-20.55889 -74.32497,-24.17303 21.50155,39.96635 45.6992,45.61496 58.70662,46.82526 10.50297,0.97729 32.95933,-8.56781 41.03197,-17.41123 17.47764,-19.14643 20.77364,-31.3349 25.6498,-51.627382 4.36049,-18.146532 2.91942,-32.688671 2.55341,-35.707605 l 7.2293,-0.08806 -11.13019,-19.945366 z"
         transform="matrix(0.88554293,-0.00387641,-0.00971655,0.5327016,102.51678,115.81197)" /></g></g></svg>
