<?xml version="1.0" encoding="UTF-8" standalone="no"?>
<!-- Created with Inkscape (http://www.inkscape.org/) -->

<svg
   width="185.9214mm"
   height="142.42529mm"
   viewBox="0 0 185.9214 142.42529"
   version="1.1"
   id="svg1"
   xml:space="preserve"
   xmlns="http://www.w3.org/2000/svg"
   xmlns:svg="http://www.w3.org/2000/svg"><defs
     id="defs1" /><g
     id="layer1"
     transform="translate(-9.9545872,-46.729121)"><g
       id="g5"
       transform="translate(6.1457269,-10.979443)"><path
         style="fill:#eab841"
         d="m 75.098477,154.87727 c -1.338786,-0.48164 -2.227659,-1.06264 -3.085556,-2.01683 -0.871712,-0.96955 -1.147532,-1.44545 -1.600048,-2.76071 -0.298332,-0.86712 -0.313253,-1.63818 -0.313253,-16.18878 0,-14.55059 0.01492,-15.32165 0.313253,-16.18877 0.462201,-1.34341 0.743392,-1.81891 1.684662,-2.84881 1.513031,-1.6555 3.586845,-2.4216 6.560968,-2.42371 1.494832,-10e-4 1.550328,0.0394 1.551279,1.13128 0.0016,1.79744 0.891873,5.14869 1.890264,7.11524 1.509419,2.97312 4.246774,5.57156 7.019392,6.66317 0.639146,0.25164 0.595456,0.0876 1.038576,3.8999 0.19071,1.64074 0.39859,3.39335 0.461955,3.89469 l 0.11521,0.91152 6.057193,0.0435 6.057188,0.0434 0.21021,-1.53503 c 0.11561,-0.84426 0.31658,-2.24353 0.44659,-3.10948 0.13001,-0.86594 0.31495,-2.09832 0.41098,-2.73861 l 0.17461,-1.16416 1.12046,-0.5379 c 2.26683,-1.08824 4.56939,-3.28865 6.13085,-5.85886 1.21182,-1.9947 2.1625,-5.22584 2.38226,-8.09668 l 0.0444,-0.58007 2.07164,0.0256 c 1.67696,0.0207 2.25298,0.094 3.02345,0.38437 1.96396,0.74021 3.62827,2.4065 4.47753,4.48285 l 0.37128,0.90774 0.0456,15.24516 c 0.0446,14.87689 0.0376,15.27172 -0.28826,16.34447 -0.69862,2.30006 -2.50046,4.20341 -4.67415,4.93748 -1.02638,0.34661 -1.12616,0.34817 -21.922512,0.34222 -20.176516,-0.006 -20.921716,-0.0169 -21.776061,-0.32423 z m 24.169918,-5.63614 v -0.82865 h -2.403109 -2.40311 v 0.82865 0.82866 h 2.40311 2.403109 z m 3.646095,-3.3975 v -0.91152 h -5.966339 -5.96634 v 0.91152 0.91153 h 5.96634 5.966339 z m -0.0328,-3.39245 0.0501,-0.8337 h -5.974997 -5.975002 v 0.80103 c 0,0.44057 0.03107,0.83211 0.06905,0.87009 0.03798,0.038 2.704186,0.0527 5.924907,0.0327 l 5.855862,-0.0364 z m 0.0328,-3.40254 v -0.91153 h -5.966339 -5.96634 v 0.91153 0.91152 h 5.96634 5.966339 z m -10.514147,-5.2569 c -0.08798,-0.4053 -0.235139,-1.50455 -0.695348,-5.19395 l -0.290579,-2.32951 -0.914064,-0.40506 c -4.721637,-2.09236 -7.777406,-6.76847 -8.00838,-12.25488 l -0.04535,-1.07726 6.753566,-0.0433 c 3.92495,-0.0252 6.753565,0.0192 6.753565,0.10591 0,0.0821 -0.93106,0.99394 -2.069022,2.02641 -1.137962,1.03246 -2.014268,1.92567 -1.947347,1.9849 0.111394,0.0986 1.521092,0.55607 3.850638,1.24961 0.501338,0.14926 1.097972,0.34505 1.325853,0.43508 l 0.414329,0.1637 -0.497195,0.22253 c -0.499957,0.22377 -4.505936,1.84113 -5.510578,2.22483 -0.296245,0.11315 -0.538628,0.25989 -0.538628,0.3261 0,0.11016 5.278571,1.59635 6.339237,1.78482 0.250669,0.0445 0.455762,0.13543 0.455762,0.20197 0,0.0665 -0.371741,0.43443 -0.826091,0.81754 l -0.82609,0.69657 -0.044,4.67422 -0.044,4.67422 -1.777062,0.047 c -1.733515,0.0458 -1.779075,0.0377 -1.859212,-0.33146 z m 5.376457,-3.84699 c 0,-3.34529 0.04669,-4.25948 0.226424,-4.43332 0.124534,-0.12045 0.985481,-0.84343 1.913216,-1.60661 0.92774,-0.76319 1.65373,-1.42067 1.61332,-1.46108 -0.0675,-0.0675 -2.766988,-0.83316 -4.333021,-1.22894 -1.227802,-0.3103 -1.432608,-0.19334 4.690501,-2.67861 0.66558,-0.27014 1.17299,-0.52833 1.12757,-0.57374 -0.0884,-0.0884 -0.6864,-0.25935 -4.823681,-1.37894 -1.458439,-0.39466 -2.685194,-0.74318 -2.726122,-0.77448 -0.04093,-0.0313 0.66703,-0.80114 1.573243,-1.71076 l 1.647659,-1.65387 6.381881,0.0433 6.38187,0.0433 0.0532,0.5549 c 0.12277,1.28181 -0.7082,4.33227 -1.73693,6.37618 -1.25387,2.49124 -3.43069,4.6581 -6.00272,5.97525 l -1.42874,0.73167 -0.19435,1.05326 c -0.1069,0.57929 -0.35387,2.24652 -0.54883,3.70496 -0.19496,1.45844 -0.3922,2.78222 -0.43831,2.94174 -0.0726,0.25113 -0.30465,0.29003 -1.729982,0.29003 H 97.77681 Z M 74.49151,103.6377 c -3.281487,-1.64588 -5.990484,-3.01461 -6.019994,-3.04163 -0.06208,-0.0568 0.432891,-1.061155 0.669031,-1.357487 0.11882,-0.149107 1.691573,0.565173 6.152791,2.794347 3.296244,1.64706 6.025881,3.02533 6.065861,3.06281 0.105602,0.099 -0.62494,1.55415 -0.774896,1.54348 -0.06955,-0.005 -2.811306,-1.35564 -6.092793,-3.00152 z m 38.25101,2.26126 -0.36446,-0.74822 2.02178,-1.01572 c 1.11198,-0.55864 3.81169,-1.91649 5.99934,-3.01745 2.18766,-1.10096 4.04079,-2.003635 4.11806,-2.005944 0.13988,-0.0042 0.99846,1.405934 0.90366,1.484164 -0.14344,0.11837 -12.10819,6.05235 -12.20252,6.05191 -0.0613,-2.8e-4 -0.2754,-0.33722 -0.47586,-0.74874 z m -29.550097,-5.66222 c -0.683644,-0.600261 -1.578595,-1.398237 -1.98878,-1.773276 -0.410186,-0.375039 -1.379717,-1.237204 -2.154512,-1.915923 -0.774796,-0.678718 -1.483299,-1.312642 -1.574451,-1.40872 -0.09115,-0.09608 -1.002861,-0.910265 -2.026019,-1.809303 -2.006696,-1.763264 -2.007723,-1.765585 -1.139837,-2.577365 0.423918,-0.396514 0.431219,-0.397268 0.802443,-0.08287 0.206048,0.174508 0.411922,0.356621 0.457499,0.404694 0.04558,0.04807 0.791368,0.713349 1.657316,1.47839 0.865948,0.765041 2.133796,1.888146 2.817439,2.495789 0.683643,0.607643 2.231094,1.982651 3.43878,3.055574 l 2.195793,1.95077 -0.51097,0.64515 c -0.281033,0.35484 -0.560637,0.6414 -0.621341,0.63682 -0.0607,-0.005 -0.669717,-0.49946 -1.35336,-1.09973 z m 25.555187,0.56155 c -0.29134,-0.30059 -0.52525,-0.61755 -0.51982,-0.70436 0.005,-0.0868 1.18007,-1.182298 2.61028,-2.434408 1.43021,-1.252111 2.78683,-2.448986 3.01471,-2.659722 0.22788,-0.210737 1.42115,-1.27163 2.65171,-2.35754 1.23056,-1.085911 2.26224,-2.03319 2.29262,-2.105064 0.12197,-0.288527 0.50904,-0.09979 0.93165,0.454285 0.2454,0.321731 0.42205,0.647249 0.39257,0.723372 -0.0521,0.134564 -1.06062,1.045101 -5.52289,4.986404 -3.10816,2.745279 -3.37718,2.98551 -4.31856,3.856323 -0.46806,0.43297 -0.88511,0.78723 -0.92679,0.78723 -0.0417,0 -0.31414,-0.24594 -0.60548,-0.54652 z M 89.148831,96.598302 c -0.176842,-0.412556 -0.321532,-0.779775 -0.321532,-0.816043 0,-0.03627 -0.288229,-0.682653 -0.64051,-1.436412 -0.352281,-0.753759 -1.213937,-2.73895 -1.91479,-4.411536 -0.700854,-1.672585 -1.342864,-3.16417 -1.426689,-3.314634 -0.193558,-0.347427 -1.155692,-2.533665 -1.155692,-2.626055 0,-0.167708 1.5398,-0.730437 1.654902,-0.604794 0.07046,0.07691 0.62951,1.333109 1.242333,2.791548 0.612822,1.458439 1.288482,3.024603 1.501466,3.480366 1.015417,2.172885 2.897339,6.794523 2.833965,6.959673 -0.03918,0.102102 -0.381891,0.307668 -0.761579,0.456814 l -0.690343,0.271175 z m 14.470019,0.439709 c -0.3874,-0.174606 -0.70436,-0.425921 -0.70436,-0.558476 0,-0.231885 1.52981,-3.931982 2.47662,-5.990135 0.2516,-0.546914 1.03968,-2.374106 1.7513,-4.060426 0.71162,-1.68632 1.31477,-3.09258 1.34034,-3.125022 0.11018,-0.139816 1.5582,0.538326 1.5582,0.729742 0,0.209302 -0.69664,1.901134 -1.55854,3.784985 -0.24544,0.536456 -0.96231,2.193833 -1.59304,3.683058 -0.63074,1.489226 -1.37568,3.213105 -1.65543,3.830844 -0.27975,0.617738 -0.59911,1.325601 -0.70968,1.573029 l -0.20105,0.449868 z m -7.499357,-9.034586 v -7.540792 h 0.828658 0.828659 v 7.540792 7.540792 h -0.828659 -0.828658 z"
         id="path8" /><path
         style="fill:#5f81be"
         d="m 31.649872,188.69188 v -11.44194 h 1.40872 1.408719 v 1.06424 1.06424 l 0.621494,-0.6286 c 2.599327,-2.62909 7.02204,-2.52732 9.621405,0.22139 1.696833,1.79432 2.375152,4.34876 2.020379,7.60842 -0.291045,2.67414 -0.961396,4.27729 -2.346931,5.61272 -1.000622,0.96444 -2.189147,1.55387 -3.670397,1.82028 -2.092133,0.37628 -4.462453,-0.3188 -5.650143,-1.65688 -0.173644,-0.19563 -0.381139,-0.35569 -0.461099,-0.35569 -0.07996,0 -0.137685,1.80855 -0.128276,4.01899 l 0.01711,4.019 -1.420489,0.0479 -1.42049,0.0479 z m 8.897289,2.80172 c 1.351199,-0.5068 2.362026,-1.64201 2.891671,-3.24746 0.567456,-1.72008 0.364434,-5.3918 -0.369963,-6.69092 -0.404993,-0.71641 -1.204488,-1.50535 -1.889425,-1.86447 -0.798635,-0.41874 -3.204883,-0.49832 -3.894695,-0.12882 -2.113141,1.13194 -2.956761,3.25307 -2.771727,6.96898 0.138195,2.77526 1.134126,4.39155 3.064085,4.97267 0.660732,0.19894 2.428876,0.19301 2.970054,-0.01 z m -20.829969,2.33735 c -1.806946,-0.37244 -3.628533,-1.90446 -4.549587,-3.82638 -0.76634,-1.59908 -0.967658,-2.68534 -0.886907,-4.78552 0.190618,-4.95761 2.962323,-8.15518 7.305981,-8.42854 1.972967,-0.12417 4.255958,0.47992 5.344021,1.41404 0.94381,0.81028 1.767744,2.42578 1.946328,3.81619 l 0.09127,0.71059 -1.406929,-0.0477 -1.406929,-0.0477 -0.316812,-0.90088 c -0.340825,-0.96917 -0.934297,-1.70174 -1.728546,-2.13368 -0.697348,-0.37924 -3.285889,-0.37731 -3.97756,0.003 -1.855003,1.01987 -2.734573,2.99217 -2.734573,6.13185 0,2.01531 0.308902,3.19621 1.139891,4.35767 1.317461,1.84139 4.429057,2.1129 6.104179,0.53263 0.47978,-0.45262 1.222251,-1.7279 1.44385,-2.47998 0.0726,-0.24639 0.294734,-0.29003 1.476395,-0.29003 h 1.390938 l -0.07419,0.45576 c -0.47574,2.92272 -2.423756,4.98725 -5.203155,5.51435 -0.962242,0.18249 -3.081949,0.18478 -3.957668,0.004 z m 34.78065,0.0134 c -1.972272,-0.42186 -3.872751,-2.11417 -4.801803,-4.27583 -0.552897,-1.28645 -0.55771,-1.3197 -0.559584,-3.86645 -0.0015,-2.07291 0.05714,-2.73823 0.303879,-3.44622 1.467038,-4.20953 5.20141,-6.27092 9.517006,-5.25343 1.940588,0.45753 3.213516,1.35059 3.958191,2.77698 0.330199,0.63247 0.881872,2.63615 0.77511,2.8152 -0.04077,0.0684 -0.694318,0.1243 -1.45234,0.1243 H 60.86008 l -0.105452,-0.52726 c -0.173045,-0.86523 -0.902729,-1.93655 -1.643885,-2.41354 -0.621745,-0.40015 -0.852817,-0.44792 -2.186791,-0.45207 -1.724284,-0.005 -2.521437,0.3108 -3.365508,1.33481 -1.113548,1.35092 -1.733935,4.23612 -1.388558,6.45768 0.442249,2.84466 1.734257,4.30076 3.996276,4.50384 2.167022,0.19454 3.913626,-0.99454 4.496819,-3.06142 l 0.198743,-0.70436 h 1.454313 1.454313 l -0.246127,0.94252 c -0.594936,2.27826 -1.722151,3.67946 -3.670792,4.56301 -0.947228,0.4295 -1.312624,0.49851 -2.917682,0.55111 -1.009165,0.0331 -2.106223,0.002 -2.437907,-0.0689 z M 8.8388666,193.40868 c -0.034879,-0.0911 -0.043995,-3.74554 -0.020258,-8.12085 l 0.043159,-7.95512 h 1.4087194 1.408719 v 8.09408 8.09409 l -1.388462,0.0268 c -0.7984841,0.0154 -1.4154072,-0.0437 -1.4518771,-0.13897 z m 0.3694341,-19.04711 c -0.9560687,-0.35359 -1.3032571,-0.77419 -1.3032571,-1.57885 0,-1.21123 1.1092752,-1.94568 2.7068064,-1.79218 0.996408,0.0957 1.605412,0.48351 1.912081,1.21747 0.20559,0.49205 0.205486,0.64255 -7.87e-4,1.13623 -0.414685,0.99248 -2.036339,1.49017 -3.3148433,1.01733 z m 6.5835753,-0.94034 c -1.132222,-0.32761 -1.883402,-1.61176 -1.608175,-2.7492 0.309889,-1.28069 1.338418,-1.87441 3.247142,-1.87441 2.11856,0 3.115007,0.79837 3.115007,2.49578 0,0.79532 -0.05539,0.92287 -0.643856,1.48267 -0.6884,0.65486 -1.296901,0.83407 -2.753643,0.811 -0.455762,-0.007 -1.066176,-0.0819 -1.356475,-0.16584 z m 2.839308,-1.30564 c 0.571586,-0.21732 0.852155,-0.83713 0.595787,-1.31616 -0.250595,-0.46824 -0.882934,-0.69945 -1.912888,-0.69945 -1.133489,0 -1.706342,0.24529 -1.842825,0.78908 -0.214992,0.8566 0.495721,1.38257 1.873468,1.38649 0.472617,10e-4 1.051523,-0.0706 1.286458,-0.15996 z m 5.601299,-0.16528 c -1.285114,-0.30493 -2.360779,-1.5789 -2.360779,-2.79601 0,-1.71964 1.849171,-3.33985 3.811828,-3.33985 1.07014,0 2.10049,0.46783 2.812927,1.2772 1.123198,1.27602 1.107553,2.5689 -0.04558,3.76678 -1.015911,1.05534 -2.621237,1.47085 -4.218396,1.09188 z m 2.575504,-1.50777 c 0.648569,-0.22609 1.030057,-0.80524 1.030057,-1.56375 0,-1.1733 -1.462059,-1.97544 -2.878031,-1.57899 -1.04913,0.29374 -1.641924,0.96204 -1.641924,1.85106 0,1.04619 0.557878,1.46981 1.935625,1.46981 0.573805,0 1.273228,-0.0802 1.554273,-0.17813 z m 6.233721,-1.128 c -1.028485,-0.35093 -1.664142,-0.83004 -2.248093,-1.69446 -1.248513,-1.84817 -0.387953,-4.08095 1.996093,-5.17898 1.103266,-0.50814 3.12788,-0.48684 4.163578,0.0438 0.893105,0.45759 1.75389,1.23954 2.114482,1.92083 0.427764,0.80821 0.350883,2.35132 -0.157079,3.15283 -1.102954,1.74035 -3.666687,2.50741 -5.868981,1.75598 z m 3.613384,-1.62487 c 1.746217,-1.01985 1.627846,-2.83973 -0.245421,-3.77322 -1.120388,-0.55832 -2.107344,-0.55536 -3.241297,0.01 -1.14675,0.57145 -1.649836,1.45932 -1.365196,2.40936 0.200571,0.66944 0.973071,1.38013 1.783265,1.64058 0.730263,0.23475 2.451318,0.0741 3.068649,-0.28644 z m 8.584778,-5.49743 c -2.692148,-0.51614 -4.487059,-1.09143 -7.346875,-2.35476 l -1.794864,-0.79288 -0.856843,0.64995 c -0.923336,0.70038 -2.67321,1.61253 -4.005745,2.08805 -0.617963,0.22053 -1.336513,0.29663 -2.826034,0.2993 -1.97307,0.004 -2.012502,-0.004 -3.240466,-0.61078 -1.254099,-0.61981 -2.838864,-1.98781 -3.396645,-2.93206 -0.268951,-0.4553 -0.329354,-0.47378 -1.56633,-0.47918 -1.43975,-0.006 -2.548919,-0.38971 -3.362543,-1.16239 -0.529004,-0.50238 -1.0139,-1.33791 -0.863649,-1.48816 0.261263,-0.26126 1.828257,0.0121 2.457885,0.42875 0.56139,0.37151 0.839327,0.43697 1.840432,0.43349 0.64855,-0.002 1.385123,-0.0577 1.63683,-0.12332 0.417789,-0.10884 0.497181,-0.0503 0.911525,0.67163 0.249631,0.43497 0.906583,1.24755 1.459892,1.80574 1.585918,1.59989 3.142048,2.10621 5.31193,1.72834 1.839452,-0.32033 3.29476,-1.10195 5.949364,-3.19532 0.35199,-0.27757 0.418554,-0.25842 2.168764,0.62407 0.993096,0.50074 2.029367,0.97794 2.302824,1.06045 0.273457,0.0825 0.907381,0.30551 1.408719,0.49557 3.217778,1.21982 7.104786,1.64095 10.026766,1.08632 4.438703,-0.84251 8.097149,-4.55414 8.620917,-8.74623 0.210896,-1.68796 -0.638569,-3.52086 -1.944804,-4.19634 l -0.484011,-0.2503 1.155005,-1.21592 c 1.547165,-1.62876 2.182464,-2.94454 2.182464,-4.52016 0,-1.58378 -0.600952,-2.76876 -2.153429,-4.24623 l -1.157271,-1.10135 0.01608,-1.07149 0.01607,-1.07148 0.671038,0.53284 c 1.415307,1.12382 2.842538,2.55642 3.386847,3.39958 0.798226,1.23649 1.061735,2.08998 1.069428,3.46383 0.01016,1.81488 -0.543986,3.22325 -1.955308,4.96944 l -0.560253,0.69318 0.505857,0.74954 c 1.445085,2.14121 1.373833,4.95481 -0.200536,7.91885 -1.397984,2.63196 -3.995027,4.82787 -6.930715,5.86022 -2.371281,0.83387 -5.917146,1.08525 -8.452315,0.59921 z M 9.4951585,154.95456 c -2.6934048,-0.72576 -4.7468916,-2.77279 -5.4570236,-5.43985 -0.1843457,-0.69235 -0.2276209,-3.6395 -0.2292166,-15.61022 -0.0017,-12.72763 0.032966,-14.89085 0.2520846,-15.7321 0.6530021,-2.50705 2.4335938,-4.42161 4.9664961,-5.34016 0.7836697,-0.2842 1.957873,-0.30052 21.627983,-0.30052 22.111836,0 21.022242,-0.0366 22.819749,0.76636 1.19685,0.53463 2.634777,2.02072 3.328674,3.44016 l 0.617242,1.26263 0.04895,7.9201 0.04895,7.9201 -0.960477,-0.65332 c -3.072315,-2.0898 -7.585673,-3.66801 -10.490048,-3.66811 -1.029915,-3e-5 -2.982302,0.34768 -3.728963,0.66411 -0.273457,0.11589 -0.758222,0.32263 -1.077256,0.45942 -0.319033,0.13678 -1.015486,0.55192 -1.547674,0.92252 l -0.967613,0.67383 -0.598044,-0.71997 c -1.432237,-1.72422 -3.517382,-1.9346 -6.117201,-0.61717 l -0.828126,0.41965 -0.692639,-0.98216 c -1.121369,-1.5901 -2.768657,-2.62737 -4.70854,-2.96488 -1.70799,-0.29717 -4.297325,0.34609 -6.343862,1.57599 -1.258582,0.75636 -1.649623,1.11987 -2.320747,2.15737 -0.799393,1.23579 -1.029494,2.54259 -0.701888,3.9862 0.141889,0.62524 0.30581,1.2505 0.364268,1.38946 0.07666,0.18223 -0.206465,0.45736 -1.01579,0.9871 -2.152255,1.40873 -3.614422,3.08728 -4.017363,4.61188 -0.471957,1.78574 0.89507,3.71568 3.6507,5.154 0.769504,0.40165 1.418351,0.74408 1.441884,0.76096 0.02353,0.0169 -0.21873,0.5967 -0.538359,1.2885 -0.995164,2.1539 -1.266868,3.99899 -0.817027,5.54829 l 0.108271,0.3729 -2.629603,-0.0109 c -1.696154,-0.007 -2.934243,-0.093 -3.4877975,-0.24216 z m 8.1419305,-0.32167 c -0.606441,-1.45142 0.09757,-3.87047 1.92118,-6.60134 0.360865,-0.5404 0.656118,-1.03501 0.656118,-1.09913 0,-0.0641 -0.428831,-0.24985 -0.952957,-0.41274 -2.54034,-0.78949 -5.510578,-2.79095 -5.510578,-3.71324 0,-0.92684 1.271936,-2.47805 2.817438,-3.43605 0.410186,-0.25426 1.342427,-0.7559 2.071646,-1.11474 0.729219,-0.35885 1.354423,-0.67894 1.389342,-0.71132 0.03492,-0.0324 -0.177526,-0.33336 -0.4721,-0.66887 -1.564231,-1.78156 -1.518791,-4.1745 0.104681,-5.5127 1.232559,-1.01598 3.99298,-2.00259 5.616236,-2.00732 1.914815,-0.006 3.840252,1.9286 4.658823,4.67996 0.128815,0.43298 0.275525,0.78723 0.326022,0.78723 0.0505,0 0.546389,-0.41137 1.101984,-0.91416 1.192027,-1.07872 2.74697,-1.90328 3.589177,-1.90328 1.35323,0 2.159222,1.11919 2.667575,3.70417 l 0.190678,0.9696 0.576387,-0.85588 c 1.166161,-1.73165 3.049405,-3.18885 4.994009,-3.86422 1.176339,-0.40854 4.283771,-0.48581 5.668948,-0.14096 2.10112,0.5231 5.02991,2.01763 7.416492,3.78455 l 1.035823,0.76688 -0.0041,6.22881 c -0.0023,3.59202 -0.07498,6.53648 -0.171607,6.95561 -0.587083,2.54654 -2.626934,4.61774 -5.269542,5.35051 -1.026594,0.28467 -2.113748,0.30337 -17.637805,0.30337 H 17.87723 Z"
         id="path7" /><path
         style="fill:#972e23"
         d="m 142.60723,155.12567 c -0.0912,-0.0307 -0.67702,-0.21482 -1.30192,-0.40909 -1.9068,-0.5928 -3.47458,-2.00353 -4.38512,-3.94583 l -0.44503,-0.94933 -0.0448,-15.56637 c -0.0399,-13.86711 -0.0158,-15.66723 0.22064,-16.49031 0.46854,-1.63115 1.58353,-3.07776 3.14659,-4.08243 1.6869,-1.08428 1.47762,-1.06766 13.44612,-1.06766 h 10.82496 l 0.87048,0.6159 c 7.81659,5.53062 11.99852,11.99816 11.24427,17.38977 -0.37545,2.68384 -1.26872,4.69194 -3.27508,7.36248 -2.51908,3.35299 -6.70568,6.76038 -12.15353,9.89152 -2.98787,1.71727 -8.85431,4.44816 -11.60122,5.40049 -0.41019,0.1422 -1.15598,0.41618 -1.65732,0.60884 -0.50134,0.19266 -1.28442,0.46609 -1.74018,0.60763 -0.45576,0.14154 -1.10984,0.36064 -1.45351,0.48688 -0.58289,0.21412 -1.31005,0.27739 -1.69539,0.14751 z m 9.28097,-0.0818 c 0.18231,-0.0778 0.9281,-0.37997 1.65732,-0.67161 1.69791,-0.67904 6.49782,-3.07635 8.53518,-4.26287 2.2889,-1.33302 6.00478,-3.83159 7.58829,-5.10238 5.81374,-4.66564 9.15061,-10.31595 9.15061,-15.49472 0,-3.12798 -1.36103,-6.71556 -3.76981,-9.93694 -1.15791,-1.54853 -4.17249,-4.57759 -5.9141,-5.94248 l -1.31445,-1.03014 8.27518,0.0474 8.27519,0.0474 1.12393,0.53061 c 1.4982,0.7073 2.94157,2.15067 3.64887,3.64887 l 0.53061,1.12393 0.0456,15.32517 c 0.0307,10.31127 -0.0117,15.59792 -0.12969,16.15884 -0.25124,1.19476 -0.94965,2.44926 -1.90471,3.42132 -1.06281,1.08172 -1.96659,1.60531 -3.43761,1.99152 -1.11484,0.29269 -2.05627,0.30929 -16.93618,0.2987 -8.85313,-0.006 -15.6105,-0.0731 -15.42425,-0.15258 z m 11.30412,-43.46507 c -1.71915,-1.72321 -2.88787,-3.96781 -3.19284,-6.13207 l -0.11093,-0.78723 h -2.05283 c -2.37285,0 -2.307,0.0661 -1.56001,-1.56488 1.29316,-2.82345 1.51668,-3.550663 0.96134,-3.127763 -0.25174,0.191703 -1.32834,0.580803 -2.69714,0.974773 -1.41461,0.40716 -4.84898,0.40036 -5.88348,-0.0117 -2.20916,-0.87985 -2.59928,-2.795162 -0.91283,-4.48161 1.03038,-1.030381 2.08023,-1.309543 4.47248,-1.189268 1.00465,0.05051 2.03173,0.170778 2.28239,0.26726 0.6651,0.255994 0.55811,-0.02405 -0.26772,-0.700751 -2.66645,-2.184955 -5.279,-5.541417 -6.82625,-8.769982 -1.77106,-3.695588 -2.78812,-9.261565 -2.39454,-13.104405 0.51708,-5.048696 2.54639,-8.889251 6.16946,-11.676022 3.6696,-2.822556 9.70303,-4.185125 14.60201,-3.29767 7.45144,1.349837 12.60802,5.66146 14.30522,11.961178 0.39637,1.47124 0.44678,1.955042 0.44905,4.309024 0.002,2.103593 -0.0715,2.994279 -0.35577,4.309024 -0.96547,4.465497 -2.2438,7.603595 -4.35455,10.689694 -1.1148,1.629938 -1.21041,1.742783 -3.1595,3.728963 l -1.46374,1.491586 1.86138,0.0022 c 2.08516,0.0024 2.83022,0.255882 3.66363,1.246336 0.55265,0.656785 0.65484,1.079137 0.5728,2.367481 -0.2041,3.205342 -3.62763,3.698032 -9.54294,1.373351 -0.5697,-0.22389 -1.03582,-0.378122 -1.03582,-0.342737 0,0.03538 0.59663,1.249558 1.32585,2.698168 0.72922,1.4486 1.32585,2.68196 1.32585,2.74078 0,0.0588 -1.72362,0.10696 -3.83027,0.10696 h -3.83027 l 0.11526,0.62149 c 0.43641,2.35304 2.39562,5.14156 4.71515,6.71104 0.42078,0.28472 0.40455,0.28896 -1.11036,0.29004 l -1.53738,0.001 z m 3.36313,-8.83901 c 0,-0.16683 -2.14619,-4.416979 -2.36134,-4.676217 -0.1126,-0.135675 -0.49982,-0.372009 -0.86049,-0.525185 l -0.65576,-0.278503 1.3173,-0.541686 c 5.75338,-2.365831 10.18999,-6.771024 12.72821,-12.638053 1.49632,-3.458721 2.1532,-6.437342 2.1501,-9.749546 -0.002,-2.439847 -0.1762,-3.461885 -0.9588,-5.634877 -0.69767,-1.937155 -2.98695,-4.773132 -4.92016,-6.095127 -6.19764,-4.238155 -15.01464,-4.245736 -20.71779,-0.01781 -4.22872,3.13488 -6.21352,8.357647 -5.53523,14.565257 0.8881,8.12769 4.99725,14.548499 12.19335,19.05288 0.90985,0.569521 1.65427,1.069035 1.65427,1.110032 0,0.041 -0.1597,0.424699 -0.35488,0.852672 -0.27927,0.61233 -1.31066,3.018203 -1.91441,4.465663 -0.0678,0.16252 0.81019,0.20716 4.07461,0.20716 2.28856,0 4.16102,-0.0435 4.16102,-0.0967 z m -12.09841,-3.482174 c 1.03119,-0.274044 2.48598,-0.896332 2.48598,-1.06338 0,-0.166111 -0.62349,-0.418937 -2.08391,-0.845033 -1.76679,-0.515485 -4.6889,-0.560168 -5.47585,-0.08373 -0.4911,0.297318 -1.05829,1.043772 -1.05829,1.392766 0,0.298526 0.87288,0.739133 1.72552,0.871001 1.09246,0.168958 3.24889,0.03603 4.40655,-0.271621 z m 20.71646,-0.379788 c 0.35141,-0.257249 0.41433,-0.436293 0.41433,-1.179059 0,-0.767506 -0.0577,-0.918852 -0.46702,-1.224433 -0.40589,-0.303042 -0.67705,-0.345609 -2.07165,-0.32521 -0.88254,0.01291 -1.97752,0.108626 -2.43328,0.212703 -1.34965,0.308204 -3.23177,0.895112 -3.23177,1.007776 0,0.138107 1.81371,0.873572 3.06604,1.243285 2.61091,0.770798 3.93116,0.844852 4.72335,0.264938 z"
         id="path6" /><path
         style="fill:#054372"
         d="m 88.966615,196.20594 c -0.377384,-0.15668 -0.703259,-0.45082 -0.862684,-0.77868 l -0.256206,-0.52689 0.755942,-0.0512 c 0.511214,-0.0346 0.848376,0.0324 1.041465,0.20717 0.368099,0.33312 1.560299,0.33943 1.83395,0.01 0.113516,-0.13678 0.245372,-0.59452 0.293013,-1.01719 l 0.08662,-0.7685 -0.535203,0.39569 c -1.076273,0.79573 -2.485385,0.41993 -3.242006,-0.86462 -0.460974,-0.78261 -0.456507,-2.47234 0.0089,-3.38017 0.640974,-1.25021 2.319095,-1.71791 3.204424,-0.8931 0.40577,0.37803 0.515603,0.39176 0.515603,0.0644 0,-0.17954 0.184146,-0.2486 0.662926,-0.2486 h 0.662927 v 3.30684 c 0,2.14542 -0.06716,3.45423 -0.19122,3.72652 -0.432048,0.94824 -2.594544,1.3932 -3.978488,0.81862 z m 2.031187,-3.37722 c 0.274414,0 0.81141,-1.06143 0.812048,-1.6051 0.002,-1.67663 -1.291389,-2.47135 -2.222025,-1.36536 -0.764226,0.90824 -0.505805,2.58236 0.458762,2.972 0.19534,0.0789 0.454487,0.11084 0.575883,0.071 0.121395,-0.0399 0.290295,-0.0725 0.375332,-0.0725 z m 43.791298,3.39746 c -0.54218,-0.24654 -1.04852,-0.82456 -1.04852,-1.19696 0,-0.31325 1.55864,-0.28172 1.82305,0.0369 0.28778,0.34674 1.37563,0.32026 1.70159,-0.0414 0.31931,-0.35432 0.52318,-1.11087 0.39169,-1.45354 -0.0827,-0.21542 -0.1451,-0.20461 -0.42296,0.0733 -0.80885,0.80886 -2.51575,0.47538 -3.20015,-0.62521 -0.52779,-0.84872 -0.54816,-3.08456 -0.0344,-3.77271 0.85904,-1.15059 2.09659,-1.46213 3.03934,-0.76513 0.59029,0.43643 0.67938,0.45232 0.67938,0.12124 0,-0.17954 0.18415,-0.2486 0.66293,-0.2486 h 0.66293 l -2.6e-4,3.19034 c -2.9e-4,3.56141 -0.13456,4.13384 -1.077,4.59154 -0.69179,0.33597 -2.52296,0.38803 -3.17764,0.0903 z m 2.71562,-4.3152 c 0.28872,-0.82452 0.14793,-1.64879 -0.37009,-2.16681 -0.50819,-0.5082 -1.14644,-0.50398 -1.6614,0.011 -0.33952,0.33952 -0.40679,0.56771 -0.40679,1.37983 0,0.98961 0.29456,1.50308 0.99439,1.73335 0.52333,0.17219 1.20712,-0.28118 1.44389,-0.95735 z m -54.726627,2.16024 c -1.240457,-0.43886 -1.859685,-1.67532 -1.686334,-3.36725 0.160973,-1.57112 1.262614,-2.56309 2.846456,-2.56309 1.726616,0 2.900304,1.21184 2.900304,2.99459 0,2.35982 -1.868916,3.71108 -4.060426,2.93575 z m 2.020972,-1.31102 c 0.420883,-0.36203 0.465004,-0.50228 0.465004,-1.47823 0,-0.91306 -0.06156,-1.14378 -0.401786,-1.50594 -0.926654,-0.98637 -2.332787,-0.18261 -2.332787,1.33345 0,1.7204 1.18585,2.5829 2.269569,1.65072 z m 14.638328,1.34723 c -0.752026,-0.38051 -1.063672,-1.58314 -0.647146,-2.49732 0.220705,-0.48439 1.081999,-0.87558 2.218333,-1.00752 0.9378,-0.1089 1.32759,-0.45501 1.065,-0.94567 -0.24277,-0.45361 -1.56472,-0.4369 -1.8108,0.0229 -0.13282,0.24818 -0.347008,0.33146 -0.852451,0.33146 -0.653341,0 -0.671389,-0.0146 -0.560906,-0.45483 0.146418,-0.58338 0.357337,-0.83055 0.986962,-1.1566 0.975725,-0.50527 3.067165,-0.21348 3.523355,0.49156 0.0742,0.11459 0.17473,1.21517 0.22351,2.44572 0.0488,1.23056 0.14998,2.3679 0.22489,2.52741 0.11911,0.25363 0.0418,0.29003 -0.61615,0.29003 -0.6068,0 -0.77271,-0.0641 -0.85756,-0.33146 -0.10431,-0.32865 -0.41433,-0.46678 -0.41433,-0.18462 0,0.22689 -1.07174,0.6821 -1.5995,0.67937 -0.25968,-0.001 -0.657123,-0.096 -0.883207,-0.21043 z m 2.381237,-1.25816 c 0.15476,-0.171 0.3266,-0.58962 0.38188,-0.93026 l 0.10051,-0.61937 -0.72909,0.11101 c -0.401,0.061 -0.8989,0.19504 -1.10645,0.29774 -0.45435,0.22483 -0.649084,0.86502 -0.36664,1.20535 0.29564,0.35623 1.37571,0.31574 1.71979,-0.0645 z m 43.9375,1.22402 c -0.86716,-0.3041 -1.77057,-1.32703 -2.0306,-2.29927 -0.47022,-1.75808 -0.11048,-3.80396 0.8245,-4.68911 0.84883,-0.80359 1.25793,-0.94706 2.70736,-0.9495 1.09832,-0.002 1.4427,0.064 1.93899,0.37071 0.70842,0.43783 1.2831,1.29277 1.2831,1.90884 0,0.39794 -0.0578,0.4362 -0.65867,0.4362 -0.56121,0 -0.69594,-0.0721 -0.91058,-0.48714 -0.35286,-0.68236 -0.88121,-1.00445 -1.6477,-1.00445 -1.36019,0 -2.25219,1.13464 -2.25219,2.86481 0,1.48146 1.02383,2.77007 2.20089,2.77007 0.65777,0 1.58682,-0.59201 1.71205,-1.09094 0.0872,-0.34762 0.19688,-0.40064 0.82838,-0.40064 0.65365,0 0.72782,0.0397 0.72782,0.38982 0,0.46862 -0.58407,1.36587 -1.17295,1.80188 -0.83098,0.61527 -2.3989,0.78252 -3.5504,0.37872 z m 7.87225,0.13432 c -0.57365,-0.11494 -1.44272,-0.80368 -1.74035,-1.37923 -0.32106,-0.62085 -0.32297,-2.43248 -0.003,-3.19738 0.8049,-1.92639 4.09537,-2.00455 5.05674,-0.1201 0.41888,0.82108 0.44931,2.44276 0.0612,3.26069 -0.52657,1.10967 -1.95941,1.71947 -3.37418,1.43602 z m 1.54811,-1.38778 c 0.57848,-0.45503 0.83964,-1.44518 0.60804,-2.30529 -0.4146,-1.53971 -2.22238,-1.57317 -2.64324,-0.0489 -0.4993,1.80829 0.80749,3.31992 2.0352,2.3542 z m 14.57902,1.17783 c -0.95628,-0.43416 -1.42575,-1.36554 -1.42575,-2.82853 0,-1.64174 0.64639,-2.61434 1.97099,-2.96571 0.79758,-0.21156 1.9748,0.0668 2.48787,0.58822 0.46892,0.47657 0.8933,1.4892 0.8933,2.13153 v 0.56918 l -1.94735,0.0467 -1.94735,0.0467 0.0422,0.41433 c 0.0486,0.47761 0.74733,1.16012 1.18773,1.16012 0.16493,0 0.4895,-0.14916 0.72126,-0.33146 0.44279,-0.3483 1.77782,-0.47275 1.77782,-0.16573 0,0.0911 -0.28666,0.45239 -0.63703,0.80276 -0.90679,0.90679 -1.91846,1.07906 -3.12364,0.53191 z m 2.43482,-3.5497 c 0,-0.12444 -0.15457,-0.42275 -0.34349,-0.66293 -0.62309,-0.79213 -1.73797,-0.51152 -2.05118,0.51628 -0.11089,0.36387 -0.0833,0.3729 1.14052,0.3729 0.94925,0 1.25415,-0.055 1.25415,-0.22625 z m 3.70127,3.69049 c -0.59988,-0.17368 -1.38103,-1.01543 -1.38103,-1.48818 0,-0.26729 0.12041,-0.31875 0.7458,-0.31875 0.54447,0 0.74579,0.0655 0.74579,0.24277 0,0.54673 1.58574,0.82293 1.98217,0.34526 0.41911,-0.50499 0.12528,-0.79083 -1.20834,-1.17548 -1.56682,-0.45191 -2.09968,-0.88964 -2.09968,-1.7248 0,-1.13742 0.94795,-1.87839 2.40311,-1.87839 1.01614,0 1.81469,0.3846 2.1517,1.03632 0.3779,0.73076 0.31804,0.83408 -0.48322,0.83408 -0.57357,0 -0.75632,-0.0683 -0.83356,-0.31173 -0.17962,-0.56592 -1.61146,-0.61055 -1.82394,-0.0568 -0.15438,0.40231 0.21792,0.63351 1.52093,0.94448 1.51301,0.3611 2.03693,0.80705 2.03693,1.73381 0,1.49279 -1.82626,2.37633 -3.75666,1.81745 z M 69.933889,190.17701 v -3.97756 l 1.864481,9.3e-4 c 2.216798,0.001 2.946228,0.17393 3.497105,0.82861 0.801155,0.95212 0.775177,2.60029 -0.05566,3.53143 -0.456467,0.51158 -0.52226,0.53071 -2.101347,0.61098 l -1.630125,0.0829 -0.04789,1.45015 -0.04788,1.45015 h -0.73934 -0.73934 z m 4.07702,-0.51097 c 0.322915,-0.26799 0.295385,-1.46454 -0.04228,-1.83765 -0.214832,-0.23739 -0.520174,-0.30309 -1.408719,-0.30309 h -1.134435 v 1.14632 c 0,0.63047 0.07372,1.17117 0.163819,1.20155 0.376629,0.12701 2.207721,-0.0296 2.421615,-0.20713 z m 3.049442,1.5787 v -2.90984 l 0.704359,0.051 c 0.483618,0.035 0.709434,0.12887 0.72055,0.29956 0.03067,0.47097 0.06826,0.47011 0.551122,-0.0127 0.284782,-0.28478 0.660467,-0.48445 0.911524,-0.48445 0.395679,0 0.427078,0.0548 0.427078,0.74579 0,0.71182 -0.02182,0.7458 -0.478834,0.7458 -0.263359,0 -0.654901,0.14241 -0.870092,0.31647 -0.363568,0.29408 -0.395198,0.45242 -0.446951,2.23738 l -0.0557,1.9209 h -0.73153 -0.731531 z m 17.678045,2.79934 c -0.06077,-0.0608 -0.110488,-1.37019 -0.110488,-2.90983 v -2.79935 l 0.70436,0.051 c 0.483618,0.035 0.709433,0.12887 0.720549,0.29956 0.0337,0.51753 0.07907,0.51898 0.547498,0.0175 0.299319,-0.32042 0.643407,-0.51472 0.911525,-0.51472 0.399973,0 0.430702,0.0532 0.430702,0.74579 0,0.72065 -0.01702,0.7458 -0.504729,0.7458 -0.314909,0 -0.657717,0.15299 -0.911524,0.40679 -0.382801,0.3828 -0.406796,0.51478 -0.406796,2.23738 v 1.83058 h -0.635305 c -0.349417,0 -0.685024,-0.0497 -0.745792,-0.11049 z M 105.069,191.25427 v -2.90031 h 0.66293 c 0.47878,0 0.66293,0.0691 0.66293,0.2486 0,0.32901 0.11343,0.3138 0.6177,-0.0829 0.55395,-0.43573 1.64268,-0.43573 2.19974,0 0.51985,0.40664 0.59794,0.40664 1.11489,0 0.7913,-0.62243 2.26376,-0.30445 2.66467,0.57543 0.12328,0.27059 0.198,1.30714 0.198,2.74701 v 2.31244 h -0.66293 -0.66293 v -1.97522 c 0,-1.08638 -0.0475,-2.09891 -0.10547,-2.25008 -0.23651,-0.61633 -1.34921,-0.62741 -1.75647,-0.0175 -0.067,0.1003 -0.1229,1.09595 -0.1243,2.21257 l -0.003,2.03021 h -0.74579 -0.74579 v -2.15069 c 0,-2.05375 -0.017,-2.16181 -0.37662,-2.39746 -0.21322,-0.13971 -0.53965,-0.20413 -0.75242,-0.14848 -0.65335,0.17085 -0.85974,0.85871 -0.85974,2.86535 v 1.83128 h -0.66293 -0.66293 z m 9.61244,0 v -2.90031 h 0.66293 c 0.47878,0 0.66292,0.0691 0.66292,0.2486 0,0.329 0.16234,0.3087 0.66293,-0.0829 0.5918,-0.46291 1.61137,-0.43287 2.23468,0.0658 l 0.4945,0.39565 0.47117,-0.39647 c 0.6967,-0.58623 1.73805,-0.54988 2.417,0.0844 l 0.51472,0.48083 v 2.50234 2.50235 h -0.66292 -0.66293 l -0.003,-2.03021 c -10e-4,-1.11662 -0.0573,-2.11227 -0.1243,-2.21257 -0.25455,-0.38123 -0.85473,-0.58196 -1.19522,-0.39974 -0.55794,0.29861 -0.66672,0.74331 -0.66672,2.72571 v 1.91681 h -0.74579 -0.7458 v -2.15069 c 0,-2.05375 -0.017,-2.16181 -0.37661,-2.39746 -0.21323,-0.13971 -0.53965,-0.20413 -0.75243,-0.14848 -0.65335,0.17085 -0.85974,0.85871 -0.85974,2.86535 v 1.83128 h -0.66292 -0.66293 z m 9.61244,0 v -2.90031 h 0.74579 0.74579 v 2.90031 2.9003 h -0.74579 -0.74579 z m 2.98317,0 v -2.90031 h 0.76352 c 0.6106,0 0.74442,0.0498 0.66813,0.2486 -0.12521,0.32629 0.20555,0.31817 0.57265,-0.014 0.39633,-0.35868 1.52941,-0.48705 2.12423,-0.24067 0.82085,0.34001 1.00915,1.00298 1.00915,3.55296 v 2.25376 h -0.74579 -0.7458 v -2.12882 c 0,-1.8519 -0.0394,-2.16451 -0.30308,-2.40311 -0.4076,-0.36888 -0.88767,-0.34539 -1.41475,0.0692 -0.4299,0.33815 -0.43668,0.37547 -0.43668,2.40311 v 2.05961 h -0.74579 -0.74579 z m 31.32328,0 v -2.90031 h 0.66293 c 0.47878,0 0.66293,0.0691 0.66293,0.2486 0,0.32016 0.05,0.3143 0.70035,-0.0823 0.91472,-0.5577 2.01458,-0.39526 2.65203,0.39168 0.24207,0.29884 0.28691,0.73292 0.29003,2.80757 l 0.004,2.45407 -0.70436,-0.051 -0.70436,-0.051 -0.0337,-1.74019 c -0.0185,-0.9571 -0.0371,-1.90266 -0.0414,-2.10124 -0.0189,-0.87991 -1.06703,-1.16359 -1.75549,-0.47513 -0.38687,0.38688 -0.40679,0.50454 -0.40679,2.40311 v 1.99631 h -0.66293 -0.66293 z m 6.96073,2.56884 c -0.2961,-0.29611 -0.33146,-0.55244 -0.33146,-2.40311 v -2.07165 h -0.41433 c -0.34988,0 -0.41433,-0.0773 -0.41433,-0.49719 0,-0.41986 0.0645,-0.4972 0.41433,-0.4972 0.38734,0 0.41433,-0.0546 0.41433,-0.83818 v -0.83819 l 0.69256,0.051 0.69256,0.051 0.0118,0.74579 c 0.0109,0.68698 0.0478,0.74993 0.46756,0.79824 0.37903,0.0436 0.45576,0.13244 0.45576,0.52762 0,0.39517 -0.0767,0.48401 -0.45576,0.52762 -0.45347,0.0522 -0.456,0.0596 -0.50326,1.47586 -0.0543,1.62882 0.12865,2.30554 0.62346,2.30554 0.26236,0 0.33556,0.10846 0.33556,0.4972 0,0.48614 -0.0184,0.49719 -0.82865,0.49719 -0.60769,0 -0.91705,-0.0884 -1.16013,-0.33146 z m 15.74451,0 c -0.2961,-0.29611 -0.33146,-0.55244 -0.33146,-2.40311 v -2.07165 h -0.41433 c -0.34988,0 -0.41433,-0.0773 -0.41433,-0.49719 0,-0.41986 0.0644,-0.4972 0.41433,-0.4972 0.38671,0 0.41433,-0.0552 0.41433,-0.82866 v -0.82865 h 0.65385 0.65384 l 0.0505,0.78722 c 0.0465,0.7253 0.0871,0.79143 0.51613,0.84062 0.39685,0.0455 0.45804,0.11893 0.41432,0.49719 -0.0399,0.34524 -0.1525,0.45545 -0.50704,0.49625 l -0.45577,0.0524 v 1.69603 c 0,1.74937 0.1145,2.09378 0.69608,2.09378 0.22097,0 0.29831,0.1289 0.29831,0.4972 0,0.48614 -0.0184,0.49719 -0.82866,0.49719 -0.60768,0 -0.91704,-0.0884 -1.16012,-0.33146 z m -56.72166,-6.41205 c -0.43705,-0.11421 -0.37715,-0.85839 0.0829,-1.02966 0.78144,-0.29094 1.6471,0.45834 1.04558,0.90501 -0.32138,0.23865 -0.58203,0.26744 -1.12844,0.12465 z m 40.9726,-2.98562 c -0.54331,-0.37446 -0.8124,-0.73097 -0.81883,-1.08486 -0.004,-0.23356 0.13833,-0.29003 0.73228,-0.29003 0.53012,0 0.78321,0.0816 0.89987,0.29003 0.19067,0.34071 1.53918,0.41148 1.85339,0.0973 0.21096,-0.21096 0.43261,-1.71316 0.25277,-1.71316 -0.0612,0 -0.27145,0.14915 -0.46713,0.33146 -0.25283,0.23554 -0.58487,0.33146 -1.14743,0.33146 -0.64615,0 -0.89744,-0.0929 -1.36735,-0.50548 -0.74972,-0.65826 -0.98843,-1.41861 -0.88764,-2.82734 0.11715,-1.63732 0.73175,-2.40452 2.067,-2.58026 0.48962,-0.0644 0.76461,0.0107 1.2493,0.34139 0.57105,0.38961 0.69485,0.40141 0.64112,0.0611 -0.0108,-0.0684 0.27869,-0.1243 0.6433,-0.1243 h 0.66293 v 3.24 c 0,3.57514 -0.0944,4.00111 -0.98897,4.46372 -0.69537,0.3596 -2.78617,0.34009 -3.32461,-0.031 z m 2.55866,-3.70785 c 0.74438,-0.88464 0.50072,-2.54296 -0.42128,-2.86721 -1.0816,-0.38038 -1.90876,0.48649 -1.75615,1.84045 0.16402,1.45514 1.34742,2.01317 2.17743,1.02676 z m -87.355254,1.72038 c -0.675555,-0.13151 -0.795261,-0.49589 -0.882127,-2.68521 -0.07375,-1.85867 -0.114781,-2.08596 -0.372896,-2.06547 -0.437626,0.0347 -0.399592,-0.86724 0.04143,-0.98257 0.270779,-0.0708 0.331463,-0.22606 0.331463,-0.84798 v -0.76131 h 0.736712 0.736712 l 0.05051,0.78722 c 0.04311,0.6718 0.105193,0.79499 0.42341,0.84019 0.283838,0.0403 0.372897,0.1622 0.372897,0.51035 0,0.36775 -0.07309,0.45482 -0.372897,0.44424 -0.364905,-0.0129 -0.372896,0.0259 -0.372896,1.80989 0,1.76439 0.012,1.82475 0.372896,1.87601 0.286156,0.0406 0.372897,0.1618 0.372897,0.52089 0,0.62028 -0.368144,0.76203 -1.438117,0.55375 z m 3.461041,-0.23976 c -0.813818,-0.52111 -1.194266,-1.40118 -1.194266,-2.76265 0,-0.91169 0.07526,-1.25279 0.372896,-1.69011 0.869242,-1.27718 2.177541,-1.64345 3.530636,-0.98843 0.864287,0.4184 1.328106,1.19791 1.427325,2.39883 l 0.05477,0.66293 -1.947021,0.0467 c -1.760582,0.0422 -1.947021,0.0758 -1.947021,0.35055 0,0.16712 0.154571,0.50036 0.343492,0.74053 0.428864,0.54521 1.282906,0.59721 1.728154,0.10522 0.41103,-0.45418 1.574451,-0.47207 1.574451,-0.0242 0,0.39292 -0.68884,1.13937 -1.247428,1.35174 -0.75685,0.28775 -2.096443,0.1928 -2.695988,-0.1911 z m 2.596919,-3.77613 c -0.307851,-0.8831 -1.688008,-1.01085 -2.123792,-0.19658 -0.326531,0.61013 -0.21532,0.68176 1.058558,0.68176 h 1.234367 z m 14.098624,4.02324 c -0.37463,-0.10112 -0.81945,-0.93797 -0.81945,-1.54165 0,-1.21906 0.69958,-1.78769 2.43285,-1.97748 0.62435,-0.0684 0.98961,-0.19706 1.11207,-0.39183 0.29465,-0.46864 -0.0724,-0.86198 -0.8589,-0.92058 -0.5732,-0.0427 -0.72052,0.0148 -0.95514,0.3729 -0.22083,0.33703 -0.4124,0.42338 -0.93925,0.42338 -0.63739,0 -0.65789,-0.0168 -0.55508,-0.45576 0.33213,-1.41805 2.64216,-1.98221 4.21066,-1.02835 l 0.52474,0.31912 v 2.20294 c 0,1.72559 0.0559,2.28275 0.258,2.57127 0.25619,0.36577 0.25227,0.36834 -0.56233,0.36834 -0.5951,0 -0.84794,-0.072 -0.92091,-0.26212 -0.0886,-0.23084 -0.16721,-0.22095 -0.65879,0.0829 -0.52354,0.32356 -1.55026,0.43081 -2.26847,0.23695 z m 2.41985,-1.29315 c 0.27784,-0.27784 0.4068,-0.59176 0.4068,-0.99025 0,-0.56852 -0.0138,-0.58086 -0.53863,-0.48226 -1.4831,0.27863 -2.10499,0.91581 -1.52227,1.55972 0.40382,0.44622 1.16058,0.40632 1.6541,-0.0872 z m 4.34286,1.28247 c -0.68946,-0.10444 -0.85806,-0.59753 -0.95106,-2.78159 -0.0751,-1.7631 -0.11761,-1.98617 -0.37473,-1.96576 -0.2146,0.017 -0.29003,-0.1015 -0.29003,-0.45576 0,-0.3683 0.0765,-0.47879 0.33147,-0.47879 0.28727,0 0.33146,-0.11048 0.33146,-0.82865 v -0.82866 h 0.73671 0.73671 l 0.0505,0.78722 c 0.0465,0.7253 0.0871,0.79143 0.51613,0.84062 0.39627,0.0454 0.45798,0.11914 0.41433,0.4949 -0.0402,0.346 -0.14091,0.44199 -0.46562,0.4438 l -0.41433,0.002 v 1.82305 1.82305 l 0.45576,0.0524 c 0.37693,0.0434 0.45577,0.1332 0.45577,0.5193 0,0.44497 -0.38359,0.71604 -0.91153,0.64415 -0.0911,-0.0124 -0.37085,-0.0536 -0.62156,-0.0916 z m 6.514,-0.24061 c -0.91171,-0.61876 -1.22405,-1.31221 -1.21512,-2.69775 0.0114,-1.77496 0.43444,-2.41312 1.92294,-2.90109 1.29724,-0.42527 2.90248,0.18881 3.45998,1.32359 0.34582,0.70392 0.38251,2.29318 0.0698,3.02401 -0.1255,0.29332 -0.46468,0.75578 -0.75373,1.02768 -0.4649,0.43733 -0.66328,0.50112 -1.71916,0.55277 -1.03473,0.0506 -1.26964,0.007 -1.76471,-0.32921 z m 2.47279,-1.12805 c 0.42417,-0.42416 0.56246,-1.00518 0.45859,-1.92671 -0.13382,-1.18727 -0.79553,-1.67243 -1.82669,-1.33932 -1.08132,0.34931 -1.29749,2.62463 -0.31991,3.36734 0.43032,0.32694 1.31273,0.27398 1.68801,-0.10131 z m 10.16004,1.2441 c -0.40933,-0.29583 -0.76674,-1.37597 -0.61283,-1.85206 0.27584,-0.8532 0.48614,-1.06604 1.28886,-1.30442 0.45624,-0.13549 1.03363,-0.24634 1.28309,-0.24634 0.69208,0 0.97786,-0.16502 0.97786,-0.56465 0,-0.51383 -0.30957,-0.76121 -0.95258,-0.76121 -0.37893,0 -0.67656,0.13136 -0.93882,0.41433 -0.25227,0.27221 -0.56223,0.41433 -0.90361,0.41433 -0.44061,0 -0.51962,-0.0616 -0.51962,-0.40509 0,-1.0864 1.59335,-1.79911 3.21223,-1.43682 1.4482,0.3241 1.59399,0.60929 1.59399,3.11815 0,1.1331 0.0772,2.20444 0.17156,2.38075 0.15906,0.29721 0.11075,0.32057 -0.66293,0.32057 -0.63128,0 -0.83449,-0.0605 -0.83449,-0.2486 0,-0.32305 -0.14997,-0.31422 -0.53178,0.0313 -0.44161,0.39965 -2.08751,0.48912 -2.57093,0.13975 z m 2.5003,-1.09461 c 0.33511,-0.26359 0.43668,-0.49022 0.43668,-0.9743 v -0.6308 l -0.78722,0.16408 c -0.91619,0.19097 -1.36729,0.5312 -1.36729,1.03126 0,0.78769 0.94945,1.01417 1.71783,0.40976 z m 10.80024,1.21669 c -0.6085,-0.15439 -1.38454,-0.88819 -1.76547,-1.66938 -0.31164,-0.63909 -0.37852,-1.04501 -0.37399,-2.26985 0.008,-2.10583 0.58635,-3.21078 2.00451,-3.82823 0.69633,-0.30318 2.5019,-0.29741 3.23845,0.0103 0.58939,0.24626 1.44693,1.11436 1.45106,1.46893 0.001,0.10694 0.0472,0.36225 0.10219,0.56734 0.0931,0.34729 0.0474,0.3729 -0.66519,0.3729 -0.52491,0 -0.76512,-0.069 -0.76512,-0.21971 0,-0.30347 -0.64623,-0.8806 -1.23648,-1.10428 -0.39075,-0.14808 -0.63414,-0.13117 -1.19495,0.083 -0.85293,0.32574 -1.31583,1.00605 -1.46871,2.15853 -0.14625,1.10248 0.13544,2.07606 0.78418,2.71033 0.43783,0.42806 0.6585,0.51541 1.30202,0.51541 0.83651,0 1.54512,-0.40849 1.73245,-0.99871 0.0828,-0.26088 0.25262,-0.32714 0.83845,-0.32714 0.40404,0 0.73462,0.0697 0.73462,0.15494 0,0.72612 -0.92129,1.90275 -1.77629,2.26858 -0.50977,0.21811 -2.25374,0.28154 -2.94173,0.10699 z m 7.28687,-0.0378 c -1.01007,-0.42055 -1.67135,-1.83744 -1.52398,-3.26533 0.1193,-1.15589 0.6139,-1.9357 1.49969,-2.36451 0.7987,-0.38664 1.45288,-0.43101 2.27837,-0.15453 1.2442,0.41673 1.80792,1.35322 1.80362,2.99632 -0.005,1.93461 -0.985,2.95687 -2.81472,2.9363 -0.50133,-0.006 -1.06068,-0.0724 -1.24298,-0.14825 z m 1.93084,-1.18018 c 0.18403,-0.0985 0.44015,-0.4317 0.56916,-0.74047 0.676,-1.61789 -0.35563,-3.20821 -1.71136,-2.63817 -0.65267,0.27443 -0.87151,0.68853 -0.87151,1.64913 0,1.54216 0.90747,2.32155 2.01371,1.72951 z m 10.5819,1.22215 c -0.92281,-0.33734 -1.49159,-1.4721 -1.49159,-2.97583 0,-1.43123 0.43466,-2.28872 1.37701,-2.71655 0.91565,-0.41571 1.54455,-0.40272 2.43331,0.0503 0.86992,0.44337 1.2743,1.10542 1.35288,2.21492 l 0.0573,0.80968 -1.94918,0.0467 -1.94918,0.0467 0.10219,0.45048 c 0.2188,0.96456 1.3917,1.36338 2.05599,0.69909 0.22097,-0.22098 0.55244,-0.33146 0.99439,-0.33146 0.36461,0 0.66292,0.0471 0.66292,0.10473 0,0.33795 -0.75105,1.22517 -1.22921,1.45207 -0.53833,0.25546 -1.89681,0.33932 -2.41688,0.1492 z m 2.13764,-4.0034 c -0.21922,-0.62886 -0.87796,-0.93296 -1.48042,-0.68341 -0.36711,0.15206 -0.82295,0.75177 -0.82295,1.08269 0,0.0413 0.55546,0.0751 1.23436,0.0751 h 1.23437 z m 12.48161,3.74566 c -0.77971,-0.83496 -0.61572,-2.3852 0.30254,-2.86006 0.25105,-0.12982 0.78125,-0.28016 1.17822,-0.33408 1.42266,-0.19326 1.46754,-0.21545 1.46754,-0.72553 0,-0.80399 -1.23246,-0.97633 -1.80221,-0.25201 -0.261,0.33181 -0.45521,0.41391 -0.88212,0.3729 -0.47218,-0.0454 -0.54115,-0.10871 -0.50169,-0.46083 0.14185,-1.266 2.21211,-1.89646 3.7718,-1.14862 0.76478,0.36669 0.90066,0.83895 0.90337,3.13959 0.002,1.39378 0.068,2.14555 0.20132,2.27881 0.15468,0.15469 0.007,0.19888 -0.66293,0.19888 -0.65556,0 -0.8618,-0.0595 -0.8618,-0.2486 0,-0.32305 -0.14998,-0.31422 -0.53179,0.0313 -0.188,0.17014 -0.68056,0.30631 -1.25604,0.34724 -0.83775,0.0596 -0.99043,0.0206 -1.32621,-0.339 z m 2.53749,-0.99492 c 0.29844,-0.25671 0.44538,-0.55784 0.465,-0.95295 0.0261,-0.52539 -0.009,-0.57305 -0.38565,-0.52678 -1.43131,0.17575 -2.04788,0.74144 -1.58241,1.45183 0.3348,0.51096 0.92865,0.52198 1.50306,0.0279 z m 4.30551,1.24978 c -0.69738,-0.17142 -0.74579,-0.33688 -0.74579,-2.54892 v -2.13106 l -0.41433,-0.10399 c -0.55608,-0.13957 -0.58781,-0.84902 -0.0414,-0.92662 0.31897,-0.0453 0.38026,-0.16817 0.4238,-0.84963 l 0.0509,-0.79666 0.61203,0.0509 c 0.57316,0.0476 0.61375,0.0877 0.63918,0.63093 0.0149,0.31904 0.0336,0.67329 0.0414,0.78723 0.008,0.11394 0.20073,0.20716 0.42861,0.20716 0.34691,0 0.41433,0.0784 0.41433,0.48168 0,0.39049 -0.0592,0.4662 -0.31276,0.3999 -0.46276,-0.12102 -0.53676,0.12544 -0.55032,1.83306 -0.0134,1.68491 0.0543,1.92585 0.5414,1.92585 0.24429,0 0.32168,0.11535 0.32168,0.47947 0,0.62807 -0.43322,0.80051 -1.40872,0.56073 z m 3.63258,-0.0406 c -0.53147,-0.215 -1.2041,-1.11007 -1.32716,-1.76607 -0.16787,-0.89481 0.0196,-2.60629 0.3388,-3.09349 0.34151,-0.52121 1.49923,-1.11194 2.17921,-1.11194 0.27094,0 0.82106,0.1678 1.22249,0.3729 0.84755,0.43302 1.28247,1.16362 1.35655,2.27881 l 0.0496,0.74579 -1.81782,0.0474 c -0.99979,0.0261 -1.88112,0.11074 -1.95849,0.18812 -0.18304,0.18304 0.29379,1.10281 0.64074,1.23594 0.50668,0.19443 1.07025,0.10253 1.40129,-0.22851 0.22098,-0.22098 0.55244,-0.33146 0.99439,-0.33146 0.36461,0 0.66293,0.0471 0.66293,0.10473 0,0.33795 -0.75105,1.22517 -1.22922,1.45207 -0.59478,0.28225 -1.93726,0.33869 -2.51326,0.10567 z m 2.41662,-3.56059 c 0,-0.0413 -0.0848,-0.26131 -0.18857,-0.48895 -0.3805,-0.83511 -1.72762,-0.83665 -2.10772,-0.002 -0.10432,0.22897 -0.18968,0.45008 -0.18968,0.49137 0,0.0413 0.55934,0.0751 1.24299,0.0751 0.68364,0 1.24298,-0.0338 1.24298,-0.0751 z M 69.933889,178.49293 v -3.8947 h 0.745792 0.745793 v 3.8947 3.89469 h -0.745793 -0.745792 z m 3.148902,1.07725 v -2.81744 h 0.745792 c 0.569532,0 0.745793,0.062 0.745793,0.26212 0,0.21979 0.09527,0.20323 0.590055,-0.10256 0.812468,-0.50213 2.218788,-0.40623 2.710872,0.18486 0.301151,0.36175 0.334686,0.64274 0.339656,2.84592 l 0.0055,2.44454 h -0.662926 -0.662927 l -0.0024,-1.86448 c -0.0029,-2.2103 -0.165179,-2.66864 -0.972428,-2.74643 -0.3959,-0.0381 -0.665528,0.0524 -0.949178,0.31892 -0.374453,0.35179 -0.396194,0.47976 -0.396194,2.3321 v 1.95989 h -0.745793 -0.745792 z m 16.573167,0 v -2.81744 h 0.674095 c 0.598674,0 0.662324,0.0371 0.568892,0.33147 -0.127508,0.40174 0.122498,0.43458 0.43547,0.0572 0.196658,-0.23713 1.123743,-0.72012 1.382256,-0.72012 0.0485,0 0.08819,0.33561 0.08819,0.74579 0,0.67873 -0.03612,0.7458 -0.401614,0.7458 -0.220887,0 -0.631073,0.19307 -0.911524,0.42906 l -0.509911,0.42906 v 1.80832 1.80831 h -0.662926 -0.662927 z m 4.143292,0 v -2.81744 h 0.755573 c 0.424124,0 0.713746,0.0677 0.660223,0.15428 -0.183419,0.29678 0.265588,0.37336 0.478874,0.0817 0.152541,-0.20861 0.509701,-0.31573 1.225274,-0.36749 0.948978,-0.0686 1.040404,-0.0426 1.513855,0.43082 l 0.503883,0.50389 v 2.41585 2.41586 h -0.745793 -0.745793 v -2.14868 c 0,-1.95472 -0.02894,-2.16417 -0.320567,-2.32024 -0.503703,-0.26958 -1.14081,-0.20177 -1.502481,0.1599 -0.294634,0.29463 -0.331463,0.55244 -0.331463,2.32024 v 1.98878 H 94.545042 93.79925 Z m 16.40744,0 v -2.81744 h 0.74579 0.74579 v 2.81744 2.81744 h -0.74579 -0.74579 z m 9.61243,0 v -2.81744 h 0.74579 c 0.56954,0 0.7458,0.062 0.7458,0.26212 0,0.21979 0.0953,0.20323 0.59005,-0.10256 0.47908,-0.29609 0.76358,-0.35028 1.51266,-0.28817 1.46925,0.12185 1.7046,0.69345 1.70768,4.14761 l 0.001,1.61588 h -0.7458 -0.74579 l -0.002,-1.86448 c -0.003,-2.24866 -0.15981,-2.67132 -1.01819,-2.74344 -0.48552,-0.0408 -0.66491,0.0339 -0.94914,0.39524 -0.31011,0.39425 -0.35047,0.66245 -0.35047,2.32912 v 1.88356 h -0.7458 -0.74579 z m 12.92707,-1.07725 v -3.8947 h 0.7458 0.74579 v 3.8947 3.89469 h -0.74579 -0.7458 z m 20.05354,0 v -3.8947 h 0.66292 0.66293 v 3.8947 3.89469 h -0.66293 -0.66292 z m 2.98317,0 v -3.8947 h 0.66292 0.66293 v 3.8947 3.89469 h -0.66293 -0.66292 z m 15.7445,1.07725 v -2.81744 h 0.66293 0.66293 v 2.81744 2.81744 h -0.66293 -0.66293 z m -61.11863,-3.90446 c -0.4361,-0.30545 -0.4564,-0.45803 -0.10738,-0.80705 0.37347,-0.37347 1.0037,-0.32171 1.30406,0.1071 0.20491,0.29256 0.21528,0.40727 0.0508,0.56228 -0.36866,0.34747 -0.86913,0.40271 -1.24751,0.13767 z m 61.34276,0.0937 c -0.50824,-0.20506 -0.57677,-0.39431 -0.29068,-0.80275 0.29439,-0.42031 0.9276,-0.46815 1.2977,-0.098 0.34911,0.3491 0.32873,0.50159 -0.1079,0.80742 -0.41492,0.29062 -0.41121,0.29023 -0.89912,0.0934 z"
         id="path5" /></g></g></svg>
