<?xml version="1.0" encoding="UTF-8" standalone="no"?>
<!-- Created with Inkscape (http://www.inkscape.org/) -->

<svg
   width="188.99884mm"
   height="65.036613mm"
   viewBox="0 0 188.99884 65.036613"
   version="1.1"
   id="svg1"
   xml:space="preserve"
   xmlns="http://www.w3.org/2000/svg"
   xmlns:svg="http://www.w3.org/2000/svg"><defs
     id="defs1"><linearGradient
       id="swatch28690"><stop
         style="stop-color:#0d2130;stop-opacity:1;"
         offset="0"
         id="stop28690" /></linearGradient></defs><g
     id="layer1"
     transform="translate(-9.3928055,-118.95974)"><g
       id="g28717"
       transform="translate(7.8577236,43.778748)"><path
         style="display:inline;fill:#f7e90e"
         d="m 85.591052,129.94577 c -5.008289,-0.19235 -11.430937,-0.63957 -15.213541,-1.05934 -1.236927,-0.13726 -4.034896,-0.43361 -6.217708,-0.65856 -4.499462,-0.46367 -7.373387,-0.88964 -13.626041,-2.01962 -5.340514,-0.96514 -12.850084,-2.64662 -15.213542,-3.40649 -0.436562,-0.14036 -1.982116,-0.6219 -3.434563,-1.0701 -4.329165,-1.33589 -7.481775,-2.5909 -11.050904,-4.39921 -5.407398,-2.73968 -8.924397,-5.67694 -10.402769,-8.68797 -1.8736917,-3.8162 -0.377218,-8.20934 3.968897,-11.651346 7.139228,-5.65407 19.469847,-9.940828 38.381839,-13.343504 12.329298,-2.218308 28.883791,-3.439893 46.566665,-3.436237 11.460415,0.0024 16.543825,0.187321 25.532295,0.928949 6.16826,0.508937 6.34611,0.544413 6.36478,1.269555 0.042,1.63312 1.74607,4.327081 3.19392,5.049361 2.30133,1.148054 5.09025,-0.371194 6.05661,-3.299301 0.39926,-1.209757 0.57128,-1.24285 3.51199,-0.675631 1.04889,0.202316 2.80004,0.514961 3.89145,0.694767 2.51336,0.414068 11.55046,2.415356 13.06987,2.894353 0.45141,0.14231 2.60669,0.816902 4.7895,1.499093 11.59902,3.625024 19.04421,8.14953 21.49841,13.064771 1.01174,2.0263 1.03923,5.06046 0.0634,6.9996 -3.32781,6.61309 -16.06885,12.67301 -34.77965,16.54197 -2.03106,0.41997 -3.78257,0.70813 -3.89225,0.64034 -5.50149,-7.45196 -9.49901,-2.15415 -9.35163,-1.91017 1.08387,1.79436 1.72316,2.96286 1.72316,3.14961 0,0.25496 0.53195,2.70637 -3.76127,2.21365 -0.66673,-0.0765 -13.47174,0.36896 -16.92462,0.18886 -3.11462,-0.16246 -23.672174,0.90786 -34.744318,0.48261 z"
         id="path28719" /><path
         style="display:inline;fill:#bb3a21"
         d="m 114.99897,138.98817 c 0.3697,-0.6314 1.37278,-2.23137 2.22908,-3.55548 0.85629,-1.32411 1.51697,-2.4474 1.46818,-2.49619 -0.0488,-0.0488 -4.4218,0.10588 -9.71778,0.34372 -16.577322,0.74448 -38.775517,-0.21591 -52.359272,-2.2653 -6.990917,-1.05472 -9.294596,-1.42885 -12.435416,-2.01958 -1.964532,-0.3695 -3.929063,-0.77116 -4.365625,-0.89258 -0.436563,-0.12143 -1.74625,-0.42678 -2.910417,-0.67855 -1.164166,-0.25178 -2.950104,-0.68978 -3.96875,-0.97334 -1.018645,-0.28356 -2.745052,-0.75354 -3.836458,-1.0444 -1.813202,-0.48322 -6.865293,-2.16086 -8.466666,-2.81151 -0.363802,-0.14781 -1.316302,-0.53147 -2.116667,-0.85257 -2.382004,-0.95564 -4.76772,-2.15348 -4.654462,-2.33695 0.05817,-0.0942 -0.150698,-0.18702 -0.464156,-0.20618 -0.565649,-0.0346 -3.399456,-1.63525 -3.5685345,-2.01568 -0.048507,-0.10914 -0.1960055,-0.19844 -0.3277745,-0.19844 -0.3864132,0 -3.1949104,-2.23734 -4.3723111,-3.48312 -3.4889591,-3.69161 -4.3880094,-6.92611 -2.9216,-10.511 C 3.151,100.69141 4.6647577,98.811829 7.1573278,96.848504 10.675127,94.077635 14.95347,91.794009 21.165012,89.371703 31.241447,85.44221 46.520272,82.168212 63.10147,80.385417 c 12.471216,-1.340894 18.013113,-1.615492 32.543749,-1.612526 12.690431,0.0026 20.955461,0.332699 29.368751,1.173002 6.50774,0.649981 6.48178,0.649569 6.4881,0.102947 0.01,-0.835294 1.0357,-2.843357 1.79448,-3.512009 0.7763,-0.684082 2.17563,-1.355852 2.8243,-1.355852 0.73057,0 2.78374,1.106312 2.78374,1.499961 0,0.210843 0.10026,0.321391 0.22279,0.245662 0.34382,-0.212496 1.36949,2.051636 1.60537,3.543819 0.11616,0.734816 0.25836,1.374968 0.316,1.42256 0.0576,0.04759 0.9941,0.229175 2.08103,0.403517 1.08693,0.174341 2.03943,0.400843 2.11667,0.503337 0.0772,0.102493 0.49762,0.186352 0.93418,0.186352 0.49389,0 0.76877,0.124942 0.72761,0.330729 -0.0813,0.406637 0.38142,0.443237 0.51557,0.04078 0.10523,-0.315684 4.61123,0.543431 10.00162,1.906912 2.74615,0.694631 4.17687,1.090976 7.9375,2.198892 1.28554,0.378733 7.70609,2.746757 9.32656,3.439815 0.96438,0.412458 1.43405,0.834784 0.55191,0.496273 -0.31009,-0.11899 -0.3795,-0.0706 -0.23473,0.163646 0.11306,0.182928 0.44677,0.269518 0.74159,0.192422 0.64517,-0.168717 4.2599,1.581379 4.03106,1.951661 -0.086,0.13916 0.0143,0.187531 0.22286,0.107491 0.61171,-0.234733 4.98264,2.899274 6.98823,5.010632 4.34204,4.57104 4.68079,8.71125 1.08748,13.29147 -1.31334,1.67404 -3.20093,3.39417 -5.25247,4.78647 -1.67982,1.14002 -5.46235,3.21603 -6.9123,3.79375 -0.67306,0.26818 -1.74462,0.72078 -2.38125,1.00579 -0.63662,0.285 -1.87186,0.78282 -2.74499,1.10628 -0.87312,0.32345 -1.79183,0.69167 -2.04158,0.81826 -0.24974,0.12659 -0.90458,0.34546 -1.4552,0.48637 -0.55063,0.14092 -2.01316,0.56517 -3.25009,0.94279 -3.82903,1.16896 -5.86248,1.71917 -8.33438,2.25515 -4.42829,0.96016 -4.89479,1.09882 -4.89479,1.45482 0,0.19338 0.1786,0.53018 0.39688,0.74846 0.21828,0.21829 0.39687,0.48344 0.39687,0.58924 0,0.1058 0.27232,0.56079 0.60515,1.01109 0.33283,0.4503 0.81367,1.14896 1.06853,1.55258 l 0.46338,0.73386 -4.14158,-0.15663 c -4.33456,-0.16393 -5.40381,-0.36971 -5.40381,-1.03996 0,-0.22188 -0.11906,-0.40342 -0.26458,-0.40342 -0.14553,0 -0.26724,-0.14883 -0.27047,-0.33073 -0.003,-0.1819 -0.2116,-0.59398 -0.46302,-0.91573 l -0.45714,-0.585 -4.49792,0.65957 c -2.47385,0.36276 -5.4917,0.74508 -6.70633,0.84958 l -2.20842,0.19002 -1.84043,3.57187 c -1.01225,1.96453 -1.94083,3.67259 -2.06352,3.79568 -0.12269,0.1231 -0.62242,0.26952 -1.11052,0.32539 -0.48809,0.0559 -2.49479,0.28642 -4.45932,0.51234 -1.96453,0.22592 -4.01196,0.37715 -4.54984,0.33607 l -0.97796,-0.0747 z m -2.06091,-9.0602 c 7.82453,-0.34365 8.13526,-0.39479 8.72023,-1.43524 0.24489,-0.43558 0.5074,-0.85149 0.58334,-0.92425 0.076,-0.0728 0.66572,-0.95169 1.31062,-1.95318 0.6449,-1.00149 1.29856,-1.95399 1.45259,-2.11667 0.15403,-0.16268 0.80888,-1.11518 1.45521,-2.11666 0.64634,-1.00149 1.29975,-1.95902 1.45204,-2.12784 0.15228,-0.16883 0.39594,-0.49646 0.54146,-0.72808 0.85056,-1.35376 2.45211,-3.61369 2.94356,-4.15363 0.58017,-0.6374 1.15748,-0.58015 1.15748,0.1148 0,0.20969 0.11907,0.38126 0.26459,0.38126 0.14552,0 0.26458,0.12109 0.26458,0.26908 0,0.148 0.53578,1.1517 1.19062,2.23045 0.65485,1.07875 1.19063,2.15153 1.19063,2.38395 0,0.38261 -0.45065,1.28494 -3.34553,6.69868 -0.48829,0.91315 -0.8878,1.71682 -0.8878,1.78593 0,0.22609 1.68622,0.13264 4.90578,-0.27189 4.28769,-0.53873 4.8838,-0.64907 4.8838,-0.90403 0,-0.18675 -0.63929,-1.35525 -1.72316,-3.14961 -0.14738,-0.24398 -0.61436,-1.03892 -1.03775,-1.76652 -0.42339,-0.72761 -0.89812,-1.4877 -1.05496,-1.6891 -0.31895,-0.40955 -1.69145,-2.85882 -3.27902,-5.85153 -2.09478,-3.94882 -3.69909,-8.40562 -4.33348,-12.03854 -0.0885,-0.50698 -0.41325,-0.0337 -3.35858,4.89479 -0.30438,0.50933 -0.81649,1.43206 -1.13804,2.05053 -0.32154,0.61846 -0.67996,1.12447 -0.79648,1.12447 -0.11653,0 -0.21186,0.11742 -0.21186,0.26092 0,0.30431 -2.55491,4.67997 -3.13053,5.36148 -0.32037,0.37931 -0.83278,0.46302 -2.83416,0.46302 h -2.44309 l -0.15277,-0.85989 c -0.16644,-0.93685 -0.61765,-4.5751 -1.48479,-11.9724 -0.30706,-2.61938 -0.72939,-6.058527 -0.93851,-7.642559 -0.20913,-1.584033 -0.32664,-2.966763 -0.26115,-3.072735 0.1612,-0.260832 4.42342,-0.322659 4.78876,-0.06947 0.27503,0.190611 1.24155,7.750134 1.70891,13.366134 0.11815,1.41976 0.29359,2.82954 0.38985,3.13283 0.16163,0.50927 0.22369,0.47985 0.81104,-0.38453 0.34981,-0.51479 0.63602,-0.99244 0.63602,-1.06144 0,-0.069 0.6076,-1.17665 1.35021,-2.46144 1.63249,-2.82431 2.36086,-4.10341 3.81619,-6.701587 0.61133,-1.091406 1.63978,-2.877344 2.28545,-3.96875 l 1.17393,-1.984375 1.88767,-0.01952 c 1.14674,-0.01186 2.0527,-0.156474 2.30809,-0.368432 0.65243,-0.541465 0.76171,-0.160872 0.39218,1.365859 -0.90268,3.729477 -0.12199,8.330825 2.2724,13.393505 1.51637,3.20619 4.01555,7.45079 4.38939,7.45491 0.0902,9.9e-4 0.29624,-0.50421 0.4578,-1.12267 0.39723,-1.52062 2.66552,-10.98268 3.89632,-16.253297 0.85396,-3.656939 1.0796,-4.30236 1.54804,-4.428158 0.79239,-0.212792 7.85273,-0.156616 10.33795,0.08225 3.32295,0.319388 5.20619,1.525249 6.12034,3.918925 0.24237,0.634623 0.57179,1.111056 0.73204,1.058741 0.16026,-0.05232 0.90839,-1.093834 1.66252,-2.314486 0.75414,-1.220651 1.58056,-2.372491 1.83651,-2.559644 0.50144,-0.366662 4.24683,-0.475024 4.76249,-0.137789 0.16347,0.106913 0.4355,1.027824 0.60451,2.04647 0.16901,1.018646 0.89738,5.483488 1.61861,9.921868 0.72122,4.43839 1.4377,8.75568 1.59217,9.59397 0.15446,0.8383 0.20805,1.64197 0.11907,1.78594 -0.089,0.14397 -1.21829,0.26176 -2.50958,0.26176 -2.00465,0 -2.3689,-0.0677 -2.49211,-0.46302 -0.15075,-0.48373 -0.67078,-3.92416 -0.67987,-4.49792 -0.004,-0.25232 -1.1512,-0.33073 -4.83914,-0.33073 h -4.83391 l -1.57698,2.64584 -1.57698,2.64583 h -7.74432 c -4.25938,0 -7.73746,0.0893 -7.72907,0.19844 0.0171,0.2222 0.17867,0.45884 3.63313,5.32022 1.35176,1.90231 2.54749,3.51421 2.65717,3.582 0.10968,0.0678 1.86119,-0.22037 3.89225,-0.64034 18.7108,-3.86896 31.45184,-9.92888 34.77965,-16.54197 0.97581,-1.93914 0.94832,-4.9733 -0.0634,-6.9996 -2.4542,-4.915239 -9.89939,-9.439745 -21.49841,-13.064769 -2.18281,-0.682191 -4.33809,-1.356783 -4.7895,-1.499093 -1.51941,-0.478997 -10.55651,-2.480285 -13.06987,-2.894353 -1.09141,-0.179806 -2.84256,-0.492451 -3.89145,-0.694767 -2.94071,-0.567219 -3.11273,-0.534126 -3.51199,0.675631 -0.96636,2.928107 -3.75528,4.447355 -6.05661,3.299301 -1.44785,-0.72228 -3.15188,-3.416241 -3.19392,-5.049361 -0.0187,-0.725142 -0.19652,-0.760618 -6.36478,-1.269555 -16.69422,-1.377422 -38.173484,-1.275606 -54.514528,0.258411 -5.788176,0.543365 -13.800457,1.568058 -17.584432,2.248877 -24.436031,4.39657 -39.069601,10.734671 -42.512397,18.412998 -0.8981279,2.00305 -0.835551,4.5508 0.161661,6.58185 2.358257,4.80312 10.292157,9.64296 21.453673,13.08718 1.452447,0.4482 2.998001,0.92974 3.434563,1.0701 2.363458,0.75987 9.873028,2.44135 15.213542,3.40649 6.252654,1.12998 9.126579,1.55595 13.626041,2.01962 2.182812,0.22495 4.980781,0.5213 6.217708,0.65856 10.614706,1.17795 29.135028,1.63118 42.560549,1.04154 z m 25.97086,-19.89138 c -1.8419,-3.29828 -2.71126,-5.54427 -2.53312,-6.54438 1.07516,-6.036391 1.15758,-7.498963 0.55102,-9.778195 -0.21119,-0.793597 -0.33325,-1.493641 -0.27124,-1.555652 0.062,-0.06201 0.89312,0.66763 1.84692,1.621424 1.18395,1.183955 2.00342,2.307131 2.58281,3.540027 0.79985,1.70203 0.85448,2.0124 0.95024,5.398326 0.13889,4.91149 -0.71445,8.98337 -1.88029,8.9721 -0.17854,-0.002 -0.7394,-0.74587 -1.24634,-1.65365 z m 15.36385,1.98942 c 1.50412,-0.92959 2.03201,-1.48792 2.74048,-2.89845 1.11486,-2.21962 1.74699,-4.58358 1.89627,-7.09137 0.12269,-2.061194 0.0722,-2.490787 -0.37536,-3.19618 -0.84774,-1.336013 -1.97611,-1.698615 -5.28583,-1.698615 h -2.9065 l -1.49833,6.151565 c -1.9055,7.82325 -2.00141,8.25197 -2.00141,8.9465 0,0.56654 0.0547,0.57441 3.25163,0.46798 2.75458,-0.0917 3.3934,-0.19587 4.17905,-0.68143 z m 15.58527,-5.44227 c -0.004,-0.77921 -1.02933,-7.387671 -1.168,-7.526344 -0.12014,-0.120135 -0.21466,0.02131 -2.34418,3.507954 -2.04557,3.3492 -2.59721,4.37266 -2.46921,4.58113 0.0613,0.0998 1.43275,0.14418 3.04778,0.0987 2.81978,-0.0794 2.9363,-0.10564 2.93361,-0.66146 z m 11.51218,-11.823595 c -0.0899,-0.145521 -0.30533,-0.26276 -0.47864,-0.260532 -0.18934,0.0024 -0.15671,0.106423 0.0818,0.260532 0.5083,0.328487 0.59989,0.328487 0.39688,0 z m -4.23334,-2.38125 c -0.0899,-0.145521 -0.30532,-0.26276 -0.47863,-0.260532 -0.18934,0.0024 -0.15671,0.106423 0.0818,0.260532 0.5083,0.328487 0.59989,0.328487 0.39687,0 z m -16.50069,-5.963481 c -0.48965,-0.212586 -1.02543,-0.381149 -1.19062,-0.374585 -0.41917,0.01665 1.19677,0.736302 1.68402,0.749971 0.21828,0.0061 -0.004,-0.162801 -0.4934,-0.375386 z m -4.9967,-1.355497 c -0.1819,-0.0734 -0.47956,-0.0734 -0.66146,0 -0.1819,0.0734 -0.0331,0.133452 0.33073,0.133452 0.3638,0 0.51263,-0.06005 0.33073,-0.133452 z"
         id="path28718" /><path
         style="display:inline;fill:#3d3813"
         d="m 79.975757,116.2083 c -1.414077,-0.87826 -1.503332,-2.77085 -0.221987,-4.70709 1.009457,-1.52539 2.080418,-2.21138 3.67207,-2.35209 1.791188,-0.15835 2.56933,0.44443 2.760241,2.13819 0.36217,3.21315 -3.734051,6.45895 -6.210324,4.92099 z m 3.051594,-1.18159 c 0.80579,-0.41669 1.902243,-2.17812 1.902243,-3.05592 0,-1.39373 -1.202822,-2.14929 -2.488805,-1.56336 -0.773359,0.35237 -1.895916,1.8855 -2.153854,2.94162 -0.394669,1.61597 1.095539,2.52826 2.740416,1.67766 z m 13.402064,1.41381 c -0.09519,-0.15402 0.401574,-1.8209 1.103923,-3.70417 1.121678,-3.00765 1.350007,-3.42412 1.877252,-3.42412 0.330139,0 0.59763,0.0893 0.59443,0.19844 -0.003,0.10914 -0.46331,1.47835 -1.022463,3.0427 -0.606624,1.69716 -0.897723,2.85218 -0.721782,2.86387 0.162173,0.0108 0.97947,0.0205 1.816215,0.0216 1.64379,0.002 1.65477,0.009 1.24746,0.76998 -0.23744,0.44366 -0.56988,0.51177 -2.497926,0.51177 -1.279129,0 -2.297567,-0.11898 -2.397109,-0.28004 z m 5.698095,0.0743 c 0,-0.21489 0.77439,-1.41713 1.06046,-1.64637 0.0908,-0.0728 0.56609,-0.72761 1.05621,-1.45521 0.49011,-0.7276 0.95926,-1.38245 1.04255,-1.45521 0.0833,-0.0728 0.5674,-0.69416 1.0758,-1.38088 0.68659,-0.92743 1.10281,-1.25069 1.61814,-1.25677 0.61087,-0.007 0.71477,0.123 0.86931,1.08943 0.0965,0.60369 0.0946,2.27186 -0.004,3.70704 -0.15072,2.18833 -0.2483,2.59828 -0.60472,2.5404 -0.55804,-0.0906 -0.81285,-0.46246 -0.81782,-1.19349 -0.004,-0.5385 -0.13199,-0.59531 -1.34474,-0.59531 -1.18946,0 -1.43919,0.10445 -2.21405,0.92604 -0.79418,0.84207 -1.73693,1.23304 -1.73693,0.72033 z m 5.50773,-3.85701 c 0.13615,-1.65765 -0.14611,-2.01314 -0.77601,-0.97735 -0.29546,0.48584 -0.70706,1.05321 -0.91467,1.26082 -0.63201,0.63201 -0.42711,0.90489 0.61472,0.81866 0.94369,-0.0781 0.99628,-0.13198 1.07596,-1.10213 z m -36.391983,3.20283 c 0.324716,-1.446 2.306732,-6.15682 2.71645,-6.45642 0.515097,-0.37664 3.735169,-0.19557 4.289158,0.24119 0.5831,0.45972 0.381766,1.8746 -0.400003,2.81103 -0.605646,0.72547 -0.956652,0.89626 -2.050521,0.99774 -2.319657,0.2152 -2.400117,0.2603 -2.987872,1.67459 -0.42245,1.01653 -0.686061,1.32718 -1.126223,1.32718 -0.459179,0 -0.547807,-0.11964 -0.440989,-0.59531 z m 5.482062,-3.96121 c 0.847009,-0.90916 0.585613,-1.38413 -0.811906,-1.47528 -1.077563,-0.0703 -1.23957,-0.005 -1.518974,0.60776 -0.543804,1.19352 -0.41155,1.45529 0.735265,1.45529 0.742136,0 1.207853,-0.17156 1.595615,-0.58777 z m 9.658106,3.96121 c 0.285666,-1.02094 1.733608,-4.78357 2.21453,-5.75469 l 0.458597,-0.92604 h 2.103689 c 2.272821,0 3.029769,0.36989 3.029769,1.48053 0,0.88382 -0.825191,2.04135 -1.704067,2.39037 -0.445211,0.17681 -0.848019,0.34938 -0.895129,0.38351 -0.04711,0.0341 0.101717,0.42437 0.330729,0.86723 0.229011,0.44286 0.416384,1.10877 0.416384,1.4798 0,0.53421 -0.131113,0.6746 -0.630048,0.6746 -0.524312,0 -0.67951,-0.19643 -0.924773,-1.17046 -0.333182,-1.32319 -0.973578,-2.10622 -1.543642,-1.88747 -0.21142,0.0811 -0.469068,0.14751 -0.572552,0.14751 -0.103483,0 -0.41074,0.65484 -0.682793,1.45521 -0.41584,1.22338 -0.59601,1.45521 -1.130954,1.45521 -0.532847,0 -0.609228,-0.0968 -0.46974,-0.59531 z m 5.813432,-3.89532 c 0.223109,-0.18517 0.405653,-0.60825 0.405653,-0.94019 0,-0.53837 -0.147257,-0.61346 -1.363927,-0.69551 -1.319134,-0.089 -1.375615,-0.064 -1.719792,0.75971 -0.195725,0.46844 -0.355864,0.98974 -0.355864,1.15845 0,0.40697 2.481602,0.17593 3.03393,-0.28246 z m -74.91756,-0.96629 c -0.08914,-0.2323 -0.055,-0.8555 0.07588,-1.38488 0.232392,-0.93998 0.274818,-0.96709 1.812962,-1.15858 0.866251,-0.10784 1.95181,-0.32044 2.412355,-0.47243 0.945109,-0.31191 1.190421,-0.78143 4.213072,-8.06365 0.966427,-2.328334 1.987845,-4.739349 2.269816,-5.357813 l 0.512674,-1.124479 h 1.586145 c 1.734549,0 1.804286,0.08687 1.189269,1.481368 -0.648195,1.46973 -1.038999,2.401503 -2.929773,6.985294 -2.011525,4.87654 -2.642884,6.0073 -4.210298,7.54063 -0.862157,0.84341 -1.402226,1.12269 -2.659434,1.37526 -2.978986,0.59845 -4.093867,0.64523 -4.272668,0.17928 z m 16.850298,-5.15545 c -2.641712,-0.79497 -3.602328,-3.57377 -2.362814,-6.834991 1.455246,-3.82883 4.122395,-5.843053 8.009725,-6.048923 2.48464,-0.131584 3.70369,0.309462 4.642562,1.679657 0.563577,0.822486 0.613079,1.120062 0.49322,2.964914 -0.09439,1.452847 -0.31642,2.397763 -0.761608,3.241293 -0.841497,1.59444 -3.194979,3.90494 -4.619383,4.53502 -1.386724,0.61342 -4.122627,0.84793 -5.401702,0.46303 z m 4.505191,-2.80054 c 1.56452,-1.07218 2.743574,-3.056125 3.038066,-5.112026 0.321188,-2.242272 -1.316832,-3.260501 -3.666086,-2.27892 -2.410116,1.007011 -4.236267,5.727716 -2.808531,7.260216 0.670387,0.71957 2.477032,0.7883 3.436551,0.13073 z m 8.723976,-3.520425 v -6.35 h 1.628509 1.628509 l -0.16016,4.101041 c -0.08809,2.255573 -0.07678,4.101034 0.02514,4.101034 0.252356,-1e-5 1.640504,-1.760449 1.640504,-2.080474 0,-0.141169 0.09021,-0.296358 0.20046,-0.344865 0.173765,-0.07645 1.778838,-2.036356 4.032874,-4.924418 0.627362,-0.803829 0.753401,-0.84764 2.445134,-0.849917 l 1.783676,-0.0024 -1.692438,2.050521 c -3.714759,4.500721 -5.887584,7.151793 -6.769706,8.259733 -1.806528,2.269 -1.979711,2.38974 -3.427556,2.38974 h -1.334943 z m 13.612924,5.977835 c -0.95469,-0.41583 -2.169216,-1.7838 -2.39996,-2.70316 -0.33295,-1.32657 0.06129,-3.492654 0.956804,-5.256953 1.608317,-3.168639 4.263378,-4.891072 7.541689,-4.892561 3.426209,-0.0016 4.837694,1.871198 4.097523,5.436582 -0.468248,2.255532 -0.480369,2.260652 -5.252271,2.216292 l -4.136918,-0.0385 -0.07829,1.0225 c -0.103436,1.35102 0.654169,2.20667 1.953814,2.20667 1.001641,0 2.188135,-0.50798 2.7402,-1.17317 0.355976,-0.42893 1.50823,-0.50297 2.660312,-0.17095 l 0.661459,0.19062 -1.089404,1.03977 c -1.47065,1.40365 -1.638874,1.51731 -3.020484,2.04064 -1.418097,0.53716 -3.504977,0.57416 -4.634479,0.0822 z m 7.243672,-8.192617 c 0.205159,-1.795216 -0.635779,-2.62617 -2.34493,-2.317091 -1.064627,0.192526 -1.753211,0.652844 -2.577831,1.723283 -1.070152,1.389164 -0.886816,1.512493 2.123977,1.428783 l 2.711979,-0.0754 z m 1.89757,8.180427 c 0,-0.37886 1.116385,-3.17547 3.648876,-9.140645 l 1.291769,-3.042709 1.647011,-0.07919 c 1.609361,-0.07738 1.6401,-0.06628 1.344699,0.485681 -0.166272,0.310681 -0.25195,0.615237 -0.190397,0.67679 0.06155,0.06155 0.81534,-0.244792 1.675082,-0.680767 1.171144,-0.593887 1.929941,-0.793523 3.02565,-0.796034 3.080558,-0.0071 3.631271,1.682742 1.852825,5.68519 -0.258643,0.582083 -0.984389,2.308484 -1.612769,3.836454 -0.62838,1.52797 -1.253329,2.92695 -1.388775,3.10886 -0.342299,0.4597 -3.091888,0.44803 -3.091888,-0.0131 0,-0.18911 0.773906,-2.1594 1.719791,-4.37841 1.90809,-4.476292 2.125829,-5.701791 1.060562,-5.969156 -1.399984,-0.351374 -4.205943,1.577378 -4.927091,3.38677 -0.180268,0.452299 -0.647425,1.536736 -1.038126,2.409856 -0.390701,0.87313 -0.994799,2.3299 -1.342439,3.23727 l -0.632072,1.64976 -1.521354,0.004 c -1.155686,0.003 -1.521354,-0.0885 -1.521354,-0.38047 z m 18.388541,-0.009 c -1.943252,-0.91197 -2.629304,-2.2181 -2.467289,-4.69733 0.196706,-3.010092 2.184661,-5.905831 5.030782,-7.328055 2.948174,-1.47322 6.33505,-1.008979 7.414151,1.016262 0.651435,1.222602 0.176446,5.038317 -0.702206,5.641013 -0.153783,0.10548 -2.125074,0.17771 -4.380647,0.16049 l -4.101041,-0.0313 -0.07964,1.20411 c -0.06639,1.0037 0.02048,1.27424 0.521892,1.62544 0.923996,0.64719 2.325611,0.52613 3.531229,-0.30501 0.931992,-0.6425 1.328466,-0.73384 3.434856,-0.79132 1.309687,-0.0358 2.678658,-0.0958 3.042158,-0.13356 0.468356,-0.0486 0.736226,0.1027 0.919426,0.51931 0.57385,1.3049 3.6121,1.52031 4.64504,0.32932 0.28682,-0.33071 0.5215,-0.69363 0.5215,-0.80649 0,-0.44554 -0.85243,-1.01361 -2.17927,-1.45229 -3.07287,-1.015961 -4.004412,-2.118731 -3.4129,-4.040199 0.70711,-2.296977 2.74911,-3.545803 6.04843,-3.699029 2.77566,-0.128907 4.27242,0.479779 4.80561,1.95429 0.18862,0.521636 0.30226,0.988544 0.25252,1.037573 -0.0497,0.04903 -0.69665,0.199026 -1.43757,0.333327 -1.21593,0.220399 -1.41575,0.185166 -2.05156,-0.361742 -0.99679,-0.857403 -2.39709,-1.067131 -3.5271,-0.528268 -0.75516,0.36011 -0.89934,0.559792 -0.83046,1.150188 0.0733,0.628297 0.29225,0.779455 1.81627,1.253837 2.93292,0.912933 3.93366,1.774992 3.9472,3.400183 0.0119,1.42748 -1.17354,3.05014 -2.92445,4.0031 -1.60672,0.87449 -4.41705,1.1955 -6.19526,0.70766 -1.124397,-0.30846 -2.778126,-1.66546 -2.778126,-2.27963 0,-0.73711 -0.536243,-0.6673 -1.41841,0.18467 -1.267764,1.22436 -1.473807,1.36097 -2.823769,1.87232 -1.439677,0.54533 -3.530669,0.57299 -4.621362,0.0611 z m 7.14375,-8.574055 c 0,-1.49672 -0.828427,-2.221862 -2.266137,-1.983603 -1.352383,0.224118 -3.157822,1.942323 -3.157822,3.005245 0,0.197884 0.86927,0.267064 2.71198,0.215831 l 2.711979,-0.0754 z M 39.323408,90.989832 c 0.108877,-0.181901 0.740982,-0.954304 1.404677,-1.716453 1.203841,-1.382419 1.210504,-1.385728 2.794218,-1.387838 l 1.5875,-0.0021 -0.79375,0.736411 c -1.905835,1.768163 -3.386136,2.700724 -4.286995,2.700724 -0.652077,0 -0.848505,-0.09206 -0.70565,-0.33073 z"
         id="path28717" /></g></g></svg>
